<?xml version="1.0" encoding="UTF-8" standalone="no"?>
<svg
   class="main-svg"
   width="600"
   height="350"
   style=""
   viewBox="0 0 600 350"
   version="1.1"
   id="svg172"
   sodipodi:docname="beige-book-monitor-vs-gdp_2025-11-26.svg"
   inkscape:version="1.4.2 (ebf0e940, 2025-05-08)"
   xmlns:inkscape="http://www.inkscape.org/namespaces/inkscape"
   xmlns:sodipodi="http://sodipodi.sourceforge.net/DTD/sodipodi-0.dtd"
   xmlns="http://www.w3.org/2000/svg"
   xmlns:svg="http://www.w3.org/2000/svg">
  <sodipodi:namedview
     id="namedview172"
     pagecolor="#ffffff"
     bordercolor="#000000"
     borderopacity="0.25"
     inkscape:showpageshadow="2"
     inkscape:pageopacity="0.0"
     inkscape:pagecheckerboard="0"
     inkscape:deskcolor="#d1d1d1"
     inkscape:zoom="1.4233333"
     inkscape:cx="300.3513"
     inkscape:cy="113.46604"
     inkscape:window-width="1176"
     inkscape:window-height="1186"
     inkscape:window-x="244"
     inkscape:window-y="30"
     inkscape:window-maximized="0"
     inkscape:current-layer="svg172" />
  <rect
     x="0"
     y="0"
     width="600"
     height="350"
     style="fill: rgb(0, 0, 0); fill-opacity: 0;"
     id="rect1" />
  <defs
     id="defs-273f2d">
    <g
       class="clips"
       id="g8">
      <clipPath
         id="clip273f2dxyplot"
         class="plotclip">
        <rect
           width="524"
           height="282"
           id="rect2" />
      </clipPath>
      <clipPath
         id="clip273f2dxy2plot"
         class="plotclip">
        <rect
           width="524"
           height="282"
           id="rect3" />
      </clipPath>
      <clipPath
         class="axesclip"
         id="clip273f2dx">
        <rect
           x="40"
           y="0"
           width="524"
           height="350"
           id="rect4" />
      </clipPath>
      <clipPath
         class="axesclip"
         id="clip273f2dy">
        <rect
           x="0"
           y="28"
           width="600"
           height="282"
           id="rect5" />
      </clipPath>
      <clipPath
         class="axesclip"
         id="clip273f2dxy">
        <rect
           x="40"
           y="28"
           width="524"
           height="282"
           id="rect6" />
      </clipPath>
      <clipPath
         class="axesclip"
         id="clip273f2dy2">
        <rect
           x="0"
           y="28"
           width="600"
           height="282"
           id="rect7" />
      </clipPath>
      <clipPath
         class="axesclip"
         id="clip273f2dxy2">
        <rect
           x="40"
           y="28"
           width="524"
           height="282"
           id="rect8" />
      </clipPath>
    </g>
    <g
       class="gradients"
       id="g9" />
    <g
       class="patterns"
       id="g10" />
  </defs>
  <g
     class="bglayer"
     id="g11">
    <rect
       class="bg"
       x="40"
       y="28"
       width="524"
       height="282"
       style="fill: rgb(255, 255, 255); fill-opacity: 1; stroke-width: 0;"
       id="rect10" />
  </g>
  <g
     class="layer-below"
     id="g49">
    <g
       class="imagelayer"
       id="g12" />
    <g
       class="shapelayer"
       id="g48">
      <g
         class="shape-group"
         data-index="1"
         clip-path="url(#clip273f2dx)"
         id="g13">
        <path
           data-index="1"
           fill-rule="evenodd"
           d="M-339.03,310H-339.03V28H-339.03Z"
           style="opacity: 1; stroke: rgb(0, 0, 0); stroke-opacity: 0; fill: rgb(150, 150, 150); fill-opacity: 0.18; stroke-width: 0px;"
           id="path12" />
      </g>
      <g
         class="shape-group"
         data-index="2"
         clip-path="url(#clip273f2dx)"
         id="g14">
        <path
           data-index="2"
           fill-rule="evenodd"
           d="M-339.03,310H-339.03V28H-339.03Z"
           style="opacity: 1; stroke: rgb(0, 0, 0); stroke-opacity: 0; fill: rgb(150, 150, 150); fill-opacity: 0.18; stroke-width: 0px;"
           id="path13" />
      </g>
      <g
         class="shape-group"
         data-index="3"
         clip-path="url(#clip273f2dx)"
         id="g15">
        <path
           data-index="3"
           fill-rule="evenodd"
           d="M-339.03,310H-339.03V28H-339.03Z"
           style="opacity: 1; stroke: rgb(0, 0, 0); stroke-opacity: 0; fill: rgb(150, 150, 150); fill-opacity: 0.18; stroke-width: 0px;"
           id="path14" />
      </g>
      <g
         class="shape-group"
         data-index="4"
         clip-path="url(#clip273f2dx)"
         id="g16">
        <path
           data-index="4"
           fill-rule="evenodd"
           d="M-339.03,310H-339.03V28H-339.03Z"
           style="opacity: 1; stroke: rgb(0, 0, 0); stroke-opacity: 0; fill: rgb(150, 150, 150); fill-opacity: 0.18; stroke-width: 0px;"
           id="path15" />
      </g>
      <g
         class="shape-group"
         data-index="5"
         clip-path="url(#clip273f2dx)"
         id="g17">
        <path
           data-index="5"
           fill-rule="evenodd"
           d="M-339.03,310H-339.03V28H-339.03Z"
           style="opacity: 1; stroke: rgb(0, 0, 0); stroke-opacity: 0; fill: rgb(150, 150, 150); fill-opacity: 0.18; stroke-width: 0px;"
           id="path16" />
      </g>
      <g
         class="shape-group"
         data-index="6"
         clip-path="url(#clip273f2dx)"
         id="g18">
        <path
           data-index="6"
           fill-rule="evenodd"
           d="M-339.03,310H-339.03V28H-339.03Z"
           style="opacity: 1; stroke: rgb(0, 0, 0); stroke-opacity: 0; fill: rgb(150, 150, 150); fill-opacity: 0.18; stroke-width: 0px;"
           id="path17" />
      </g>
      <g
         class="shape-group"
         data-index="7"
         clip-path="url(#clip273f2dx)"
         id="g19">
        <path
           data-index="7"
           fill-rule="evenodd"
           d="M-339.03,310H-339.03V28H-339.03Z"
           style="opacity: 1; stroke: rgb(0, 0, 0); stroke-opacity: 0; fill: rgb(150, 150, 150); fill-opacity: 0.18; stroke-width: 0px;"
           id="path18" />
      </g>
      <g
         class="shape-group"
         data-index="8"
         clip-path="url(#clip273f2dx)"
         id="g20">
        <path
           data-index="8"
           fill-rule="evenodd"
           d="M-339.03,310H-339.03V28H-339.03Z"
           style="opacity: 1; stroke: rgb(0, 0, 0); stroke-opacity: 0; fill: rgb(150, 150, 150); fill-opacity: 0.18; stroke-width: 0px;"
           id="path19" />
      </g>
      <g
         class="shape-group"
         data-index="9"
         clip-path="url(#clip273f2dx)"
         id="g21">
        <path
           data-index="9"
           fill-rule="evenodd"
           d="M-339.03,310H-339.03V28H-339.03Z"
           style="opacity: 1; stroke: rgb(0, 0, 0); stroke-opacity: 0; fill: rgb(150, 150, 150); fill-opacity: 0.18; stroke-width: 0px;"
           id="path20" />
      </g>
      <g
         class="shape-group"
         data-index="10"
         clip-path="url(#clip273f2dx)"
         id="g22">
        <path
           data-index="10"
           fill-rule="evenodd"
           d="M-339.03,310H-339.03V28H-339.03Z"
           style="opacity: 1; stroke: rgb(0, 0, 0); stroke-opacity: 0; fill: rgb(150, 150, 150); fill-opacity: 0.18; stroke-width: 0px;"
           id="path21" />
      </g>
      <g
         class="shape-group"
         data-index="11"
         clip-path="url(#clip273f2dx)"
         id="g23">
        <path
           data-index="11"
           fill-rule="evenodd"
           d="M-339.03,310H-339.03V28H-339.03Z"
           style="opacity: 1; stroke: rgb(0, 0, 0); stroke-opacity: 0; fill: rgb(150, 150, 150); fill-opacity: 0.18; stroke-width: 0px;"
           id="path22" />
      </g>
      <g
         class="shape-group"
         data-index="12"
         clip-path="url(#clip273f2dx)"
         id="g24">
        <path
           data-index="12"
           fill-rule="evenodd"
           d="M-339.03,310H-339.03V28H-339.03Z"
           style="opacity: 1; stroke: rgb(0, 0, 0); stroke-opacity: 0; fill: rgb(150, 150, 150); fill-opacity: 0.18; stroke-width: 0px;"
           id="path23" />
      </g>
      <g
         class="shape-group"
         data-index="13"
         clip-path="url(#clip273f2dx)"
         id="g25">
        <path
           data-index="13"
           fill-rule="evenodd"
           d="M-339.03,310H-339.03V28H-339.03Z"
           style="opacity: 1; stroke: rgb(0, 0, 0); stroke-opacity: 0; fill: rgb(150, 150, 150); fill-opacity: 0.18; stroke-width: 0px;"
           id="path24" />
      </g>
      <g
         class="shape-group"
         data-index="14"
         clip-path="url(#clip273f2dx)"
         id="g26">
        <path
           data-index="14"
           fill-rule="evenodd"
           d="M-339.03,310H-339.03V28H-339.03Z"
           style="opacity: 1; stroke: rgb(0, 0, 0); stroke-opacity: 0; fill: rgb(150, 150, 150); fill-opacity: 0.18; stroke-width: 0px;"
           id="path25" />
      </g>
      <g
         class="shape-group"
         data-index="15"
         clip-path="url(#clip273f2dx)"
         id="g27">
        <path
           data-index="15"
           fill-rule="evenodd"
           d="M-339.03,310H-339.03V28H-339.03Z"
           style="opacity: 1; stroke: rgb(0, 0, 0); stroke-opacity: 0; fill: rgb(150, 150, 150); fill-opacity: 0.18; stroke-width: 0px;"
           id="path26" />
      </g>
      <g
         class="shape-group"
         data-index="16"
         clip-path="url(#clip273f2dx)"
         id="g28">
        <path
           data-index="16"
           fill-rule="evenodd"
           d="M-339.03,310H-339.03V28H-339.03Z"
           style="opacity: 1; stroke: rgb(0, 0, 0); stroke-opacity: 0; fill: rgb(150, 150, 150); fill-opacity: 0.18; stroke-width: 0px;"
           id="path27" />
      </g>
      <g
         class="shape-group"
         data-index="17"
         clip-path="url(#clip273f2dx)"
         id="g29">
        <path
           data-index="17"
           fill-rule="evenodd"
           d="M-339.03,310H-339.03V28H-339.03Z"
           style="opacity: 1; stroke: rgb(0, 0, 0); stroke-opacity: 0; fill: rgb(150, 150, 150); fill-opacity: 0.18; stroke-width: 0px;"
           id="path28" />
      </g>
      <g
         class="shape-group"
         data-index="18"
         clip-path="url(#clip273f2dx)"
         id="g30">
        <path
           data-index="18"
           fill-rule="evenodd"
           d="M-339.03,310H-339.03V28H-339.03Z"
           style="opacity: 1; stroke: rgb(0, 0, 0); stroke-opacity: 0; fill: rgb(150, 150, 150); fill-opacity: 0.18; stroke-width: 0px;"
           id="path29" />
      </g>
      <g
         class="shape-group"
         data-index="19"
         clip-path="url(#clip273f2dx)"
         id="g31">
        <path
           data-index="19"
           fill-rule="evenodd"
           d="M-339.03,310H-339.03V28H-339.03Z"
           style="opacity: 1; stroke: rgb(0, 0, 0); stroke-opacity: 0; fill: rgb(150, 150, 150); fill-opacity: 0.18; stroke-width: 0px;"
           id="path30" />
      </g>
      <g
         class="shape-group"
         data-index="20"
         clip-path="url(#clip273f2dx)"
         id="g32">
        <path
           data-index="20"
           fill-rule="evenodd"
           d="M-339.03,310H-339.03V28H-339.03Z"
           style="opacity: 1; stroke: rgb(0, 0, 0); stroke-opacity: 0; fill: rgb(150, 150, 150); fill-opacity: 0.18; stroke-width: 0px;"
           id="path31" />
      </g>
      <g
         class="shape-group"
         data-index="21"
         clip-path="url(#clip273f2dx)"
         id="g33">
        <path
           data-index="21"
           fill-rule="evenodd"
           d="M-339.03,310H-339.03V28H-339.03Z"
           style="opacity: 1; stroke: rgb(0, 0, 0); stroke-opacity: 0; fill: rgb(150, 150, 150); fill-opacity: 0.18; stroke-width: 0px;"
           id="path32" />
      </g>
      <g
         class="shape-group"
         data-index="22"
         clip-path="url(#clip273f2dx)"
         id="g34">
        <path
           data-index="22"
           fill-rule="evenodd"
           d="M-339.03,310H-339.03V28H-339.03Z"
           style="opacity: 1; stroke: rgb(0, 0, 0); stroke-opacity: 0; fill: rgb(150, 150, 150); fill-opacity: 0.18; stroke-width: 0px;"
           id="path33" />
      </g>
      <g
         class="shape-group"
         data-index="23"
         clip-path="url(#clip273f2dx)"
         id="g35">
        <path
           data-index="23"
           fill-rule="evenodd"
           d="M-339.03,310H-339.03V28H-339.03Z"
           style="opacity: 1; stroke: rgb(0, 0, 0); stroke-opacity: 0; fill: rgb(150, 150, 150); fill-opacity: 0.18; stroke-width: 0px;"
           id="path34" />
      </g>
      <g
         class="shape-group"
         data-index="24"
         clip-path="url(#clip273f2dx)"
         id="g36">
        <path
           data-index="24"
           fill-rule="evenodd"
           d="M-332.55,310H-327.69V28H-332.55Z"
           style="opacity: 1; stroke: rgb(0, 0, 0); stroke-opacity: 0; fill: rgb(150, 150, 150); fill-opacity: 0.18; stroke-width: 0px;"
           id="path35" />
      </g>
      <g
         class="shape-group"
         data-index="25"
         clip-path="url(#clip273f2dx)"
         id="g37">
        <path
           data-index="25"
           fill-rule="evenodd"
           d="M-303.39,310H-298.53V28H-303.39Z"
           style="opacity: 1; stroke: rgb(0, 0, 0); stroke-opacity: 0; fill: rgb(150, 150, 150); fill-opacity: 0.18; stroke-width: 0px;"
           id="path36" />
      </g>
      <g
         class="shape-group"
         data-index="26"
         clip-path="url(#clip273f2dx)"
         id="g38">
        <path
           data-index="26"
           fill-rule="evenodd"
           d="M-275.85,310H-272.61V28H-275.85Z"
           style="opacity: 1; stroke: rgb(0, 0, 0); stroke-opacity: 0; fill: rgb(150, 150, 150); fill-opacity: 0.18; stroke-width: 0px;"
           id="path37" />
      </g>
      <g
         class="shape-group"
         data-index="27"
         clip-path="url(#clip273f2dx)"
         id="g39">
        <path
           data-index="27"
           fill-rule="evenodd"
           d="M-259.66,310H-254.8V28H-259.66Z"
           style="opacity: 1; stroke: rgb(0, 0, 0); stroke-opacity: 0; fill: rgb(150, 150, 150); fill-opacity: 0.18; stroke-width: 0px;"
           id="path38" />
      </g>
      <g
         class="shape-group"
         data-index="28"
         clip-path="url(#clip273f2dx)"
         id="g40">
        <path
           data-index="28"
           fill-rule="evenodd"
           d="M-196.48,310H-191.62V28H-196.48Z"
           style="opacity: 1; stroke: rgb(0, 0, 0); stroke-opacity: 0; fill: rgb(150, 150, 150); fill-opacity: 0.18; stroke-width: 0px;"
           id="path39" />
      </g>
      <g
         class="shape-group"
         data-index="29"
         clip-path="url(#clip273f2dx)"
         id="g41">
        <path
           data-index="29"
           fill-rule="evenodd"
           d="M-170.56,310H-162.46V28H-170.56Z"
           style="opacity: 1; stroke: rgb(0, 0, 0); stroke-opacity: 0; fill: rgb(150, 150, 150); fill-opacity: 0.18; stroke-width: 0px;"
           id="path40" />
      </g>
      <g
         class="shape-group"
         data-index="30"
         clip-path="url(#clip273f2dx)"
         id="g42">
        <path
           data-index="30"
           fill-rule="evenodd"
           d="M-131.68,310H-128.44V28H-131.68Z"
           style="opacity: 1; stroke: rgb(0, 0, 0); stroke-opacity: 0; fill: rgb(150, 150, 150); fill-opacity: 0.18; stroke-width: 0px;"
           id="path41" />
      </g>
      <g
         class="shape-group"
         data-index="31"
         clip-path="url(#clip273f2dx)"
         id="g43">
        <path
           data-index="31"
           fill-rule="evenodd"
           d="M-121.96000000000001,310H-113.86000000000001V28H-121.96000000000001Z"
           style="opacity: 1; stroke: rgb(0, 0, 0); stroke-opacity: 0; fill: rgb(150, 150, 150); fill-opacity: 0.18; stroke-width: 0px;"
           id="path42" />
      </g>
      <g
         class="shape-group"
         data-index="32"
         clip-path="url(#clip273f2dx)"
         id="g44">
        <path
           data-index="32"
           fill-rule="evenodd"
           d="M-63.64,310H-58.78V28H-63.64Z"
           style="opacity: 1; stroke: rgb(0, 0, 0); stroke-opacity: 0; fill: rgb(150, 150, 150); fill-opacity: 0.18; stroke-width: 0px;"
           id="path43" />
      </g>
      <g
         class="shape-group"
         data-index="33"
         clip-path="url(#clip273f2dx)"
         id="g45">
        <path
           data-index="33"
           fill-rule="evenodd"
           d="M64.33,310H75.67V28H64.33Z"
           style="opacity: 1; stroke: rgb(0, 0, 0); stroke-opacity: 0; fill: rgb(150, 150, 150); fill-opacity: 0.18; stroke-width: 0px;"
           id="path44" />
      </g>
      <g
         class="shape-group"
         data-index="34"
         clip-path="url(#clip273f2dx)"
         id="g46">
        <path
           data-index="34"
           fill-rule="evenodd"
           d="M193.93,310H221.46V28H193.93Z"
           style="opacity: 1; stroke: rgb(0, 0, 0); stroke-opacity: 0; fill: rgb(150, 150, 150); fill-opacity: 0.18; stroke-width: 0px;"
           id="path45" />
      </g>
      <g
         class="shape-group"
         data-index="35"
         clip-path="url(#clip273f2dx)"
         id="g47">
        <path
           data-index="35"
           fill-rule="evenodd"
           d="M430.44,310H432.06V28H430.44Z"
           style="opacity: 1; stroke: rgb(0, 0, 0); stroke-opacity: 0; fill: rgb(150, 150, 150); fill-opacity: 0.18; stroke-width: 0px;"
           id="path46" />
      </g>
    </g>
  </g>
  <g
     class="cartesianlayer"
     id="g131">
    <g
       class="subplot xy"
       id="g129">
      <g
         class="layer-subplot"
         id="g52">
        <g
           class="shapelayer"
           id="g50" />
        <g
           class="imagelayer"
           id="g51" />
      </g>
      <g
         class="minor-gridlayer"
         id="g56">
        <g
           class="x"
           id="g53" />
        <g
           class="y"
           id="g54" />
        <g
           class="y2"
           id="g55" />
      </g>
      <g
         class="gridlayer"
         id="g60">
        <g
           class="x"
           id="g57" />
        <g
           class="y"
           id="g58" />
        <g
           class="y2"
           id="g59" />
      </g>
      <g
         class="zerolinelayer"
         id="g61" />
      <g
         class="layer-between"
         id="g64">
        <g
           class="shapelayer"
           id="g62" />
        <g
           class="imagelayer"
           id="g63" />
      </g>
      <path
         class="xlines-below"
         id="path64" />
      <path
         class="ylines-below"
         id="path65" />
      <g
         class="overlines-below"
         id="g67">
        <path
           class="xy2-x"
           id="path66" />
        <path
           class="xy2-y"
           id="path67" />
      </g>
      <g
         class="xaxislayer-below"
         id="g68" />
      <g
         class="yaxislayer-below"
         id="g69" />
      <g
         class="overaxes-below"
         id="g72">
        <g
           class="xy2-x"
           id="g70" />
        <g
           class="xy2-y"
           id="g71" />
      </g>
      <g
         class="overplot"
         id="g89">
        <g
           class="xy"
           transform="translate(40,28)"
           clip-path="url(#clip273f2dxyplot)"
           id="g80">
          <g
             class="scatterlayer mlayer"
             id="g79">
            <g
               class="trace scatter trace791d4b"
               style="stroke-miterlimit: 2; opacity: 1;"
               id="g78">
              <g
                 class="fills"
                 id="g73" />
              <g
                 class="errorbars"
                 id="g74" />
              <g
                 class="lines"
                 id="g75">
                <path
                   class="js-line"
                   d="M-63.15,130.38L-59.91,117.1L-58.29,148.78L-55.05,162.19L-53.43,135.13L-50.19,129.13L-48.57,141.11L-45.33,110.41L-43.71,148.78L-40.47,149.71L-38.85,193.66L-35.61,161.09L-33.99,106.21L-30.75,120.3L-29.13,123.11L-25.89,164.63L-24.27,196.2L-21.03,191.31L-19.41,170.54L-16.17,161.82L-14.55,127.53L-11.31,113.59L-9.69,137.06L-6.45,151.36L-4.83,147.48L-1.59,130.57L0.03,81.94L3.27,143.36L4.89,148.67L9.75,144.31L12.99,125.05L14.61,159.76L17.85,198.48L19.47,207.72L22.71,152.41L24.33,183.56L27.57,174.35L29.19,209.21L32.43,176.16L34.05,198.39L35.67,231.28L42.15,165.42L43.77,107.5L47.01,123.66L48.63,162.05L51.87,175.13L53.49,235.08L55.11,185.81L58.35,139.5L61.59,114.38L63.21,188L66.45,138.13L68.07,159.46L71.31,141.47L72.93,117.19L76.17,87.6L79.41,70.5L81.03,85.06L84.27,46.88L85.89,119.59L89.13,129.08L90.75,113.88L93.99,134.68L95.61,164.4L98.85,107.89L100.47,62.95L103.71,138.91L105.33,82.08L108.57,82.27L110.19,101L111.81,133.93L115.05,111.64L118.29,118.75L119.91,126.51L123.15,131.39L124.77,129.71L128.01,146.19L129.63,102.77L131.25,143.13L134.49,130.13L137.73,127.92L139.35,120.25L142.59,123.37L144.21,137.84L147.45,139.91L149.07,129.82L150.69,141.49L153.93,165.05L157.17,162.96L158.79,183.36L162.03,154.98L163.65,177.4L166.89,183.96L168.51,198.53L171.75,262.56L173.37,226.95L176.61,217.93L181.46,183.63L183.08,190.17L186.32,157.46L187.94,179L192.8,142.77L196.04,142.17L197.66,112.25L200.9,91.67L202.52,136.73L205.76,151.27L207.38,123.14L210.62,95.04L212.24,97.91L215.48,81.9L217.1,101.01L220.34,109.52L221.96,126.84L225.2,139.44L226.82,134.26L228.44,134L231.68,121.89L233.3,98.82L236.54,78.24L239.78,105.46L241.4,126.9L243.02,129.14L246.26,132.74L247.88,142.02L251.12,121.44L254.36,110.33L255.98,102.88L259.22,96.18L260.84,91.78L264.08,101.37L265.7,110.04L268.94,113.6L270.56,107.52L273.8,129.38L275.42,112.05L278.66,94.77L280.28,81.49L283.52,91.93L285.14,94.67L288.38,101.76L290,116.69L293.24,123.34L294.86,132.4L298.1,127.52L299.72,115.58L302.96,114.14L304.58,133.55L307.82,137.66L309.44,140.45L312.68,157.25L314.3,115.57L317.54,119.75L319.16,123.08L322.4,139.96L324.02,129.47L325.64,124.39L328.88,107.62L332.12,101.23L333.74,88.25L335.36,98.81L338.6,101.6L341.84,112.87L343.46,97.46L345.08,91.39L348.32,84.56L351.56,89.48L354.8,66.22L358.04,71.8L361.28,78.47L362.9,76.59L367.76,100.1L371,133.34L372.62,94.48L375.86,108.99L377.48,161.38L380.72,132.13L382.34,133.48L383.96,129.36L387.2,115.07L390.44,136.2L392.06,214.55L393.68,220.61L396.92,150L400.16,128.77L401.78,105.11L405.02,113.32L406.64,139.04L409.88,107.43L414.74,122.88L416.36,71.57L419.6,128.43L421.22,131.58L424.46,93.04L426.07,151.09L429.31,126.63L430.93,71.08L434.17,98.58L435.79,139.41L439.03,146.21L440.65,142.22L442.27,138.37L445.51,156.08L448.75,136.43L450.37,147.45L451.99,141.51L455.23,161.18L458.47,137.36L460.09,149.2L461.71,157.72L464.95,147.48L468.19,140.22L469.81,111.61L471.43,129.62L474.67,125.61L477.91,150.53L479.53,132.31L484.39,104.3L487.63,115.21L489.25,148.96L492.49,152.4L494.11,147.25L495.73,121.46L497.35,132.36L498.97,136.19"
                   style="vector-effect: none; fill: none; stroke: rgb(69, 90, 100); stroke-opacity: 1; stroke-width: 1.2px; opacity: 1;"
                   id="path74" />
              </g>
              <g
                 class="points"
                 id="g76" />
              <g
                 class="text"
                 id="g77" />
            </g>
          </g>
        </g>
        <g
           class="xy2"
           transform="translate(40,28)"
           clip-path="url(#clip273f2dxy2plot)"
           id="g88">
          <g
             class="scatterlayer mlayer"
             id="g87">
            <g
               class="trace scatter tracebf429c"
               style="stroke-miterlimit: 2; opacity: 1;"
               id="g86">
              <g
                 class="fills"
                 id="g81" />
              <g
                 class="errorbars"
                 id="g82" />
              <g
                 class="lines"
                 id="g83">
                <path
                   class="js-line"
                   d="M-379.03,112.8L-375.79,41.02L-374.17,79.47L-372.55,156.38L-367.69,217.91L-366.07,82.04L-361.21,-164.07L-357.97,-56.4L-356.35,-7.69L-349.87,123.05L-348.25,41.02L-345.01,5.13L-343.39,41.02L-341.77,166.64L-338.53,240.98L-336.91,199.96L-335.29,110.24L-330.43,-25.64L-328.81,10.25L-327.19,97.42L-323.95,153.82L-322.33,128.18L-320.71,99.98L-315.85,169.2L-314.23,253.8L-310.99,197.4L-309.37,110.24L-306.14,-53.84L-304.52,7.69L-302.9,61.53L-301.28,53.84L-299.66,125.62L-298.04,115.36L-296.42,156.38L-294.8,197.4L-293.18,138.44L-291.56,102.55L-288.32,-15.38L-286.7,7.69L-285.08,25.64L-281.84,87.16L-280.22,82.04L-278.6,56.4L-273.74,20.51L-272.12,38.45L-270.5,46.15L-268.88,38.45L-267.26,33.33L-262.4,-38.45L-260.78,-12.82L-254.3,112.8L-252.68,110.24L-251.06,110.24L-247.82,38.45L-244.58,51.27L-242.96,64.09L-239.72,102.55L-238.1,128.18L-236.48,171.76L-234.86,174.33L-233.24,169.2L-231.62,184.58L-230,110.24L-228.38,99.98L-226.76,102.55L-225.14,66.65L-223.52,89.73L-221.9,43.58L-220.28,41.02L-218.66,2.56L-217.04,-15.38L-215.42,17.95L-213.8,56.4L-212.18,76.91L-210.56,164.07L-208.94,184.58L-207.32,194.84L-205.7,230.73L-204.08,238.42L-202.46,225.6L-197.6,20.51L-195.98,20.51L-191.12,97.42L-189.5,64.09L-187.88,30.76L-186.26,51.27L-184.64,74.35L-179.78,7.69L-178.16,12.82L-174.92,117.93L-173.3,146.13L-171.68,143.56L-170.06,199.96L-168.44,220.47L-166.82,179.45L-161.96,69.22L-160.34,146.13L-158.72,235.85L-157.1,205.09L-155.48,246.11L-153.86,215.35L-152.24,143.56L-147.38,-23.07L-145.76,-41.02L-142.52,2.56L-140.9,35.89L-137.66,84.6L-136.04,69.22L-132.8,71.78L-131.18,84.6L-126.32,110.24L-124.7,92.29L-123.08,94.85L-121.46,64.09L-119.84,71.78L-118.22,64.09L-114.98,82.04L-113.36,69.22L-105.26,117.93L-103.64,135.87L-100.4,205.09L-98.78,192.27L-97.16,182.02L-95.54,148.69L-93.92,105.11L-92.3,97.42L-89.06,66.65L-87.44,94.85L-84.2,120.49L-82.58,112.8L-77.72,69.22L-76.1,74.35L-72.86,117.93L-71.24,110.24L-69.62,123.05L-68,112.8L-64.76,74.35L-61.53,66.65L-56.67,69.22L-51.81,69.22L-46.95,58.96L-42.09,64.09L-37.23,53.84L-32.37,74.35L-27.51,74.35L-22.65,53.84L-12.93,58.96L-8.07,56.4L-3.21,56.4L1.65,71.78L6.51,46.15L11.37,76.91L16.23,105.11L21.09,123.05L25.95,153.82L30.81,166.64L37.29,174.33L40.53,146.13L45.39,146.13L50.25,123.05L56.73,128.18L59.97,135.87L64.83,128.18L69.69,97.42L74.55,69.22L77.79,69.22L82.65,71.78L87.51,89.73L92.37,92.29L97.23,79.47L102.09,87.16L106.95,89.73L113.43,102.55L116.67,97.42L121.53,102.55L126.39,120.49L132.87,112.8L136.11,138.44L140.97,130.75L145.83,117.93L152.31,125.62L155.55,143.56L160.41,143.56L165.27,171.76L170.13,243.55L174.99,261.49L179.85,282L184.7,258.93L189.56,176.89L194.42,133.31L199.28,105.11L204.14,94.85L209,107.67L213.86,128.18L218.72,135.87L223.58,156.38L230.06,141L234.92,112.8L238.16,117.93L244.64,112.8L249.5,138.44L252.74,135.87L257.6,141L262.46,123.05L267.32,102.55L272.18,135.87L277.04,110.24L281.9,99.98L286.76,110.24L291.62,76.91L301.34,115.36L306.2,125.62L315.92,141L320.78,133.31L327.26,123.05L330.5,125.62L340.22,117.93L346.7,102.55L349.94,94.85L356.42,94.85L359.66,99.98L364.52,125.62L369.38,130.75L374.24,123.05L379.1,110.24L385.58,97.42L388.82,148.69L395.3,371.73L398.54,217.91L403.4,207.65L408.26,138.44L413.12,-128.18L417.98,58.96L422.84,41.02L432.55,130.75L437.41,135.87L443.89,161.51L447.13,135.87L453.61,117.93L456.85,105.11L463.33,99.98L466.57,105.11L473.05,102.55L476.29,110.24L481.15,115.36L486.01,128.18L490.87,125.62"
                   style="vector-effect: none; fill: none; stroke: rgb(2, 119, 189); stroke-opacity: 1; stroke-width: 1.2px; opacity: 1;"
                   id="path82" />
              </g>
              <g
                 class="points"
                 id="g84" />
              <g
                 class="text"
                 id="g85" />
            </g>
          </g>
        </g>
      </g>
      <path
         class="xlines-above crisp"
         d="M39,310.5H565M39,27.5H565"
         style="fill: none; stroke-width: 1px; stroke: rgb(0, 0, 0); stroke-opacity: 1;"
         id="path89" />
      <path
         class="ylines-above crisp"
         d="M39.5,28V310M564.5,28V310"
         style="fill: none; stroke-width: 1px; stroke: rgb(0, 0, 0); stroke-opacity: 1;"
         id="path90" />
      <g
         class="overlines-above"
         id="g92">
        <path
           class="xy2-x crisp"
           d="M0,0"
           style="fill: none;"
           id="path91" />
        <path
           class="xy2-y crisp"
           d="M564.5,28V310M39.5,28V310"
           style="fill: none; stroke-width: 1px; stroke: rgb(0, 0, 0); stroke-opacity: 1;"
           id="path92" />
      </g>
      <g
         class="xaxislayer-above"
         id="g105">
        <path
           class="xtick ticks crisp"
           d="M0,310v-5"
           transform="translate(122.65,0)"
           style="stroke: rgb(0, 0, 0); stroke-opacity: 1; stroke-width: 1px;"
           id="path93" />
        <path
           class="xtick ticks crisp"
           d="M0,310v-5"
           transform="translate(206.89,0)"
           style="stroke: rgb(0, 0, 0); stroke-opacity: 1; stroke-width: 1px;"
           id="path94" />
        <path
           class="xtick ticks crisp"
           d="M0,310v-5"
           transform="translate(289.5,0)"
           style="stroke: rgb(0, 0, 0); stroke-opacity: 1; stroke-width: 1px;"
           id="path95" />
        <path
           class="xtick ticks crisp"
           d="M0,310v-5"
           transform="translate(372.12,0)"
           style="stroke: rgb(0, 0, 0); stroke-opacity: 1; stroke-width: 1px;"
           id="path96" />
        <path
           class="xtick ticks crisp"
           d="M0,310v-5"
           transform="translate(456.36,0)"
           style="stroke: rgb(0, 0, 0); stroke-opacity: 1; stroke-width: 1px;"
           id="path97" />
        <path
           class="xtick ticks crisp"
           d="M0,310v-5"
           transform="translate(538.97,0)"
           style="stroke: rgb(0, 0, 0); stroke-opacity: 1; stroke-width: 1px;"
           id="path98" />
        <g
           class="xtick"
           id="g98">
          <text
             text-anchor="middle"
             x="0"
             y="320.6"
             transform="translate(40.03,0)"
             style="font-family: 'Segoe UI Semibold', 'Segoe UI', Arial; font-size: 8px; fill: rgb(0, 0, 0); fill-opacity: 1; white-space: pre; opacity: 1;"
             id="text98">19 Jan 2000</text>
        </g>
        <g
           class="xtick"
           id="g99">
          <text
             text-anchor="middle"
             x="0"
             y="320.6"
             transform="translate(122.65,0)"
             style="font-family: 'Segoe UI Semibold', 'Segoe UI', Arial; font-size: 8px; fill: rgb(0, 0, 0); fill-opacity: 1; white-space: pre; opacity: 1;"
             id="text99">31 May 2004</text>
        </g>
        <g
           class="xtick"
           id="g100">
          <text
             text-anchor="middle"
             x="0"
             y="320.6"
             transform="translate(206.89,0)"
             style="font-family: 'Segoe UI Semibold', 'Segoe UI', Arial; font-size: 8px; fill: rgb(0, 0, 0); fill-opacity: 1; white-space: pre; opacity: 1;"
             id="text100">03 Sep 2008</text>
        </g>
        <g
           class="xtick"
           id="g101">
          <text
             text-anchor="middle"
             x="0"
             y="320.6"
             transform="translate(289.5,0)"
             style="font-family: 'Segoe UI Semibold', 'Segoe UI', Arial; font-size: 8px; fill: rgb(0, 0, 0); fill-opacity: 1; white-space: pre; opacity: 1;"
             id="text101">30 Nov 2012</text>
        </g>
        <g
           class="xtick"
           id="g102">
          <text
             text-anchor="middle"
             x="0"
             y="320.6"
             transform="translate(372.12,0)"
             style="font-family: 'Segoe UI Semibold', 'Segoe UI', Arial; font-size: 8px; fill: rgb(0, 0, 0); fill-opacity: 1; white-space: pre; opacity: 1;"
             id="text102">01 Mar 2017</text>
        </g>
        <g
           class="xtick"
           id="g103">
          <text
             text-anchor="middle"
             x="0"
             y="320.6"
             transform="translate(456.36,0)"
             style="font-family: 'Segoe UI Semibold', 'Segoe UI', Arial; font-size: 8px; fill: rgb(0, 0, 0); fill-opacity: 1; white-space: pre; opacity: 1;"
             id="text103">14 Jul 2021</text>
        </g>
        <g
           class="xtick"
           id="g104">
          <text
             text-anchor="middle"
             x="0"
             y="320.6"
             transform="translate(538.97,0)"
             style="font-family: 'Segoe UI Semibold', 'Segoe UI', Arial; font-size: 8px; fill: rgb(0, 0, 0); fill-opacity: 1; white-space: pre; opacity: 1;"
             id="text104">26 Nov 2025</text>
        </g>
      </g>
      <g
         class="yaxislayer-above"
         id="g116">
        <path
           class="ytick ticks crisp"
           d="M40,0h5"
           transform="translate(0,263)"
           style="stroke: rgb(0, 0, 0); stroke-opacity: 1; stroke-width: 1px;"
           id="path105" />
        <path
           class="ytick ticks crisp"
           d="M40,0h5"
           transform="translate(0,216)"
           style="stroke: rgb(0, 0, 0); stroke-opacity: 1; stroke-width: 1px;"
           id="path106" />
        <path
           class="ytick ticks crisp"
           d="M40,0h5"
           transform="translate(0,169)"
           style="stroke: rgb(0, 0, 0); stroke-opacity: 1; stroke-width: 1px;"
           id="path107" />
        <path
           class="ytick ticks crisp"
           d="M40,0h5"
           transform="translate(0,122)"
           style="stroke: rgb(0, 0, 0); stroke-opacity: 1; stroke-width: 1px;"
           id="path108" />
        <path
           class="ytick ticks crisp"
           d="M40,0h5"
           transform="translate(0,75)"
           style="stroke: rgb(0, 0, 0); stroke-opacity: 1; stroke-width: 1px;"
           id="path109" />
        <g
           class="ytick"
           id="g109">
          <text
             text-anchor="end"
             x="37.4"
             y="2.8"
             transform="translate(0,310)"
             style="font-family: 'Segoe UI Semibold', 'Segoe UI', Arial; font-size: 8px; fill: rgb(0, 0, 0); fill-opacity: 1; white-space: pre; opacity: 1;"
             id="text109">−2</text>
        </g>
        <g
           class="ytick"
           id="g110">
          <text
             text-anchor="end"
             x="37.4"
             y="2.8"
             style="font-family: 'Segoe UI Semibold', 'Segoe UI', Arial; font-size: 8px; fill: rgb(0, 0, 0); fill-opacity: 1; white-space: pre; opacity: 1;"
             transform="translate(0,263)"
             id="text110">−1</text>
        </g>
        <g
           class="ytick"
           id="g111">
          <text
             text-anchor="end"
             x="37.4"
             y="2.8"
             style="font-family: 'Segoe UI Semibold', 'Segoe UI', Arial; font-size: 8px; fill: rgb(0, 0, 0); fill-opacity: 1; white-space: pre; opacity: 1;"
             transform="translate(0,216)"
             id="text111">0</text>
        </g>
        <g
           class="ytick"
           id="g112">
          <text
             text-anchor="end"
             x="37.4"
             y="2.8"
             style="font-family: 'Segoe UI Semibold', 'Segoe UI', Arial; font-size: 8px; fill: rgb(0, 0, 0); fill-opacity: 1; white-space: pre; opacity: 1;"
             transform="translate(0,169)"
             id="text112">1</text>
        </g>
        <g
           class="ytick"
           id="g113">
          <text
             text-anchor="end"
             x="37.4"
             y="2.8"
             style="font-family: 'Segoe UI Semibold', 'Segoe UI', Arial; font-size: 8px; fill: rgb(0, 0, 0); fill-opacity: 1; white-space: pre; opacity: 1;"
             transform="translate(0,122)"
             id="text113">2</text>
        </g>
        <g
           class="ytick"
           id="g114">
          <text
             text-anchor="end"
             x="37.4"
             y="2.8"
             style="font-family: 'Segoe UI Semibold', 'Segoe UI', Arial; font-size: 8px; fill: rgb(0, 0, 0); fill-opacity: 1; white-space: pre; opacity: 1;"
             transform="translate(0,75)"
             id="text114">3</text>
        </g>
        <g
           class="ytick"
           id="g115">
          <text
             text-anchor="end"
             x="37.4"
             y="2.8"
             style="font-family: 'Segoe UI Semibold', 'Segoe UI', Arial; font-size: 8px; fill: rgb(0, 0, 0); fill-opacity: 1; white-space: pre; opacity: 1;"
             transform="translate(0,28)"
             id="text115">4</text>
        </g>
      </g>
      <g
         class="overaxes-above"
         id="g128">
        <g
           class="xy2-x"
           id="g117" />
        <g
           class="xy2-y"
           id="g127">
          <path
             class="y2tick ticks crisp"
             d="M564,0h-5"
             transform="translate(0,258.73)"
             style="stroke: rgb(0, 0, 0); stroke-opacity: 1; stroke-width: 1px;"
             id="path117" />
          <path
             class="y2tick ticks crisp"
             d="M564,0h-5"
             transform="translate(0,207.45)"
             style="stroke: rgb(0, 0, 0); stroke-opacity: 1; stroke-width: 1px;"
             id="path118" />
          <path
             class="y2tick ticks crisp"
             d="M564,0h-5"
             transform="translate(0,156.18)"
             style="stroke: rgb(0, 0, 0); stroke-opacity: 1; stroke-width: 1px;"
             id="path119" />
          <path
             class="y2tick ticks crisp"
             d="M564,0h-5"
             transform="translate(0,104.91)"
             style="stroke: rgb(0, 0, 0); stroke-opacity: 1; stroke-width: 1px;"
             id="path120" />
          <path
             class="y2tick ticks crisp"
             d="M564,0h-5"
             transform="translate(0,53.64)"
             style="stroke: rgb(0, 0, 0); stroke-opacity: 1; stroke-width: 1px;"
             id="path121" />
          <g
             class="y2tick"
             id="g121">
            <text
               text-anchor="start"
               x="566.6"
               y="2.8"
               transform="translate(0,310)"
               style="font-family: 'Segoe UI Semibold', 'Segoe UI', Arial; font-size: 8px; fill: rgb(0, 0, 0); fill-opacity: 1; white-space: pre; opacity: 1;"
               id="text121">−4</text>
          </g>
          <g
             class="y2tick"
             id="g122">
            <text
               text-anchor="start"
               x="566.6"
               y="2.8"
               style="font-family: 'Segoe UI Semibold', 'Segoe UI', Arial; font-size: 8px; fill: rgb(0, 0, 0); fill-opacity: 1; white-space: pre; opacity: 1;"
               transform="translate(0,258.73)"
               id="text122">−2</text>
          </g>
          <g
             class="y2tick"
             id="g123">
            <text
               text-anchor="start"
               x="566.6"
               y="2.8"
               style="font-family: 'Segoe UI Semibold', 'Segoe UI', Arial; font-size: 8px; fill: rgb(0, 0, 0); fill-opacity: 1; white-space: pre; opacity: 1;"
               transform="translate(0,207.45)"
               id="text123">0</text>
          </g>
          <g
             class="y2tick"
             id="g124">
            <text
               text-anchor="start"
               x="566.6"
               y="2.8"
               style="font-family: 'Segoe UI Semibold', 'Segoe UI', Arial; font-size: 8px; fill: rgb(0, 0, 0); fill-opacity: 1; white-space: pre; opacity: 1;"
               transform="translate(0,156.18)"
               id="text124">2</text>
          </g>
          <g
             class="y2tick"
             id="g125">
            <text
               text-anchor="start"
               x="566.6"
               y="2.8"
               style="font-family: 'Segoe UI Semibold', 'Segoe UI', Arial; font-size: 8px; fill: rgb(0, 0, 0); fill-opacity: 1; white-space: pre; opacity: 1;"
               transform="translate(0,104.91)"
               id="text125">4</text>
          </g>
          <g
             class="y2tick"
             id="g126">
            <text
               text-anchor="start"
               x="566.6"
               y="2.8"
               style="font-family: 'Segoe UI Semibold', 'Segoe UI', Arial; font-size: 8px; fill: rgb(0, 0, 0); fill-opacity: 1; white-space: pre; opacity: 1;"
               transform="translate(0,53.64)"
               id="text126">6</text>
          </g>
        </g>
      </g>
    </g>
    <g
       class="subplot xy2"
       id="g130" />
  </g>
  <g
     class="polarlayer"
     id="g132" />
  <g
     class="smithlayer"
     id="g133" />
  <g
     class="ternarylayer"
     id="g134" />
  <g
     class="geolayer"
     id="g135" />
  <g
     class="funnelarealayer"
     id="g136" />
  <g
     class="pielayer"
     id="g137" />
  <g
     class="iciclelayer"
     id="g138" />
  <g
     class="treemaplayer"
     id="g139" />
  <g
     class="sunburstlayer"
     id="g140" />
  <g
     class="glimages"
     id="g141" />
  <defs
     id="topdefs-273f2d">
    <g
       class="clips"
       id="g142" />
  </defs>
  <g
     class="layer-above"
     id="g148">
    <g
       class="imagelayer"
       id="g143" />
    <g
       class="shapelayer"
       id="g147">
      <g
         class="shape-group"
         data-index="0"
         clip-path="url(#clip273f2dy)"
         id="g144">
        <path
           data-index="0"
           fill-rule="evenodd"
           d="M40,156.31L564,156.31"
           style="opacity: 1; stroke: rgb(0, 0, 0); stroke-opacity: 1; fill: rgb(0, 0, 0); fill-opacity: 0; stroke-width: 0.6px;"
           id="path143" />
      </g>
      <g
         class="shape-group"
         data-index="36"
         id="g145">
        <path
           data-index="36"
           fill-rule="evenodd"
           d="M71.44,35.050000000000004L102.88,35.050000000000004"
           style="opacity: 1; stroke: rgb(69, 90, 100); stroke-opacity: 1; fill: rgb(0, 0, 0); fill-opacity: 0; stroke-width: 2px;"
           id="path144" />
      </g>
      <g
         class="shape-group"
         data-index="37"
         id="g146">
        <path
           data-index="37"
           fill-rule="evenodd"
           d="M71.44,44.920000000000016L102.88,44.920000000000016"
           style="opacity: 1; stroke: rgb(2, 119, 189); stroke-opacity: 1; fill: rgb(0, 0, 0); fill-opacity: 0; stroke-width: 2px;"
           id="path145" />
      </g>
    </g>
  </g>
  <g
     class="infolayer"
     id="g172">
    <g
       class="g-gtitle"
       id="g149" />
    <g
       class="g-xtitle"
       id="g150" />
    <g
       class="g-ytitle"
       id="g151" />
    <g
       class="g-y2title"
       id="g152" />
    <g
       class="annotation"
       data-index="0"
       style="opacity: 1;"
       id="g155">
      <g
         class="annotation-text-g"
         transform="rotate(0,149,35.050000000000004)"
         id="g154">
        <g
           class="cursor-pointer"
           transform="translate(106,30)"
           id="g153">
          <rect
             class="bg"
             x="0.5"
             y="0.5"
             width="86"
             height="9"
             style="stroke-width: 1px; stroke: rgb(0, 0, 0); stroke-opacity: 0; fill: rgb(0, 0, 0); fill-opacity: 0;"
             id="rect152" />
          <text
             class="annotation-text"
             text-anchor="start"
             x="2"
             y="7"
             style="font-size:6px;font-family:'Segoe UI Semibold', 'Segoe UI', Arial;white-space:pre;fill:#000000;fill-opacity:1"
             id="text152">BEIGE BOOK SENTIMENT* (LS)</text>
        </g>
      </g>
    </g>
    <g
       class="annotation"
       data-index="1"
       style="opacity: 1;"
       id="g158">
      <g
         class="annotation-text-g"
         transform="rotate(0,129.5,44.920000000000016)"
         id="g157">
        <g
           class="cursor-pointer"
           transform="translate(106,40)"
           id="g156">
          <rect
             class="bg"
             x="0.5"
             y="0.5"
             width="47"
             height="9"
             style="stroke-width: 1px; stroke: rgb(0, 0, 0); stroke-opacity: 0; fill: rgb(0, 0, 0); fill-opacity: 0;"
             id="rect155" />
          <text
             class="annotation-text"
             text-anchor="start"
             x="2"
             y="7"
             style="font-family: 'Segoe UI Semibold', 'Segoe UI', Arial; font-size: 6px; fill: rgb(0, 0, 0); fill-opacity: 1; white-space: pre;"
             id="text155">REAL GDP (RS)</text>
        </g>
      </g>
    </g>
    <g
       class="annotation"
       data-index="2"
       style="opacity: 1;"
       id="g161">
      <g
         class="annotation-text-g"
         transform="rotate(0,540,21.5)"
         id="g160">
        <g
           class="cursor-pointer"
           transform="translate(518,15)"
           id="g159">
          <rect
             class="bg"
             x="0.5"
             y="0.5"
             width="43"
             height="12"
             style="stroke-width: 1px; stroke: rgb(0, 0, 0); stroke-opacity: 0; fill: rgb(0, 0, 0); fill-opacity: 0;"
             id="rect158" />
          <text
             class="annotation-text"
             text-anchor="middle"
             x="22.24609375"
             y="9"
             style="font-family: 'Segoe UI Semibold', 'Segoe UI', Arial; font-size: 8px; fill: rgb(0, 0, 0); fill-opacity: 1; white-space: pre;"
             id="text158">Ann % Chg</text>
        </g>
      </g>
    </g>
    <g
       class="annotation"
       data-index="3"
       style="opacity: 1;"
       id="g164">
      <g
         class="annotation-text-g"
         transform="rotate(0,354.08559999999994,73.28114285714284)"
         id="g163">
        <g
           class="cursor-pointer"
           transform="translate(285,62)"
           id="g162">
          <rect
             class="bg"
             x="0.5"
             y="0.5"
             width="137"
             height="22"
             style="stroke-width: 1px; stroke: rgb(0, 0, 0); stroke-opacity: 0; fill: rgb(0, 0, 0); fill-opacity: 0;"
             id="rect161" />
          <text
             class="annotation-text"
             text-anchor="middle"
             x="68.7578125"
             y="9"
             style="font-family: 'Segoe UI Semibold', 'Segoe UI', Arial; font-size: 8px; fill: rgb(124, 45, 18); fill-opacity: 1; white-space: pre;"
             id="text162">BEIGE BOOK SENTIMENT TURNED DOWN</text>
        </g>
      </g>
    </g>
    <g
       class="annotation"
       data-index="4"
       style="opacity: 1;"
       id="g168">
      <g
         class="annotation-text-g"
         transform="rotate(0,326.62800000000004,227.7849142857143)"
         id="g167">
        <g
           class="cursor-pointer"
           transform="translate(235,211)"
           id="g166">
          <rect
             class="bg"
             x="0.5"
             y="0.5"
             width="183"
             height="33"
             style="stroke-width: 1px; stroke: rgb(0, 0, 0); stroke-opacity: 0; fill: rgb(0, 0, 0); fill-opacity: 0;"
             id="rect164" />
          <text
             class="annotation-text"
             text-anchor="middle"
             x="92.0234375"
             y="9"
             style="font-family: 'Segoe UI Semibold', 'Segoe UI', Arial; font-size: 8px; fill: rgb(124, 45, 18); fill-opacity: 1; white-space: pre;"
             id="text166">A LATE-CYCLE COOLING CONSISTENT WITH SOFTER</text>
        </g>
      </g>
    </g>
    <g
       class="annotation"
       data-index="5"
       style="opacity: 1;"
       id="g171">
      <g
         class="annotation-text-g"
         transform="rotate(0,254,330.5)"
         id="g170">
        <g
           class="cursor-pointer"
           transform="translate(40,319)"
           id="g169">
          <rect
             class="bg"
             x="0.5"
             y="0.5"
             width="427"
             height="22"
             style="stroke-width: 1px; stroke: rgb(0, 0, 0); stroke-opacity: 0; fill: rgb(0, 0, 0); fill-opacity: 0;"
             id="rect168" />
          <text
             class="annotation-text"
             text-anchor="start"
             x="2"
             y="9"
             style="font-family: 'Segoe UI Semibold', 'Segoe UI', Arial; font-size: 8px; fill: rgb(0, 0, 0); fill-opacity: 1; white-space: pre;"
             id="text169"><tspan
               class="line"
               dy="0em"
               x="2"
               y="9"
               id="tspan168">* NUMBER OF STRONG WORDS MINUS WEAK WORDS AS A PERCENT OF TOTAL WORDS IN THE BEIGE BOOK.</tspan><tspan
               class="line"
               dy="1.3em"
               x="2"
               y="9"
               id="tspan169">NOTES: SHADED AREAS DENOTE NBER-DESIGNATED RECESSIONS.</tspan></text>
        </g>
      </g>
    </g>
  </g>
</svg>
