<?xml version="1.0" encoding="UTF-8" standalone="no"?>
<svg
   class="main-svg"
   width="600"
   height="350"
   style=""
   viewBox="0 0 600 350"
   version="1.1"
   id="svg173"
   sodipodi:docname="policy-vs-equity-uncertainty-repricing-risk_2025-10-21.svg"
   inkscape:version="1.4.2 (ebf0e940, 2025-05-08)"
   xmlns:inkscape="http://www.inkscape.org/namespaces/inkscape"
   xmlns:sodipodi="http://sodipodi.sourceforge.net/DTD/sodipodi-0.dtd"
   xmlns="http://www.w3.org/2000/svg"
   xmlns:svg="http://www.w3.org/2000/svg">
  <sodipodi:namedview
     id="namedview173"
     pagecolor="#ffffff"
     bordercolor="#000000"
     borderopacity="0.25"
     inkscape:showpageshadow="2"
     inkscape:pageopacity="0.0"
     inkscape:pagecheckerboard="0"
     inkscape:deskcolor="#d1d1d1"
     inkscape:zoom="1.4233333"
     inkscape:cx="301.40515"
     inkscape:cy="169.67213"
     inkscape:window-width="976"
     inkscape:window-height="1186"
     inkscape:window-x="244"
     inkscape:window-y="25"
     inkscape:window-maximized="0"
     inkscape:current-layer="svg173" />
  <rect
     x="0"
     y="0"
     width="600"
     height="350"
     style="fill: rgb(255, 255, 255); fill-opacity: 1;"
     id="rect1" />
  <defs
     id="defs-a317da">
    <g
       class="clips"
       id="g8">
      <clipPath
         id="clipa317daxyplot"
         class="plotclip">
        <rect
           width="524"
           height="288"
           id="rect2" />
      </clipPath>
      <clipPath
         id="clipa317daxy2plot"
         class="plotclip">
        <rect
           width="524"
           height="288"
           id="rect3" />
      </clipPath>
      <clipPath
         class="axesclip"
         id="clipa317dax">
        <rect
           x="40"
           y="0"
           width="524"
           height="350"
           id="rect4" />
      </clipPath>
      <clipPath
         class="axesclip"
         id="clipa317day">
        <rect
           x="0"
           y="22"
           width="600"
           height="288"
           id="rect5" />
      </clipPath>
      <clipPath
         class="axesclip"
         id="clipa317daxy">
        <rect
           x="40"
           y="22"
           width="524"
           height="288"
           id="rect6" />
      </clipPath>
      <clipPath
         class="axesclip"
         id="clipa317day2">
        <rect
           x="0"
           y="22"
           width="600"
           height="288"
           id="rect7" />
      </clipPath>
      <clipPath
         class="axesclip"
         id="clipa317daxy2">
        <rect
           x="40"
           y="22"
           width="524"
           height="288"
           id="rect8" />
      </clipPath>
    </g>
    <g
       class="gradients"
       id="g9" />
    <g
       class="patterns"
       id="g10" />
  </defs>
  <g
     class="bglayer"
     id="g11" />
  <g
     class="layer-below"
     id="g49">
    <g
       class="imagelayer"
       id="g12" />
    <g
       class="shapelayer"
       id="g48">
      <g
         class="shape-group"
         data-index="0"
         clip-path="url(#clipa317dax)"
         id="g13">
        <path
           data-index="0"
           fill-rule="evenodd"
           d="M-163.61,310H-163.61V22H-163.61Z"
           style="opacity: 1; stroke: rgb(0, 0, 0); stroke-opacity: 0; fill: rgb(150, 150, 150); fill-opacity: 0.18; stroke-width: 0px;"
           id="path12" />
      </g>
      <g
         class="shape-group"
         data-index="1"
         clip-path="url(#clipa317dax)"
         id="g14">
        <path
           data-index="1"
           fill-rule="evenodd"
           d="M-163.61,310H-163.61V22H-163.61Z"
           style="opacity: 1; stroke: rgb(0, 0, 0); stroke-opacity: 0; fill: rgb(150, 150, 150); fill-opacity: 0.18; stroke-width: 0px;"
           id="path13" />
      </g>
      <g
         class="shape-group"
         data-index="2"
         clip-path="url(#clipa317dax)"
         id="g15">
        <path
           data-index="2"
           fill-rule="evenodd"
           d="M-163.61,310H-163.61V22H-163.61Z"
           style="opacity: 1; stroke: rgb(0, 0, 0); stroke-opacity: 0; fill: rgb(150, 150, 150); fill-opacity: 0.18; stroke-width: 0px;"
           id="path14" />
      </g>
      <g
         class="shape-group"
         data-index="3"
         clip-path="url(#clipa317dax)"
         id="g16">
        <path
           data-index="3"
           fill-rule="evenodd"
           d="M-163.61,310H-163.61V22H-163.61Z"
           style="opacity: 1; stroke: rgb(0, 0, 0); stroke-opacity: 0; fill: rgb(150, 150, 150); fill-opacity: 0.18; stroke-width: 0px;"
           id="path15" />
      </g>
      <g
         class="shape-group"
         data-index="4"
         clip-path="url(#clipa317dax)"
         id="g17">
        <path
           data-index="4"
           fill-rule="evenodd"
           d="M-163.61,310H-163.61V22H-163.61Z"
           style="opacity: 1; stroke: rgb(0, 0, 0); stroke-opacity: 0; fill: rgb(150, 150, 150); fill-opacity: 0.18; stroke-width: 0px;"
           id="path16" />
      </g>
      <g
         class="shape-group"
         data-index="5"
         clip-path="url(#clipa317dax)"
         id="g18">
        <path
           data-index="5"
           fill-rule="evenodd"
           d="M-163.61,310H-163.61V22H-163.61Z"
           style="opacity: 1; stroke: rgb(0, 0, 0); stroke-opacity: 0; fill: rgb(150, 150, 150); fill-opacity: 0.18; stroke-width: 0px;"
           id="path17" />
      </g>
      <g
         class="shape-group"
         data-index="6"
         clip-path="url(#clipa317dax)"
         id="g19">
        <path
           data-index="6"
           fill-rule="evenodd"
           d="M-163.61,310H-163.61V22H-163.61Z"
           style="opacity: 1; stroke: rgb(0, 0, 0); stroke-opacity: 0; fill: rgb(150, 150, 150); fill-opacity: 0.18; stroke-width: 0px;"
           id="path18" />
      </g>
      <g
         class="shape-group"
         data-index="7"
         clip-path="url(#clipa317dax)"
         id="g20">
        <path
           data-index="7"
           fill-rule="evenodd"
           d="M-163.61,310H-163.61V22H-163.61Z"
           style="opacity: 1; stroke: rgb(0, 0, 0); stroke-opacity: 0; fill: rgb(150, 150, 150); fill-opacity: 0.18; stroke-width: 0px;"
           id="path19" />
      </g>
      <g
         class="shape-group"
         data-index="8"
         clip-path="url(#clipa317dax)"
         id="g21">
        <path
           data-index="8"
           fill-rule="evenodd"
           d="M-163.61,310H-163.61V22H-163.61Z"
           style="opacity: 1; stroke: rgb(0, 0, 0); stroke-opacity: 0; fill: rgb(150, 150, 150); fill-opacity: 0.18; stroke-width: 0px;"
           id="path20" />
      </g>
      <g
         class="shape-group"
         data-index="9"
         clip-path="url(#clipa317dax)"
         id="g22">
        <path
           data-index="9"
           fill-rule="evenodd"
           d="M-163.61,310H-163.61V22H-163.61Z"
           style="opacity: 1; stroke: rgb(0, 0, 0); stroke-opacity: 0; fill: rgb(150, 150, 150); fill-opacity: 0.18; stroke-width: 0px;"
           id="path21" />
      </g>
      <g
         class="shape-group"
         data-index="10"
         clip-path="url(#clipa317dax)"
         id="g23">
        <path
           data-index="10"
           fill-rule="evenodd"
           d="M-163.61,310H-163.61V22H-163.61Z"
           style="opacity: 1; stroke: rgb(0, 0, 0); stroke-opacity: 0; fill: rgb(150, 150, 150); fill-opacity: 0.18; stroke-width: 0px;"
           id="path22" />
      </g>
      <g
         class="shape-group"
         data-index="11"
         clip-path="url(#clipa317dax)"
         id="g24">
        <path
           data-index="11"
           fill-rule="evenodd"
           d="M-163.61,310H-163.61V22H-163.61Z"
           style="opacity: 1; stroke: rgb(0, 0, 0); stroke-opacity: 0; fill: rgb(150, 150, 150); fill-opacity: 0.18; stroke-width: 0px;"
           id="path23" />
      </g>
      <g
         class="shape-group"
         data-index="12"
         clip-path="url(#clipa317dax)"
         id="g25">
        <path
           data-index="12"
           fill-rule="evenodd"
           d="M-163.61,310H-163.61V22H-163.61Z"
           style="opacity: 1; stroke: rgb(0, 0, 0); stroke-opacity: 0; fill: rgb(150, 150, 150); fill-opacity: 0.18; stroke-width: 0px;"
           id="path24" />
      </g>
      <g
         class="shape-group"
         data-index="13"
         clip-path="url(#clipa317dax)"
         id="g26">
        <path
           data-index="13"
           fill-rule="evenodd"
           d="M-163.61,310H-163.61V22H-163.61Z"
           style="opacity: 1; stroke: rgb(0, 0, 0); stroke-opacity: 0; fill: rgb(150, 150, 150); fill-opacity: 0.18; stroke-width: 0px;"
           id="path25" />
      </g>
      <g
         class="shape-group"
         data-index="14"
         clip-path="url(#clipa317dax)"
         id="g27">
        <path
           data-index="14"
           fill-rule="evenodd"
           d="M-163.61,310H-163.61V22H-163.61Z"
           style="opacity: 1; stroke: rgb(0, 0, 0); stroke-opacity: 0; fill: rgb(150, 150, 150); fill-opacity: 0.18; stroke-width: 0px;"
           id="path26" />
      </g>
      <g
         class="shape-group"
         data-index="15"
         clip-path="url(#clipa317dax)"
         id="g28">
        <path
           data-index="15"
           fill-rule="evenodd"
           d="M-163.61,310H-163.61V22H-163.61Z"
           style="opacity: 1; stroke: rgb(0, 0, 0); stroke-opacity: 0; fill: rgb(150, 150, 150); fill-opacity: 0.18; stroke-width: 0px;"
           id="path27" />
      </g>
      <g
         class="shape-group"
         data-index="16"
         clip-path="url(#clipa317dax)"
         id="g29">
        <path
           data-index="16"
           fill-rule="evenodd"
           d="M-163.61,310H-163.61V22H-163.61Z"
           style="opacity: 1; stroke: rgb(0, 0, 0); stroke-opacity: 0; fill: rgb(150, 150, 150); fill-opacity: 0.18; stroke-width: 0px;"
           id="path28" />
      </g>
      <g
         class="shape-group"
         data-index="17"
         clip-path="url(#clipa317dax)"
         id="g30">
        <path
           data-index="17"
           fill-rule="evenodd"
           d="M-163.61,310H-163.61V22H-163.61Z"
           style="opacity: 1; stroke: rgb(0, 0, 0); stroke-opacity: 0; fill: rgb(150, 150, 150); fill-opacity: 0.18; stroke-width: 0px;"
           id="path29" />
      </g>
      <g
         class="shape-group"
         data-index="18"
         clip-path="url(#clipa317dax)"
         id="g31">
        <path
           data-index="18"
           fill-rule="evenodd"
           d="M-163.61,310H-163.61V22H-163.61Z"
           style="opacity: 1; stroke: rgb(0, 0, 0); stroke-opacity: 0; fill: rgb(150, 150, 150); fill-opacity: 0.18; stroke-width: 0px;"
           id="path30" />
      </g>
      <g
         class="shape-group"
         data-index="19"
         clip-path="url(#clipa317dax)"
         id="g32">
        <path
           data-index="19"
           fill-rule="evenodd"
           d="M-163.61,310H-163.61V22H-163.61Z"
           style="opacity: 1; stroke: rgb(0, 0, 0); stroke-opacity: 0; fill: rgb(150, 150, 150); fill-opacity: 0.18; stroke-width: 0px;"
           id="path31" />
      </g>
      <g
         class="shape-group"
         data-index="20"
         clip-path="url(#clipa317dax)"
         id="g33">
        <path
           data-index="20"
           fill-rule="evenodd"
           d="M-163.61,310H-163.61V22H-163.61Z"
           style="opacity: 1; stroke: rgb(0, 0, 0); stroke-opacity: 0; fill: rgb(150, 150, 150); fill-opacity: 0.18; stroke-width: 0px;"
           id="path32" />
      </g>
      <g
         class="shape-group"
         data-index="21"
         clip-path="url(#clipa317dax)"
         id="g34">
        <path
           data-index="21"
           fill-rule="evenodd"
           d="M-163.61,310H-163.61V22H-163.61Z"
           style="opacity: 1; stroke: rgb(0, 0, 0); stroke-opacity: 0; fill: rgb(150, 150, 150); fill-opacity: 0.18; stroke-width: 0px;"
           id="path33" />
      </g>
      <g
         class="shape-group"
         data-index="22"
         clip-path="url(#clipa317dax)"
         id="g35">
        <path
           data-index="22"
           fill-rule="evenodd"
           d="M-163.61,310H-163.61V22H-163.61Z"
           style="opacity: 1; stroke: rgb(0, 0, 0); stroke-opacity: 0; fill: rgb(150, 150, 150); fill-opacity: 0.18; stroke-width: 0px;"
           id="path34" />
      </g>
      <g
         class="shape-group"
         data-index="23"
         clip-path="url(#clipa317dax)"
         id="g36">
        <path
           data-index="23"
           fill-rule="evenodd"
           d="M-163.61,310H-163.61V22H-163.61Z"
           style="opacity: 1; stroke: rgb(0, 0, 0); stroke-opacity: 0; fill: rgb(150, 150, 150); fill-opacity: 0.18; stroke-width: 0px;"
           id="path35" />
      </g>
      <g
         class="shape-group"
         data-index="24"
         clip-path="url(#clipa317dax)"
         id="g37">
        <path
           data-index="24"
           fill-rule="evenodd"
           d="M-163.61,310H-163.61V22H-163.61Z"
           style="opacity: 1; stroke: rgb(0, 0, 0); stroke-opacity: 0; fill: rgb(150, 150, 150); fill-opacity: 0.18; stroke-width: 0px;"
           id="path36" />
      </g>
      <g
         class="shape-group"
         data-index="25"
         clip-path="url(#clipa317dax)"
         id="g38">
        <path
           data-index="25"
           fill-rule="evenodd"
           d="M-163.61,310H-163.61V22H-163.61Z"
           style="opacity: 1; stroke: rgb(0, 0, 0); stroke-opacity: 0; fill: rgb(150, 150, 150); fill-opacity: 0.18; stroke-width: 0px;"
           id="path37" />
      </g>
      <g
         class="shape-group"
         data-index="26"
         clip-path="url(#clipa317dax)"
         id="g39">
        <path
           data-index="26"
           fill-rule="evenodd"
           d="M-163.61,310H-163.61V22H-163.61Z"
           style="opacity: 1; stroke: rgb(0, 0, 0); stroke-opacity: 0; fill: rgb(150, 150, 150); fill-opacity: 0.18; stroke-width: 0px;"
           id="path38" />
      </g>
      <g
         class="shape-group"
         data-index="27"
         clip-path="url(#clipa317dax)"
         id="g40">
        <path
           data-index="27"
           fill-rule="evenodd"
           d="M-163.61,310H-163.61V22H-163.61Z"
           style="opacity: 1; stroke: rgb(0, 0, 0); stroke-opacity: 0; fill: rgb(150, 150, 150); fill-opacity: 0.18; stroke-width: 0px;"
           id="path39" />
      </g>
      <g
         class="shape-group"
         data-index="28"
         clip-path="url(#clipa317dax)"
         id="g41">
        <path
           data-index="28"
           fill-rule="evenodd"
           d="M-163.61,310H-163.61V22H-163.61Z"
           style="opacity: 1; stroke: rgb(0, 0, 0); stroke-opacity: 0; fill: rgb(150, 150, 150); fill-opacity: 0.18; stroke-width: 0px;"
           id="path40" />
      </g>
      <g
         class="shape-group"
         data-index="29"
         clip-path="url(#clipa317dax)"
         id="g42">
        <path
           data-index="29"
           fill-rule="evenodd"
           d="M-163.61,310H-163.61V22H-163.61Z"
           style="opacity: 1; stroke: rgb(0, 0, 0); stroke-opacity: 0; fill: rgb(150, 150, 150); fill-opacity: 0.18; stroke-width: 0px;"
           id="path41" />
      </g>
      <g
         class="shape-group"
         data-index="30"
         clip-path="url(#clipa317dax)"
         id="g43">
        <path
           data-index="30"
           fill-rule="evenodd"
           d="M-163.61,310H-163.61V22H-163.61Z"
           style="opacity: 1; stroke: rgb(0, 0, 0); stroke-opacity: 0; fill: rgb(150, 150, 150); fill-opacity: 0.18; stroke-width: 0px;"
           id="path42" />
      </g>
      <g
         class="shape-group"
         data-index="31"
         clip-path="url(#clipa317dax)"
         id="g44">
        <path
           data-index="31"
           fill-rule="evenodd"
           d="M-67.5,310H-57.47V22H-67.5Z"
           style="opacity: 1; stroke: rgb(0, 0, 0); stroke-opacity: 0; fill: rgb(150, 150, 150); fill-opacity: 0.18; stroke-width: 0px;"
           id="path43" />
      </g>
      <g
         class="shape-group"
         data-index="32"
         clip-path="url(#clipa317dax)"
         id="g45">
        <path
           data-index="32"
           fill-rule="evenodd"
           d="M116.21,310H126.31V22H116.21Z"
           style="opacity: 1; stroke: rgb(0, 0, 0); stroke-opacity: 0; fill: rgb(150, 150, 150); fill-opacity: 0.18; stroke-width: 0px;"
           id="path44" />
      </g>
      <g
         class="shape-group"
         data-index="33"
         clip-path="url(#clipa317dax)"
         id="g46">
        <path
           data-index="33"
           fill-rule="evenodd"
           d="M232.46,310H256.82V22H232.46Z"
           style="opacity: 1; stroke: rgb(0, 0, 0); stroke-opacity: 0; fill: rgb(150, 150, 150); fill-opacity: 0.18; stroke-width: 0px;"
           id="path45" />
      </g>
      <g
         class="shape-group"
         data-index="34"
         clip-path="url(#clipa317dax)"
         id="g47">
        <path
           data-index="34"
           fill-rule="evenodd"
           d="M441.98,310H443.43V22H441.98Z"
           style="opacity: 1; stroke: rgb(0, 0, 0); stroke-opacity: 0; fill: rgb(150, 150, 150); fill-opacity: 0.18; stroke-width: 0px;"
           id="path46" />
      </g>
    </g>
  </g>
  <g
     class="cartesianlayer"
     id="g135">
    <g
       class="subplot xy"
       id="g133">
      <g
         class="layer-subplot"
         id="g52">
        <g
           class="shapelayer"
           id="g50" />
        <g
           class="imagelayer"
           id="g51" />
      </g>
      <g
         class="minor-gridlayer"
         id="g56">
        <g
           class="x"
           id="g53" />
        <g
           class="y"
           id="g54" />
        <g
           class="y2"
           id="g55" />
      </g>
      <g
         class="gridlayer"
         id="g60">
        <g
           class="x"
           id="g57" />
        <g
           class="y"
           id="g58" />
        <g
           class="y2"
           id="g59" />
      </g>
      <g
         class="zerolinelayer"
         id="g61" />
      <g
         class="layer-between"
         id="g64">
        <g
           class="shapelayer"
           id="g62" />
        <g
           class="imagelayer"
           id="g63" />
      </g>
      <path
         class="xlines-below"
         id="path64" />
      <path
         class="ylines-below"
         id="path65" />
      <g
         class="overlines-below"
         id="g67">
        <path
           class="xy2-x"
           id="path66" />
        <path
           class="xy2-y"
           id="path67" />
      </g>
      <g
         class="xaxislayer-below"
         id="g68" />
      <g
         class="yaxislayer-below"
         id="g69" />
      <g
         class="overaxes-below"
         id="g72">
        <g
           class="xy2-x"
           id="g70" />
        <g
           class="xy2-y"
           id="g71" />
      </g>
      <g
         class="overplot"
         id="g88">
        <g
           class="xy"
           transform="translate(40,22)"
           clip-path="url(#clipa317daxyplot)"
           id="g86">
          <g
             class="scatterlayer mlayer"
             id="g85">
            <g
               class="trace scatter trace9ab4c9"
               style="stroke-miterlimit: 2; opacity: 1;"
               id="g78">
              <g
                 class="fills"
                 id="g73" />
              <g
                 class="errorbars"
                 id="g74" />
              <g
                 class="lines"
                 id="g75">
                <path
                   class="js-line"
                   d="M-203.61,237.72L-203.35,169.28L-199.98,208.36L-199.92,208.47L-199.19,203.95L-196.81,226.08L-195.76,223.1L-195.69,222.75L-195.63,224.64L-194.31,214.33L-192.19,223.69L-192.13,224.48L-188.96,240.18L-187.84,233.89L-187.77,233.6L-187.64,235.09L-185.39,223.61L-185.26,223.91L-185.2,223.79L-183.08,211.8L-181.76,218.91L-181.7,219.62L-180.97,227.3L-178.46,219.74L-178.4,218.43L-177.34,220.87L-175.23,206.53L-174.7,209.37L-174.63,209.43L-174.04,206.74L-172.79,215.05L-172.72,216.55L-172.39,210.07L-171,224.9L-170.94,225.22L-166.58,241.7L-166.51,241.06L-164.34,254.57L-162.03,251.61L-161.96,250.59L-161.43,247.22L-159.52,252.42L-158.79,249.29L-158.72,249.97L-156.61,256.59L-155.75,254.06L-155.69,253.6L-152.12,219.46L-150.87,226.86L-150.8,227.5L-146.71,250.9L-146.05,248.64L-145.98,248.79L-143.81,244.21L-143.08,245.59L-143.01,244.8L-142.68,244.28L-141.69,247.81L-141.63,248.01L-140.24,246.32L-139.12,251.15L-139.05,251.02L-138.92,251.72L-136.81,246.85L-136.74,245.12L-134.17,239.6L-133.57,242.18L-133.51,242.58L-130.8,252.61L-130.47,252.52L-130.41,252.88L-130.21,253.78L-128.43,249.98L-128.36,249.75L-125.32,238.66L-124,241.42L-123.94,242.12L-121.69,256.32L-120.17,252.78L-120.11,251.61L-114.63,229.29L-114.43,230.82L-114.37,231.2L-111.53,246.94L-111.46,246.87L-111.39,247.08L-108.09,242.04L-107.9,242.51L-107.83,243.14L-107.37,244.12L-107.17,241.64L-107.1,239.37L-104.07,216.16L-103.34,219.95L-103.28,220.71L-101.76,214.94L-100.96,217.2L-100.9,217.9L-98.59,215.95L-98.52,219.55L-97.2,217.53L-93.31,246.95L-92.98,244.8L-92.91,244.65L-92.85,245.13L-92.32,243.41L-91.99,244.9L-91.92,245.7L-91.86,246.2L-90.73,239.07L-90.67,239.35L-90.6,238.07L-88.22,224.15L-87.37,227.26L-87.3,228.42L-87.04,229.77L-84.13,216.78L-84.07,215.03L-80.44,195.54L-80.37,196.09L-80.11,194.98L-76.08,238.52L-75.88,235.72L-75.81,234.97L-75.68,235.95L-74.36,232.41L-74.3,232.66L-74.23,232.65L-71.85,220.11L-71.79,221.2L-71.72,220.66L-69.87,202.68L-69.81,201.39L-68.09,190.9L-67.89,193.63L-67.83,193.88L-66.77,207.64L-66.7,208.81L-64.72,233.7L-64.66,234.53L-62.88,226.99L-62.48,227.55L-62.41,229.07L-60.37,215.61L-60.1,218.52L-60.04,219.37L-58.98,213.71L-58.32,217.34L-58.26,217.27L-57.79,220.43L-57.13,214.46L-56.8,215.46L-56.74,214.63L-56.08,220.43L-55.09,218.69L-55.02,219.19L-54.82,217.7L-53.9,223.99L-53.83,224.77L-53.24,219.93L-52.58,225.73L-52.51,226.69L-51.46,234.37L-50.73,232.59L-50.66,231.92L-50,239.26L-49.94,240.94L-49.74,242.18L-48.95,237.15L-48.88,236.48L-48.75,239.56L-47.69,235.49L-47.43,237.77L-47.36,239.13L-47.17,239.84L-46.51,236.94L-46.44,236.86L-44.46,246.31L-44.33,245.42L-44.26,241.31L-43.67,239.63L-42.87,240.8L-42.81,240.75L-41.75,229.32L-41.16,233.05L-41.09,234.45L-40.63,241.11L-39.9,238.39L-39.84,237.83L-39.51,233.54L-38.98,239.2L-38.91,241.22L-38.52,244.12L-37.73,239.25L-37.66,238.21L-37.4,237.29L-36.74,240.64L-36.67,241.32L-36.34,243.25L-36.01,239.81L-35.94,239.2L-34.82,237.94L-34.56,238.58L-34.49,239.61L-34.29,242.51L-33.57,236.58L-33.5,235.65L-33.17,232.4L-32.44,236.54L-32.38,236.53L-30.73,227.88L-30.46,229.99L-30.4,231.28L-29.74,226.22L-29.08,226.45L-29.01,226.21L-28.95,226.61L-28.62,223.14L-28.29,224.27L-28.22,222.24L-25.98,240.99L-25.91,240.16L-23.47,253.29L-23.4,252.99L-23.34,251.06L-22.34,242.37L-22.15,242.75L-22.08,242.7L-21.68,241.08L-21.29,242.97L-21.09,242.82L-21.02,243.03L-18.65,259.51L-18.58,259.01L-18.25,260.09L-17.79,257.45L-17.72,257.15L-15.88,244.42L-15.81,244.2L-15.68,244.02L-15.48,245.19L-15.41,245.13L-15.35,243.28L-15.15,244.19L-14.82,240.63L-14.75,238.41L-14.56,239.01L-12.18,227.16L-12.11,227.24L-12.05,229.17L-11.59,225.3L-11.32,230.89L-11.25,230.17L-11.19,230.46L-10.99,232.22L-10.92,233.04L-9.34,244.09L-9.27,244.33L-7.82,253.95L-7.76,253.34L-7.62,253.61L-7.03,251.8L-6.83,252.14L-6.77,253.39L-6.04,255.17L-5.84,253.82L-5.78,254.09L-5.31,252.17L-4.92,252.98L-4.85,253.25L-4.52,252.76L-4.13,255.31L-3.86,254.45L-3.8,254.09L-2.67,251.38L-2.61,252.65L-2.01,254.34L-1.75,254.01L-1.68,253.62L-1.02,249.36L-0.83,251.4L-0.76,251.92L-0.63,251.59L-0.43,252.49L-0.36,253.1L-0.17,253.65L0.03,251.25L0.17,252.02L0.23,251.58L1.02,248.83L1.16,249.21L1.22,249.89L2.28,253.93L2.48,253.2L2.54,252.56L2.94,254.31L3.07,252.04L3.14,252.04L3.8,255.65L4.13,254.33L4.19,254.01L4.92,250.79L5.18,251.39L5.25,252.33L5.38,252.44L5.45,251.58L5.51,251.04L5.58,250.9L5.71,251.51L5.78,251.29L5.84,252.14L5.97,251.86L6.24,252.55L6.3,253.11L6.57,256.53L6.96,252.81L7.03,251.33L8.22,256.11L8.28,255.77L8.35,255.71L8.68,255.02L8.88,257.27L9.27,256.58L9.34,256.42L9.87,249.97L10.07,252.87L10.13,252.9L10.33,254.87L10.99,254.7L11.06,254.14L11.19,254.24L11.32,253.7L11.39,253.17L11.78,249.72L11.85,250.09L11.92,248.34L12.11,247.55L12.44,248.7L12.51,249.21L13.1,253.84L13.17,254.88L13.43,255.77L13.76,254.83L13.83,253.97L13.9,254.37L14.29,252.27L14.36,252.94L14.42,252.89L14.62,252.74L14.75,254.01L14.82,254.75L15.28,258.84L15.68,257.68L15.74,257.36L16.73,254.65L16.8,254.69L16.87,255.39L17.06,256.23L17.33,253.75L17.39,253.19L17.59,255.09L18.05,252.78L18.12,252.71L19.04,249.83L19.18,249.85L19.24,250.28L19.37,249.59L19.9,250.45L19.97,250.48L20.36,247.75L20.83,249.28L20.89,249.72L21.29,252L21.49,250.42L21.55,247.8L21.95,243.5L22.41,245.02L22.48,245L22.74,245.51L22.81,245.12L22.87,242.73L23.27,237.9L23.73,240.59L23.8,240.74L24.06,242.11L24.52,241.15L24.59,241.07L24.79,243.76L24.85,246.39L25.25,249.12L25.58,247.03L25.65,246.91L26.04,246.17L26.11,246.48L26.17,249.16L26.64,253.48L27.03,251.7L27.1,251.08L27.16,250.8L27.63,251.85L27.69,252.6L28.29,248.52L28.55,251.71L28.62,251.32L29.28,255.1L29.34,253.34L29.41,252.23L29.67,252.88L29.74,252.05L29.8,251.22L30.07,252.58L30.46,250.71L30.53,248.95L33.7,216.57L33.76,217.61L33.83,219.35L34.29,217.72L34.56,218.22L34.62,220.18L34.76,220.42L34.82,219.64L34.89,219.97L34.95,222.84L36.01,233.8L36.08,233.76L36.8,242.14L37.4,242.04L37.46,242.11L37.53,241.45L37.99,244.07L38.06,244.06L38.78,248.19L38.98,246.88L39.05,246.69L39.11,247L39.57,245.52L39.71,246.32L39.77,246.45L42.48,259.83L42.54,259.71L43.6,262.26L43.67,262.12L43.73,261.01L44.13,260.09L44.39,261.07L44.46,261.61L44.72,260.87L44.99,262.07L45.12,261.42L45.18,261.8L45.58,262.73L45.65,262.5L45.71,261.93L46.97,256.91L47.03,258.36L47.1,258.49L48.29,254.82L48.35,254.95L48.42,255.47L48.62,254.4L49.15,255.11L49.21,256.36L49.81,258.99L50.07,258.19L50.14,257.81L50.33,257.18L50.6,257.78L50.66,259.17L51.46,259.98L51.52,259.61L51.59,259.4L51.65,259.56L51.98,258.75L52.05,258.45L52.84,256.45L53.17,256.61L53.24,258.19L53.83,259.42L53.9,258.12L53.96,257.91L54.95,251.31L55.15,252.02L55.22,252.38L55.61,252.14L55.81,252.84L55.88,253.31L55.94,253.13L56.14,254.86L56.21,254.47L56.27,254.64L56.6,253.66L57,254.71L57.07,254.68L58.26,262.19L58.39,261.56L58.45,261.01L58.65,261.28L58.72,260.75L58.78,259.74L58.85,259.89L59.11,258.88L59.18,258.52L59.31,256.79L59.97,257.64L60.04,257.35L61.56,253.51L61.95,253.8L62.02,254.35L62.61,257.12L62.88,256.66L62.94,256.49L63.14,254.61L63.21,253.16L63.93,252.29L64,252.53L64.06,252.87L64.59,254.96L64.66,255.68L64.79,255.17L65.19,257.05L65.38,255.45L65.45,255.54L66.44,259.54L66.51,260.72L67.83,256.22L68.02,256.75L68.09,258L69.15,254.94L69.21,254.48L69.68,248.09L69.74,245.23L70.8,234.78L70.86,233.66L71,234.82L71.26,231.34L71.33,231.41L71.39,231.36L72.58,220.54L72.91,221.66L72.98,222.91L73.31,229.86L73.77,226.9L73.83,226.19L74.56,228.47L74.63,228.27L74.69,226.96L74.76,227.21L75.02,226.02L75.09,225.37L76.21,230.88L76.28,230.48L76.34,229.52L77.86,235.03L77.93,234.52L78.78,238.6L78.85,238.55L78.92,238.77L80.04,242.72L80.11,242.31L81.03,245.89L81.23,244.88L81.29,244.36L81.43,243.15L81.82,245.69L82.02,244.6L82.09,244.9L82.42,246.17L82.81,245.5L82.88,243.56L83.21,244.36L83.6,241.37L83.67,242.31L83.74,243.17L84.07,238.21L84.13,236.05L85.32,195.06L85.39,193.68L85.98,182.15L86.05,180.65L86.18,181.42L87.17,165.55L87.37,168.96L87.43,170.93L88.62,208.05L88.69,208.82L89.81,218.12L89.87,221.41L90.01,220.89L90.34,221.81L90.4,221.28L90.47,222.25L90.6,220.47L91.06,221.56L91.13,222.21L91.2,221.96L91.46,223.29L91.53,224.75L92.78,234.09L92.98,233.22L93.04,233.35L93.11,232.99L93.31,235.6L93.37,236.74L94.17,244.18L94.76,244.07L94.83,243.97L95.09,243.4L95.16,241.2L95.22,242.77L95.55,240.12L95.95,242.28L96.01,242.5L96.54,246.42L96.94,245.06L97,244.9L97.07,245.21L97.4,244.01L97.53,244.38L97.6,244.02L98.19,244.54L98.85,238.12L98.92,236.73L100.77,225.9L100.83,226.87L101.82,220.74L101.89,221.33L103.08,228.42L103.54,227.3L103.61,227.08L104.13,220.38L104.46,222.41L104.53,222.01L104.93,223.57L104.99,224.28L105.32,227.77L105.72,225.89L105.78,225.65L106.11,223.33L106.18,220.56L106.84,210.71L107.24,214.15L107.3,214.9L107.43,215.71L107.63,213.29L107.7,211.24L108.56,197.1L108.82,197.84L108.89,197.5L109.41,194.75L109.48,196.83L109.55,197.15L109.81,200.82L110.54,193.04L110.6,192.83L110.73,192L111,195.27L111.06,197.19L111.66,202.29L111.72,203.75L115.88,242.83L115.95,243.09L117.73,248.3L117.86,247.9L117.93,247.16L118.26,248.62L118.39,247.15L118.46,245.66L119.25,243.6L119.38,243.91L119.45,244.07L120.11,247.68L120.5,246.15L120.57,246.17L121.1,246.48L121.16,247.11L122.42,255.83L122.55,255.62L122.62,255.49L122.81,255.09L123.01,256.21L123.28,255.9L123.34,254.74L124.27,249.17L124.33,249.51L124.4,249.77L124.46,249.09L124.53,246.56L125.46,242.98L125.52,242.99L125.59,242.49L126.58,239.76L126.64,240.27L126.71,241.9L129.15,255.35L129.22,255.08L129.68,257.7L130.01,256.71L130.08,255.62L131.2,253.44L131.26,253.51L131.4,254.56L131.92,253.28L131.99,252.57L132.39,249.5L132.85,250.3L132.91,250.09L133.84,253.07L134.04,252.42L134.1,252L134.17,251.41L134.5,253.75L134.76,252.26L134.83,252.27L134.96,252.08L135.55,254.47L135.82,253.93L135.88,253.45L136.15,254.03L136.68,252.46L136.74,252.6L136.81,252.61L136.88,252.88L137.07,251.03L137.14,250.89L138.46,243.61L138.53,243.99L139.98,249.84L140.04,249.88L140.51,253.77L140.57,254.52L141.63,262.36L142.16,261.67L142.22,261.41L142.35,261.55L142.42,260.86L142.49,260.52L143.48,257.31L143.54,257.35L143.61,257.27L144.47,256.24L144.53,256.26L144.6,256.34L145.85,258.35L145.92,257.76L146.91,254.29L146.97,254.5L147.44,253.49L147.7,254.3L147.77,254.7L148.3,253.45L148.76,253.98L148.82,254.4L149.15,254.05L149.22,255.49L149.29,256.09L149.35,255.85L149.68,257.29L149.75,257.42L150.74,263.28L150.87,262.16L150.94,260.95L151,260.69L151.46,261.25L151.53,262.1L151.73,263.03L152.12,260.4L152.19,260.63L152.59,258.79L152.65,257.82L153.25,253.07L153.31,252.56L153.64,253.31L154.04,252.3L154.1,252.36L154.17,253.24L154.3,254.8L154.83,252.14L154.9,251.39L155.09,251.69L155.23,250.8L155.62,251.3L155.69,251.37L156.61,259.9L156.74,259.58L156.81,258.79L157.6,258.23L157.73,258.42L157.8,258.84L158.06,256.33L158.33,257.23L158.39,257.88L158.92,259.3L159.19,258.8L159.25,258.97L159.78,255.77L160.05,256.49L160.11,257.42L160.31,257.34L160.38,257.93L160.44,258.11L160.77,257.29L160.97,257.82L161.04,258.05L161.7,263.15L162.09,261.6L162.16,261.31L162.62,259.33L162.75,259.63L162.82,260.61L163.08,261.05L163.41,259.75L163.48,259.04L163.68,258.25L163.74,257.82L164.07,258.36L165.66,253.11L165.72,254.36L165.79,253.43L166.25,254.73L166.45,254.22L166.51,254.1L166.65,253.33L166.98,255.39L167.04,255.44L167.17,255.61L167.31,254.85L167.37,253.7L168.03,251.81L168.16,252.96L168.23,252.91L168.43,252.48L169.09,254.09L169.15,253.3L169.29,252.68L169.81,253.73L169.88,253.99L171.14,260.66L171.2,260.47L172.19,264.88L172.26,265.62L173.31,267.34L173.38,267.23L173.45,267.36L174.24,264.09L174.5,264.56L174.57,265.04L174.96,266.56L175.16,265.24L175.23,265.07L175.95,263.67L176.09,264.45L176.15,264.52L176.28,263.7L176.35,262.27L176.42,262.55L176.68,260.89L176.75,260.53L176.94,260.35L177.01,261.73L177.14,262.65L177.6,260.45L177.67,260.28L178.33,257.29L178.53,258.32L178.59,258.53L178.86,258.71L178.92,258.01L179.52,256.41L179.72,257.66L179.78,257.67L180.9,261.12L180.97,261.02L181.04,260.63L181.7,262.27L181.83,261.16L181.89,260.64L182.16,261.1L182.22,261.8L182.89,264.07L183.08,263.95L183.15,263.78L184.14,261.88L184.34,262.37L184.4,262.32L185.2,265.88L185.46,264.45L185.53,264.36L187.31,257.77L187.37,258.23L188.56,252.28L188.63,252.67L188.69,252.76L189.02,250.6L189.29,251.17L189.35,251.65L190.21,252.55L190.28,252.6L190.61,252.41L190.94,255.04L191.2,254.1L191.27,253.82L191.47,253.27L191.53,252.14L193.31,241.17L193.38,239.99L194.77,217.61L194.9,218.11L194.97,217.94L195.1,218.96L195.56,217.35L195.63,218.32L195.96,221.99L196.22,217.22L196.29,216.46L196.62,215.93L197.01,222.88L197.08,226.11L198.13,232.37L198.2,231.62L198.4,231.5L198.73,232.41L198.86,231.39L198.93,231.07L198.99,230.73L199.32,231.86L199.39,234.29L200.31,241.23L200.38,240.96L200.58,241.26L200.71,240.25L200.77,239.87L200.97,241.74L201.37,238.82L201.43,238.35L201.63,239.78L201.9,236.65L202.03,236.71L202.09,236.78L203.02,241.02L203.22,240.86L203.28,240.81L203.74,240.15L204.54,243.82L204.6,243.7L204.67,242.93L207.97,166.3L208.3,168.74L208.37,168.59L210.08,190.89L210.21,190.65L210.28,189.15L210.41,191.98L210.74,188.32L211.07,190.22L211.14,189.92L211.67,195.04L211.93,193.91L212,193.14L212.92,179.78L213.05,181.81L213.12,184.29L214.5,194.63L214.57,195.84L217.67,231.06L217.74,230.77L217.81,230.84L218.66,236.08L218.8,235.1L218.86,233.88L218.99,233.98L219.32,233.08L219.59,233.78L219.65,234.17L220.64,235.93L220.71,235.73L220.91,235.21L221.24,237L221.5,235.98L221.57,235.44L223.61,246.52L223.75,246.16L223.81,246.05L224.14,245.62L224.21,243.45L224.6,241.42L224.87,243.85L224.93,243.19L225,243.31L227.38,226.18L227.44,226.53L227.51,229.72L227.57,230.15L227.84,229.28L227.91,229.29L227.97,227.51L228.96,218.32L229.03,217.94L229.75,215.45L229.89,215.78L229.95,216.75L230.15,216.53L230.61,219.99L230.81,218.44L230.88,218.43L230.94,217.95L231.27,220.36L231.34,222.64L232.59,238.2L232.66,238.65L233.19,238.28L233.52,240.13L233.58,240.19L233.98,238.07L234.11,239.47L234.18,239.53L234.24,239.82L234.44,237.86L234.51,236.57L234.57,236.75L234.84,235.54L234.9,235L235.36,231.79L235.43,230.45L237.08,214.13L237.21,214.37L237.28,215.04L239.72,196.29L240.05,197.66L240.12,197.33L241.5,175.67L241.83,178.99L241.9,180.64L243.02,191.25L243.09,191.34L244.08,202.85L244.14,202.76L244.21,204.35L245.4,215.13L245.46,215.17L245.6,214.89L247.44,224.92L247.58,224.07L247.64,223.92L248.17,223.72L248.5,224.85L248.57,225.07L248.63,225.27L248.7,224.81L249.03,224.87L249.09,224.1L249.36,223.4L249.49,224.36L249.56,224.95L250.81,230.38L250.88,231.21L251.08,233.54L251.14,234.41L251.6,236.28L252.07,235.39L252.13,234.63L252.53,236.37L252.86,235.16L252.92,234.68L253.65,229.6L253.72,227.73L255.76,183.78L255.83,182.45L256.88,171.39L257.08,174.44L257.15,175.21L260.12,224.65L260.18,224.46L262.56,203.4L262.63,203.47L262.69,203.94L263.88,212.94L263.95,213.1L265.66,235.53L265.73,235.96L266.65,241.64L266.72,240.92L266.79,240.72L267.05,241.82L267.18,241.55L267.25,241.76L268.83,231.03L268.9,230.67L270.81,214.48L270.88,214.43L271.34,214.58L272,211.3L272.2,211.38L272.26,211.84L272.46,211.51L272.66,212.74L272.73,213.23L274.11,220.63L274.64,219.62L274.71,219.71L274.84,220.61L275.1,217.47L275.17,217.4L275.43,218.44L275.57,217.02L275.63,216.35L276.03,210.73L276.09,209.88L277.88,193.76L277.94,193.59L278.01,194.07L278.21,192.73L278.34,192.86L278.4,191.52L278.73,181.78L278.8,180.5L279.33,185.53L279.39,186.55L279.53,186.09L281.11,202.08L281.18,201.74L281.24,199.89L281.37,198.06L281.7,202.81L281.77,204.54L283.09,221.56L283.16,221.92L286.19,247.4L286.26,247.45L286.79,248.73L287.05,248.17L287.12,248.04L287.25,248.72L287.45,246.93L287.51,246.36L287.84,247.32L288.11,246L288.31,246.69L288.37,246.69L289.63,242.77L289.69,242.57L289.89,243.02L290.15,240.94L290.22,240.39L290.29,239.87L290.75,241.99L290.81,242.12L291.34,239.31L291.41,239.5L291.47,237.57L293.06,219.79L293.12,220L293.19,220.06L294.18,223.56L294.31,223.25L294.38,223.16L294.91,228.03L294.97,228.74L295.3,232.03L295.37,234.28L296.29,242.39L296.36,242.82L296.69,243.25L296.82,241.66L296.89,241.25L297.02,241.35L297.09,240.61L297.15,239.84L297.55,239.67L298.21,241.62L298.27,241.21L298.34,240.94L298.41,240.72L298.6,242.53L298.67,242.67L298.87,242.2L299.07,243.36L299.13,244.74L300.25,248.53L300.32,248.45L300.39,248.53L301.24,251.87L301.31,251.8L301.57,251.62L301.77,252.62L302.04,251.6L302.1,251.27L302.83,252.38L302.89,254.02L303.49,249.99L303.82,251.03L303.88,251.43L304.28,252.12L304.54,251.04L304.61,251.27L304.68,251.6L304.87,252.16L305.07,250.86L305.34,251.83L305.4,252.2L305.67,252.58L305.86,251.31L305.93,250.39L306,250.11L306.19,251.33L306.26,251.14L306.33,253.07L307.71,257.73L307.78,257.71L307.98,257.57L308.64,259.9L308.77,259.88L308.84,259.68L308.97,258.46L309.3,260.65L309.56,259.98L309.63,259.58L310.49,256.17L310.68,256.99L310.75,256.89L311.41,255.51L311.54,256.55L311.61,256.87L311.94,256.26L312.2,257.27L312.27,257.58L313.59,252.56L313.65,252.47L314.91,249.91L314.97,250.16L315.3,250.55L315.5,249.8L315.57,249.12L317.35,254.87L317.61,254.69L317.68,254.58L317.94,251.94L318.41,253.28L318.47,253.3L318.93,256.01L319.6,255.66L319.66,255.43L320.45,254.22L320.52,254.43L320.59,254.9L321.18,255.9L321.25,258.52L322.04,254.39L322.1,253.9L322.37,251.22L322.76,252.84L322.83,252.91L323.09,252.36L323.36,253.09L323.49,252.68L323.56,252.62L323.82,254.73L324.08,253.23L324.15,251.96L325.47,248.56L325.54,248.54L325.8,251.3L326.06,250.35L326.13,249.67L326.79,250.42L326.99,249.66L327.05,249.2L327.32,248.3L327.38,249.42L327.45,250.39L329.43,258.26L329.5,257.93L330.36,254.53L330.42,254.73L330.49,255.49L330.55,255.69L330.82,254.44L330.88,254.07L332.53,247.49L332.8,248.02L332.86,248.41L332.93,248.02L333.33,249.29L333.39,249.12L333.46,249.52L335.17,255.28L335.24,254.66L335.31,254.89L336.76,259.09L336.82,258.83L336.89,258.78L337.48,259.08L337.68,257.34L337.75,258.07L337.88,258.27L338.01,257.54L338.08,257.14L340.19,238.3L340.26,238.91L340.39,239.13L340.59,238.21L340.65,238.09L340.78,237.79L340.98,238.55L341.25,238.49L341.31,238.89L341.84,244.13L341.91,245.14L342.9,256.39L342.96,256.23L343.03,256.3L343.23,255.92L343.49,256.84L343.56,257.39L343.89,256.73L344.15,257.5L344.22,257.8L344.35,258.12L344.61,256.99L344.68,256.83L344.75,257.01L344.94,256.13L345.01,254.27L346.13,240.89L346.2,240.12L348.24,219.35L348.31,220.38L348.57,224.7L349.04,222.33L349.1,221.26L349.3,219.63L349.76,221.61L349.83,221.92L350.09,224.27L350.62,223.85L350.69,224.04L352.07,231.94L352.14,231.91L353,236.73L353.06,235.8L353.13,235.51L353.39,235.4L354.05,237.51L354.12,237.25L354.52,241.78L354.98,239.6L355.04,239.74L355.31,239.91L355.57,239.19L355.64,238.87L356.89,242.68L356.96,242.21L357.02,241.52L357.82,239.6L357.88,240.59L358.94,245.58L359.14,244.72L359.2,243.76L359.27,243.55L359.4,244.32L359.8,244.23L359.86,244.39L360.32,245.49L360.39,247.63L361.12,250.13L361.25,249.63L361.31,249.59L362.37,246.57L362.44,246.89L362.5,248.19L362.77,246.83L362.96,247.7L363.03,248.04L363.43,245.74L363.82,245.96L363.89,246.04L365.54,236.47L365.67,237.05L365.74,237.36L366.07,238.38L366.33,236.88L366.4,237.94L366.53,238.48L366.93,237L366.99,237.26L367.06,237.13L367.19,236.56L367.59,238.09L367.78,237.13L367.85,237.19L368.77,245.8L368.84,246.72L368.91,246.91L369.24,245.91L369.3,244.15L369.5,242.88L369.83,244.72L369.9,245.41L370.23,246.72L370.62,245.92L370.69,245.48L370.82,245.29L371.02,246.59L371.08,246.94L371.28,248.01L372.34,244.3L372.4,243.52L372.6,245.88L372.93,244.65L373,243.23L373.06,243.52L373.33,241.6L373.39,241.8L373.46,241.69L374.19,240.47L374.25,240.93L374.32,240.6L375.31,238.15L375.44,238.55L375.51,239.24L376.7,246.1L376.76,246.57L377.49,248.86L377.62,247.55L377.69,247.09L377.82,246.21L378.02,247.13L378.08,247.59L378.21,248.3L378.68,246.92L378.74,246.37L379.14,244.6L379.47,245.9L379.53,246.57L380,247.12L380.06,247.19L383.3,219.49L383.36,218.52L383.63,218.03L384.75,226.31L384.81,226.97L385.34,232.26L385.41,233.46L387.06,246.24L387.19,245.96L387.26,246.27L388.25,243.07L388.31,243.48L388.38,243.88L388.97,244.76L389.11,244.43L389.17,244.04L390.49,234.24L390.56,233.62L390.69,232.76L390.89,233.94L391.09,233.83L391.15,234.37L391.61,236.34L391.88,235.14L391.94,234.41L392.27,234.19L392.54,235.42L392.74,235.31L392.8,234.39L393.66,227.52L393.73,228.53L393.79,229.27L394.06,230.15L394.32,228.09L394.39,227.51L395.11,224.44L395.38,224.92L395.44,225.07L395.57,224.28L395.77,225.65L395.84,226.14L397.82,244.28L397.88,244.5L398.21,242.01L398.74,242.43L398.81,243.1L398.88,243.56L399.07,240.81L399.14,239.82L399.93,237.45L400.06,237.52L400.13,237.8L400.66,235.11L400.72,234.42L401.19,232.42L401.38,234.72L401.45,235.23L402.24,232.15L402.31,230.53L403.3,183.66L403.36,179.68L406,35.35L406.27,41.23L406.33,44.38L407.59,86.75L407.65,89.6L409.5,130.55L409.7,128.9L409.77,128.42L409.96,125.42L410.36,130.25L410.43,131.57L412.21,155.49L412.41,154.91L412.47,154.11L412.54,153.94L412.61,155.52L412.67,154.7L412.74,156.05L413.46,164.88L413.66,159.59L413.73,158.45L413.99,156.53L414.26,161.86L414.32,162.36L414.65,160.12L414.72,160.97L414.78,162.63L414.85,162.83L414.92,161.69L415.11,161.83L415.18,161.08L415.25,160.39L415.58,163.2L415.64,165.9L415.97,171.11L416.3,167.22L416.37,165.93L417.03,173.83L417.09,175.75L417.62,173.41L418.08,179.94L418.15,179.23L419.73,198.05L419.8,198.3L421.45,213.14L421.52,213.08L421.78,214.74L422.05,213.93L422.11,212.4L422.77,216.47L422.84,217.14L424.36,228.95L424.62,228.13L424.69,226.51L425.15,224.17L425.35,225.99L425.41,227.41L425.54,227.46L426.2,225.75L426.27,226.17L426.34,226.7L426.53,227.91L426.73,224.95L426.8,222.87L427.26,223.58L427.33,221.94L427.39,221.38L427.72,223.05L427.92,222.54L427.99,223.21L428.38,221.72L428.84,222.14L428.91,222.84L429.04,222.54L429.7,223.86L429.77,223.75L429.83,223.34L429.97,224.16L430.03,223.93L430.1,226.95L430.3,226.61L430.69,229.66L430.89,227.43L430.96,225.95L431.02,223.3L431.68,227L431.75,227.35L431.95,226.68L432.08,227.92L432.28,227.13L432.34,228.55L432.8,229.26L432.87,228.78L432.94,228.19L434.26,221.7L434.32,223.45L434.59,224.23L434.85,221.45L434.92,220.6L435.64,218.81L435.71,218.92L435.78,219.11L435.97,220.07L436.5,218.41L436.57,219.61L436.63,219.75L436.83,218.56L436.9,216.74L437.82,211.5L437.89,212.03L437.95,213.49L438.02,214.09L438.28,211.97L438.48,211.99L438.55,212.14L438.81,210.54L439.27,211.54L439.34,212.25L439.54,211.2L439.8,213.2L439.87,212.81L439.93,213.18L441.78,225.37L441.85,224.13L441.98,225.04L443.17,219.6L443.23,219.63L443.37,218.91L443.63,220.85L443.7,220.71L443.76,221.22L443.96,217.79L444.56,219.34L444.62,219.6L446.21,230.72L446.47,229.72L446.54,229.49L447.13,226L447.46,227.9L447.53,227.69L448.05,226.8L448.12,227.01L448.19,225.64L449.51,214.67L449.9,216.35L449.97,216.65L450.36,220.05L450.69,217.89L450.76,215.16L451.09,213.54L451.16,213.62L451.22,211.22L451.95,205.15L452.08,205.6L452.15,204.96L452.21,204.66L452.41,206.87L452.67,205.59L452.74,208.24L453,207.55L453.2,209.93L453.47,208.9L453.53,208.76L455.31,219.91L455.38,220.05L455.58,221.02L455.71,217.96L456.04,219.25L456.11,218.51L456.31,219.68L456.37,218.68L456.44,215.47L457.43,205.68L457.49,206.51L457.56,205.25L457.69,204.57L458.15,206.13L458.22,206.2L458.95,209.16L459.01,208.59L459.08,207.67L460.86,226.81L460.93,228.44L461.32,233.77L461.85,233.58L461.92,233.53L462.05,235.6L462.11,236.94L462.25,236.05L462.44,239.12L462.51,240.16L462.64,240.86L462.91,239.73L462.97,239.16L463.5,237.76L463.57,239.13L463.76,238.81L463.9,239.61L463.96,238.94L464.03,237.24L464.23,235.47L464.29,231.5L464.62,227.17L465.15,228.9L465.22,229.07L465.28,229.3L465.35,226.77L465.41,226.27L465.61,226.34L466.73,220.48L466.8,221.05L466.87,221.41L467.26,222.95L467.4,218.4L467.53,220.42L467.59,224.41L467.86,225.38L468.19,223.53L468.25,224.05L468.32,224.15L468.39,215.01L469.11,217.55L469.18,217.87L469.24,218.01L469.31,216.43L469.51,216.92L469.57,216.13L470.43,210.7L470.56,211.13L470.63,212.03L470.7,216.82L471.42,216.39L471.49,216.85L471.55,215.27L471.69,224.08L471.95,223.01L472.02,224.52L472.08,224.26L472.41,226.01L472.48,226.34L472.68,227.31L473.01,225.06L473.14,226.63L473.2,227.44L474.13,233.52L474.19,232.04L475.18,238.39L475.25,237.35L476.11,240.58L476.17,242.01L476.83,244.6L476.97,244.57L477.03,243.36L477.1,243.83L477.36,242.05L477.43,239.03L478.09,240.2L478.15,239.75L478.22,238.84L479.15,233.52L479.21,233.53L479.28,233.87L479.41,233.74L479.48,234.29L479.54,229.63L479.67,229.19L479.81,229.46L479.87,231.21L480.4,230.35L480.53,231.77L480.6,231.99L480.73,234.97L480.8,236.45L481.19,237.09L481.46,235.49L481.52,236.25L481.59,236.87L481.92,233.99L482.05,235.63L482.12,236.68L482.25,236.47L482.31,236.9L482.38,236.71L482.45,234.87L484.29,204.34L484.36,203.88L485.75,180.11L485.94,182.07L486.01,183.82L486.08,183.6L486.14,185.39L486.21,185.39L486.27,185.84L486.34,185.46L486.41,187.99L486.47,190.81L486.87,183.68L486.93,182.8L489.64,93.43L489.71,87.9L491.16,40.58L491.23,39.16L491.56,27.38L491.95,35.67L492.02,39.18L492.88,49.76L492.94,49.33L493.01,51.55L494.33,80.69L494.53,79.83L494.59,80.97L496.31,122.86L496.37,121.68L497.89,138.51L498.02,138.37L498.09,136.64L499.01,125.11"
                   style="vector-effect: none; fill: none; stroke: rgb(69, 90, 100); stroke-opacity: 1; stroke-width: 1.2px; opacity: 1;"
                   id="path74" />
              </g>
              <g
                 class="points"
                 id="g76" />
              <g
                 class="text"
                 id="g77" />
            </g>
            <g
               class="trace scatter trace53dd4a"
               style="stroke-miterlimit: 2; opacity: 1;"
               id="g84">
              <g
                 class="fills"
                 id="g79" />
              <g
                 class="errorbars"
                 id="g80" />
              <g
                 class="lines"
                 id="g81">
                <path
                   class="js-line"
                   d="M-203.61,159.35L-203.48,-20.72L-202.89,53.74L-202.82,58.19L-200.44,163.08L-200.38,164L-196.55,210.52L-196.09,204.39L-196.02,206.67L-195.89,214.03L-193.18,184.06L-192.92,185.27L-192.85,184.45L-192.26,183.38L-187.31,237.22L-187.24,235.99L-184.01,218.71L-183.61,226.41L-183.55,226.57L-181.56,225.5L-180.51,235.07L-180.18,229.69L-180.11,229.18L-177.01,217.06L-176.81,221.27L-176.75,224.92L-176.42,220.51L-175.49,227.4L-175.29,225.21L-175.23,227.39L-172.39,207.09L-171.66,215.87L-171.6,217.96L-171.27,215.9L-169.29,244.95L-167.57,239.76L-167.5,238.54L-165.79,247.44L-164.47,239.55L-164.4,238.93L-162.49,236.54L-162.09,243.63L-161.37,238.93L-161.3,238.89L-158.26,251.2L-157.8,249.64L-157.73,249.24L-157.27,243.25L-155.69,250.77L-155.56,247.63L-155.49,228.31L-154.04,64.74L-153.97,59.04L-152.26,-34.22L-151.27,49.24L-151.2,55.03L-146.84,216.24L-146.78,214.76L-145.39,224.06L-144.93,218.59L-144.86,217.99L-141.5,233.19L-141.03,233.01L-140.97,230.24L-140.77,227.64L-139.25,235.35L-138.39,229.81L-138.33,233.66L-137.8,230.23L-137.47,236.45L-137.4,234.91L-134.17,217.41L-134.1,219.03L-131.13,253.15L-130.74,250.99L-130.67,250.71L-130.08,253.14L-125.46,225.28L-125.39,228.03L-125.26,230.82L-124.53,229.64L-124.46,229.32L-124.2,228.75L-123.94,237.22L-123.74,236.27L-123.67,237.73L-123.61,237.13L-122.55,249.63L-122.48,251.43L-121.49,254.61L-120.7,241.63L-120.64,238.28L-119.84,234.63L-119.38,241.22L-119.12,239.62L-119.05,240.21L-118.72,235.35L-118.59,235.87L-118.52,229.28L-118,227.09L-117.73,235.73L-117.4,234.76L-117.34,237.37L-115.88,231.32L-115.09,239.49L-115.03,240.31L-113.97,244.99L-113.24,237.26L-112.85,241.01L-112.78,241.56L-109.81,254.53L-109.74,253.6L-108.75,254.18L-107.37,246.26L-107.3,238.51L-107.1,239.32L-106.38,228.64L-106.31,224.52L-104.33,208.47L-103.87,218.76L-103.8,218.65L-100.7,243.57L-100.44,241.94L-100.37,239.25L-97.53,201.33L-97.47,201.49L-96.87,213.02L-96.81,214.95L-96.28,225.81L-96.21,232.74L-94.76,228.87L-93.77,241.46L-93.7,240.69L-93.64,241.1L-91.46,258.78L-90.6,252.54L-90.53,251.01L-88.49,234.5L-88.03,234.79L-87.96,233.83L-85.91,250.36L-85.45,243.26L-85.39,243.5L-85.19,244.4L-82.94,218.12L-82.61,222.54L-82.55,226.11L-82.28,225.89L-80.57,245.55L-80.11,235.35L-80.04,235.54L-76.67,259.45L-76.34,254.45L-76.28,254.37L-75.95,255.06L-75.75,254.11L-75.68,254.48L-75.62,251.09L-72.38,229.19L-71.66,230.84L-71.59,230.79L-71.39,231.6L-70.8,227.46L-70.73,227.77L-70.67,223.8L-70.53,218.9L-70.14,224.1L-68.88,220.67L-68.82,219.96L-68.09,214.73L-66.77,237.58L-65.98,234.56L-65.91,233.86L-65.71,231.07L-65.12,242.79L-64.99,242.01L-64.92,245.37L-64.39,251.88L-63.73,247.91L-63.67,246.13L-63.4,244.06L-62.48,249.44L-62.41,250.72L-62.15,251.45L-61.95,249.43L-61.56,250.59L-61.49,249.31L-61.16,247.42L-60.24,253.6L-60.17,253.79L-59.64,257.97L-59.18,250.04L-59.11,249.44L-58.92,246.4L-58.45,249.5L-57.46,246.96L-57.4,246.95L-56.87,245.38L-55.75,254.73L-55.55,253.97L-55.48,248.72L-55.09,248.49L-53.57,253.13L-53.5,252.03L-53.44,250.03L-52.64,249.44L-52.18,252.9L-52.12,249.6L-52.05,248.87L-51.98,248.37L-51.13,251.22L-50.86,250.52L-50.8,250.96L-50.27,247.8L-49.54,253.43L-49.48,254.33L-48.68,263.1L-47.76,258.75L-47.69,258.92L-47.23,264.96L-46.18,262.16L-46.11,261.8L-45.71,261.46L-45.51,262.38L-45.45,263.25L-45.32,264.75L-44.66,256.71L-44.59,255.9L-42.15,216.92L-42.08,217.09L-41.29,228.87L-41.22,230.83L-40.43,254.15L-39.71,251.86L-39.64,251.02L-38.98,262.24L-38.91,263.09L-38.25,261.23L-38.19,260.45L-37.53,254.62L-37.07,257.66L-37,260.26L-36.67,258.25L-36.08,260.67L-35.88,260.25L-35.81,260.09L-35.48,259.57L-34.76,262.53L-34.69,262.29L-34.62,263.83L-34.09,267.62L-33.37,266.52L-33.3,265.03L-32.77,260.74L-32.05,262.07L-31.98,262.07L-30.07,241.41L-29.54,244.48L-29.47,244.67L-28.75,229.96L-28.68,228.82L-25.65,253.65L-25.58,259.18L-24.52,270.55L-24.33,268.02L-24.26,268.18L-24.06,268.99L-23.86,265.7L-23.53,266.67L-23.47,266.41L-21.29,239.43L-21.22,239.26L-21.02,240.49L-20.23,233.47L-20.1,234.95L-20.03,238.45L-19.11,256.99L-18.78,252.91L-18.71,252.92L-18.65,253.94L-18.05,251.34L-17.66,253.72L-17.59,253.9L-17.53,253.69L-17.46,256.8L-17.39,259.32L-16.87,261.79L-16.4,259.56L-16.34,259.42L-16.01,259L-14.95,263.98L-14.89,258.19L-13.57,249.34L-13.5,249.1L-13.37,248.91L-13.1,249.85L-12.77,249.4L-12.71,250.13L-12.44,249.23L-12.05,251.87L-11.98,251.57L-11.92,251.35L-11.65,249.98L-11.59,256.26L-11.12,259.18L-10.66,257.63L-10.59,258.43L-9.74,263.65L-9.6,263.32L-9.54,263.47L-9.41,263.34L-9.34,263.97L-9.21,264L-9.14,264.34L-8.88,264.12L-8.35,265.51L-8.28,264.61L-8.22,263.87L-7.56,268.18L-7.16,267.01L-7.1,265.04L-6.57,263.45L-6.5,261.86L-6.44,261.26L-6.17,262.91L-5.78,262.61L-5.71,262.42L-5.31,262.57L-4.52,257.98L-4.46,256.68L-4.32,256.39L-3.93,257.43L-3.86,257.42L-3.8,259.37L-3.27,258.94L-3.07,261.27L-2.81,260.61L-2.74,259.77L-2.48,259.15L-2.21,260.35L-2.15,260.39L-1.09,265.3L-0.69,264.69L-0.63,264.12L-0.56,263.66L-0.03,265.02L0.03,267.17L0.43,267.78L0.5,268.06L0.56,269.06L1.22,268.44L1.29,268.45L1.49,268.25L1.75,269.35L1.82,269.79L2.41,265.63L2.48,263.68L2.74,264.36L3.07,262.45L3.14,261.8L3.86,260.45L3.99,260.86L4.06,261.8L4.85,261.25L4.92,261.92L5.12,261.53L5.31,262.54L5.38,262.86L5.45,263.03L5.58,262.36L5.64,264.91L6.57,271.76L6.63,271.92L6.7,272.17L7.03,270.64L7.1,269.18L7.36,265.83L7.43,261.96L7.56,262.39L7.76,261.6L8.15,261.79L8.22,261.59L9.01,260.23L9.08,260.37L9.14,260.48L9.34,260.98L9.6,260.01L9.74,260.06L9.8,259.76L9.93,259.09L10.33,260.74L10.4,262.34L10.66,266.07L10.73,269.94L10.86,269.7L11.06,270.67L11.12,270.52L11.19,270.72L11.32,270.55L11.39,268.76L12.11,259.97L12.71,261.12L12.77,261.25L13.1,261.1L13.5,262.52L13.63,261.82L13.7,261.54L14.09,260.48L14.16,260.71L14.23,257.03L14.49,256.45L14.56,255.92L14.62,255.6L14.75,258.14L14.82,259.06L15.08,259.62L15.15,262.18L16.07,268.08L16.14,268.09L17.06,262.81L17.13,256.27L17.46,243.76L17.99,247.07L18.05,246.95L19.04,236.32L19.11,236.73L19.37,234.08L19.44,233.02L19.7,233.53L19.9,231.76L19.97,231.61L20.3,228.7L20.36,229.94L20.43,236.51L21.22,246.69L21.42,246.68L21.49,245.02L21.62,242.95L22.08,248.99L22.21,245.09L22.28,244.97L22.54,244.68L22.61,246.19L22.74,247.26L22.94,245.13L23.27,246.01L23.34,245.87L24.99,260.79L25.05,259.93L25.38,259.64L25.45,264.04L25.84,264.17L25.91,262.94L26.04,263.24L26.11,264.9L26.64,267.49L26.9,266.69L26.97,266.69L27.49,260.55L27.56,259.3L28.22,255.52L28.35,256.98L28.42,256.97L29.21,257.97L29.28,256.96L29.34,255.5L29.54,255.85L29.61,255.71L29.67,254.04L31.59,221.08L31.65,209.63L32.51,165.24L32.58,165.62L32.64,163.13L33.7,149.6L33.9,152.43L33.96,153.76L34.03,153.36L34.23,155.1L34.29,159.52L34.62,164.19L34.76,161.25L34.82,168.32L34.95,180.26L35.02,196.12L37.13,235.13L37.33,231.52L37.4,231.12L37.59,228.17L38.06,232.32L38.19,230.07L38.25,230.04L38.45,229.37L38.58,231.76L38.65,233.45L38.72,232.27L39.18,236.29L39.24,236.13L39.31,236.14L39.44,236.05L39.51,236.33L39.57,236.95L39.64,236.25L39.97,239.32L40.04,241.54L41.09,258.09L41.16,258.66L42.15,266.96L42.28,264.21L42.35,264.35L43.34,267.7L43.4,267.59L43.73,267.03L44.13,268L44.19,267.28L44.33,267.37L44.79,266.82L44.85,268.61L45.18,269.08L45.25,268.15L45.32,267.5L45.51,271.04L45.78,270.02L45.85,268.28L46.31,264.46L46.37,261.87L46.57,262.28L46.64,260.46L47.36,259.32L47.5,259.9L47.56,260.35L48.49,258.15L48.75,258.54L48.82,258.91L48.88,258.3L49.28,260.89L49.34,260.67L49.41,260.81L49.61,264.28L49.67,266.85L49.87,265.66L49.94,267.47L50.33,268.09L50.6,267.33L50.66,267.58L50.73,267.59L50.8,267.98L51.13,266.89L51.32,266.92L51.39,266.95L51.79,267.85L51.98,267.09L52.05,266.63L52.91,263.97L52.97,264.18L53.04,264.17L53.9,265.29L53.96,265.17L54.89,254.21L55.15,255.69L55.22,256.28L55.88,259.48L56.21,258.29L56.27,257.77L56.54,255.8L57.13,256.59L57.2,256.35L57.33,256.47L57.4,257.98L58.12,266.8L58.19,266.71L58.26,266.41L59.18,258.13L59.51,259.24L59.58,259.67L60.1,257.76L60.43,258.4L60.5,258.9L61.03,257.44L61.09,256.63L61.16,258.17L61.75,256.38L61.82,256.38L61.89,255.74L62.48,260.66L63.07,260.39L63.14,258.66L63.93,255.56L64,255.88L64.2,255.33L64.39,256.75L64.53,256.62L64.59,257.3L66.9,271.03L67.03,269.61L67.1,267.6L68.16,259.26L68.22,258.55L68.95,249.52L69.02,246.76L69.21,247.03L69.28,246.32L69.35,245.92L70.86,201.62L70.93,202.67L71,203.74L71.39,199.03L71.52,200.96L71.59,199.84L71.72,202.63L72.25,199.07L72.32,198.77L72.65,197.75L72.71,200.72L74.96,241.54L75.02,240.08L75.15,240.88L75.22,238.82L75.29,234.16L75.35,230.69L76.01,231.44L76.08,232.86L76.47,223.04L76.54,220.49L76.8,221.31L76.87,220.66L76.94,219.32L77.53,204.86L77.79,206.68L77.86,204.05L77.93,204.41L78.06,202.15L78.12,201.12L78.26,199.03L78.39,200.67L78.45,201.29L79.64,224.32L79.71,224.99L81.16,248.47L81.43,247.34L81.49,243.78L81.95,245.65L82.28,241.97L82.35,241.87L83.87,225.37L83.93,221.05L86.24,124L86.31,122.11L86.97,116.72L87.1,117.33L87.17,122.42L87.7,170.93L87.76,176.35L89.02,222.88L89.08,222.74L89.15,224.9L90.34,243.46L90.4,243.04L90.47,242.3L90.86,245.99L90.93,245.29L91,245.62L91.06,246.07L91.26,242.56L91.33,242.68L91.39,242.41L91.46,245.7L91.86,238.94L92.12,241.69L92.19,242.25L92.45,245.58L92.52,246.93L92.85,245.57L93.31,248.12L93.37,247.98L93.44,247.14L93.57,246.78L93.7,247.86L93.77,249.67L95.75,263.51L95.82,262.8L96.01,262.45L96.08,264.19L97,266.72L97.07,266.33L98.26,253.25L98.32,249.42L99.51,207.32L99.58,206.64L100.83,173.02L100.9,173.24L100.96,171L101.49,162.85L101.89,164.39L101.95,164.88L102.88,170.56L102.95,170.68L103.41,180.87L103.74,176.74L103.8,176.37L103.87,176.57L103.94,180.53L104.07,180.13L106.18,212.3L106.25,210.94L106.31,205.58L106.64,202.24L106.91,204.92L106.97,205.73L107.37,212.86L107.63,207.53L107.7,205.2L107.76,205.73L107.96,203.29L108.03,200.3L108.56,203.54L108.75,201.01L108.82,200.39L109.48,193.49L109.55,193.52L109.61,199.51L109.74,202.26L110.07,193.09L110.14,191.9L110.73,176.27L111.13,183.43L111.2,184.56L111.92,193.15L112.19,191.13L112.25,189.45L113.11,205.79L113.18,210.18L114.37,243.95L114.43,243.82L114.5,244.07L115.95,258.41L116.02,258.33L117.2,263.39L117.27,263.83L117.47,264.06L117.53,262.65L117.67,261.69L118.06,264.21L118.13,265.64L118.33,266.53L118.79,265.07L118.85,265.23L119.91,266.77L119.98,266.56L120.04,266.6L120.37,265.13L120.44,263.28L120.77,261.48L120.83,263.14L120.9,264.48L122.55,269.12L122.62,268.88L122.68,268.11L122.88,267.73L122.95,268.09L123.01,265.4L123.28,263.69L123.34,261.41L123.61,254.33L124.13,259.11L124.2,259.19L125.85,251.98L126.25,252.51L126.31,255.31L126.64,260L126.71,262.5L127.17,266.67L127.5,265.32L127.57,265.6L128.29,264.43L128.43,264.84L128.49,265.73L128.62,264.4L128.82,266.71L128.89,267.78L129.02,267.62L129.22,269L129.28,269.07L129.94,266.27L130.01,260.48L130.67,259.02L130.87,259.31L130.93,259.4L131.86,256.88L131.92,258.09L132.52,252.77L133.05,253.2L133.11,253.26L133.97,260.27L134.04,259.63L134.1,259.12L134.37,260.57L134.43,261.56L134.89,259.62L135.22,260.25L135.29,260.48L135.36,258.7L135.82,263.32L135.88,263.16L135.95,263.08L136.08,263.2L136.15,262.43L136.21,261.19L136.28,260.99L136.41,262.36L136.54,262.19L136.61,262.46L137.21,261.02L137.34,261.76L137.4,261.91L137.6,261.01L137.67,256.38L137.87,257.94L138,256.24L138.06,253.65L138.26,253.23L138.46,253.95L138.53,253.54L138.59,254.37L138.66,256.73L139.38,255.96L139.45,257.05L140.18,261.54L140.37,260.44L140.44,260.63L140.77,261.79L140.9,261.58L140.97,266.23L141.1,266.13L141.17,266.67L141.23,267.21L142.49,272.37L142.55,272.31L142.62,272.32L143.41,271.57L143.48,271.61L143.54,273.08L143.61,273.32L143.74,271.7L144,272.17L144.07,272.19L145.06,276.11L145.13,275.84L146.97,269.46L147.04,271L148.03,269.98L148.1,269.81L148.36,268L148.63,269.57L148.69,269.5L149.15,271.51L149.22,272.23L149.35,271.59L149.81,273.08L149.88,273.74L150.41,274.63L150.74,274.24L150.8,272.02L151.46,270.04L151.6,271.47L151.66,271.8L152.98,269.04L153.05,268.83L154.04,265.76L154.1,267.32L154.43,266.88L154.57,267.65L154.63,268.18L154.7,268.46L154.9,266.36L154.96,266.14L155.56,265.81L155.62,265.61L157.47,273.48L157.54,273.17L157.93,272.91L158.06,273.54L158.13,273.5L158.2,274.27L158.92,275.08L159.12,274.87L159.19,274.87L159.38,275.09L159.65,273.97L159.72,273.86L160.05,274.65L160.24,273.22L160.31,273.22L160.38,273.23L160.57,272.87L160.9,274.04L161.1,273.25L161.17,273.46L161.3,273.32L161.5,274.64L161.56,274.66L161.89,274.94L162.16,274.35L162.22,274.17L162.42,274.02L162.49,273.1L162.69,272.73L162.88,273.49L162.95,273.88L163.35,273.63L163.48,274.11L163.54,274.96L164.6,273.19L164.67,273.17L165.46,271.86L165.52,270.69L165.72,269.88L166.18,270.62L166.25,270.78L166.51,271.38L166.78,270.1L166.84,270.26L166.91,270.25L166.98,271.06L167.37,268.13L167.44,268.35L167.5,268.12L167.83,269.26L168.23,268.3L168.3,267.69L168.69,263.31L169.09,266.18L169.15,265.79L169.35,266.15L169.75,265.34L169.81,265.03L170.61,268.5L170.67,269.37L171.53,270.66L171.6,269.32L171.99,274.23L172.46,273.45L172.52,273.46L172.85,272.86L173.12,273.42L173.18,273.72L173.78,273.24L173.84,272.94L174.24,272.68L174.5,273.39L174.57,273.6L175.49,276.44L175.82,276.21L175.89,276.31L176.55,277.55L176.81,277.23L176.88,277.04L177.67,278.24L177.74,278.19L177.8,278.2L178.4,273.97L178.79,274.62L178.86,275.12L178.92,275.36L179.19,274.37L179.25,271.38L179.85,269.64L180.11,270.01L180.18,270.21L180.57,270.61L180.64,269.6L181.1,267.99L181.3,270.11L181.37,270.51L181.5,271.02L181.7,270.23L182.03,270.39L182.09,269.36L182.49,270.48L182.56,273.39L183.08,274.44L183.41,274.33L183.48,273.81L183.88,272.71L184.01,274.36L184.07,274.27L184.14,274.35L184.21,274.58L184.4,273.42L184.47,272.55L184.8,271.16L184.93,272.42L185,273.02L185.33,272.07L185.39,272.43L185.46,271.32L186.05,264.37L186.12,258.79L186.71,256.67L187.18,257.15L187.24,257.42L187.51,256.82L187.7,257.05L187.77,254.26L187.97,254.65L188.1,253.4L188.56,253.93L188.63,254.5L189.68,267.31L190.15,266.03L190.21,265.5L190.41,265.81L190.48,264.92L190.54,264.09L191,264.9L191.07,267.02L191.4,268.61L191.66,267.27L191.73,265.96L192.32,263.1L192.39,261.14L194.11,243.86L194.17,244.25L194.37,245.16L194.5,243.18L194.57,242.95L194.7,241.11L195.3,242.62L195.36,242.57L195.56,243.05L195.63,244.13L195.96,248.68L196.42,247.11L196.48,246.94L196.55,246.75L196.62,246.79L196.68,249.02L197.61,260.71L197.67,260.33L198.86,265.97L198.99,265.36L199.06,265.29L199.12,265.11L199.26,265.45L199.32,267.67L200.11,272.25L200.31,271.57L200.38,271.55L201.24,273.37L201.57,272.99L201.63,270.97L201.9,266.38L202.42,267.87L202.49,267.87L203.08,266.34L203.15,265.67L203.48,264.72L203.94,265.03L204.01,264.58L205.2,253.11L205.26,242.84L206.65,200.1L206.72,199.64L206.85,197.91L206.91,195.52L208.04,177.39L208.1,178.19L208.17,176.56L208.5,181.34L208.56,190.94L209.55,214.69L209.69,213.87L209.75,213.18L209.82,206.78L210.41,215.25L210.48,215.78L212.13,236.22L212.33,234.19L212.39,233.48L213.05,236.81L213.12,243.67L213.32,244.27L213.71,243.12L213.78,243.26L213.84,242.29L214.37,244.74L214.7,243.9L214.77,243.97L216.09,254.36L216.15,256.84L218.6,272.12L218.86,272.07L218.93,271.98L218.99,272.12L219.19,271.62L219.46,271.77L219.52,271.18L219.72,269.85L219.98,271.35L220.18,271.24L220.25,271.47L220.71,270.74L220.78,270.52L220.97,270.78L221.63,268.71L221.77,268.93L221.83,269.65L222.03,270.68L222.29,269.8L222.36,269.28L223.02,271.41L223.55,270.95L223.61,270.86L224.08,271.62L224.14,263.98L224.27,263.57L224.47,264.86L224.54,264.99L224.8,266.51L225.26,265.58L225.33,265.47L226.19,257.54L226.25,257.59L226.32,257.5L226.39,257.68L226.52,256.88L226.58,256.86L226.65,256L226.78,256.13L227.38,253.91L227.44,261.81L227.77,262.56L227.84,261.67L227.91,260.8L228.5,256.88L228.63,257.35L228.7,260.3L229.36,265.44L229.56,265.37L229.62,265.25L229.69,265.08L229.82,266.07L229.89,266.04L229.95,266.99L230.61,269.02L230.94,268.05L231.01,267.86L232.33,273.27L232.46,273.16L232.53,273.35L233.58,270.19L233.65,269.2L234.44,267.94L234.51,268.46L235.96,261.54L236.09,261.82L236.16,262.36L236.62,258.9L236.68,258L236.82,258.72L237.15,256.8L237.21,256.79L237.61,254.36L237.94,255.9L238,257.02L238.07,257.48L238.33,254.38L238.4,253.34L238.66,253.07L239.13,254.23L239.26,253.64L239.33,253.05L240.32,258.99L240.45,256.48L240.51,256.13L240.58,255.97L240.71,257.4L240.78,257.99L241.37,257.84L241.7,262.49L241.97,262.31L242.03,262.38L242.23,263.08L242.3,263.58L243.62,266.62L243.68,269.05L243.88,271.55L244.41,270L244.47,270.04L245.27,274.23L245.4,274.11L245.46,273.15L246.32,272.22L246.45,272.33L246.52,272.64L247.71,267.61L247.77,266.73L248.43,264.6L248.7,264.86L248.76,265.89L248.96,266.3L249.03,265.07L249.23,265.03L249.29,265.03L249.95,265.51L250.08,264.12L250.15,264.5L250.28,264.38L250.75,264.94L250.81,267.55L251.27,270.67L251.67,270.23L251.74,269.91L252.26,266.93L252.66,268.24L252.73,268.47L253.25,267.82L253.32,268.69L253.39,269.43L254.38,255.87L254.44,247.67L255.5,221.17L255.56,220.68L256.69,212.42L256.75,212.78L256.82,212.36L257.08,208.93L257.41,211.63L257.48,214.67L257.54,214.5L257.61,216.14L257.68,219.72L258.67,252.87L258.73,253.3L259.19,257.01L259.33,256.56L259.39,254.24L260.51,259.27L260.58,259.27L260.84,260.03L261.04,259.04L261.31,259.62L261.37,259.14L261.44,258.83L261.83,260.43L261.9,260.81L262.03,260.48L262.23,261.31L262.3,262.26L262.43,261.29L262.63,261.72L262.69,265.36L263.42,267.32L263.49,267.92L263.88,268.66L264.15,267.5L264.21,267.72L264.28,268.27L265.2,271.71L265.27,270.79L265.33,271.01L265.6,271.43L265.66,272.13L265.93,273.18L266.13,271.35L266.26,271.42L266.32,271.43L266.39,272L266.65,268.28L266.72,268.04L266.85,267.67L267.31,268.13L267.38,268.6L267.45,269.08L267.78,267.15L267.97,267.8L268.04,267.64L269.29,262.42L269.56,262.57L269.62,260.02L269.69,259.16L269.95,261.95L270.28,260.71L270.35,260.51L271.74,256.06L271.8,256.68L271.93,258.04L272.07,255.4L272.46,256.13L272.53,256.31L272.99,259.25L273.32,258.27L273.39,256.73L273.72,255.53L273.92,257.88L273.98,257.64L274.05,257.77L274.18,258.82L274.25,258.76L274.31,256.36L274.51,256.54L275.04,256.07L275.17,256.22L275.24,256.14L275.37,258.52L275.57,256.78L275.63,256.59L275.76,257.82L275.9,254.83L275.96,252.17L276.03,251.89L276.23,252.87L276.56,252.58L276.62,253.45L276.75,256.56L277.08,251.28L277.28,251.85L277.35,251.85L277.48,251.51L277.55,252.6L277.61,254.72L277.94,256.27L278.21,254.77L278.27,253.23L278.47,251.58L278.54,250.32L278.8,246.69L279.2,250.8L279.26,253.13L279.72,255.63L279.99,253.18L280.05,252.86L280.38,258.27L280.85,256.94L280.91,257.2L281.31,256.61L281.77,259.24L281.84,260.48L282.1,262.29L282.5,259.23L282.56,259.23L282.83,258.72L283.22,259.23L283.29,260.7L284.67,265.64L284.74,265.54L284.81,265.51L286.19,274.54L286.59,273.8L286.66,273.73L286.99,273.85L287.71,272.8L287.78,272.9L288.5,272.16L288.57,272.44L288.64,273.13L290.55,270.15L290.62,270.44L290.68,271.06L292.2,256.53L292.27,253.06L292.79,251.78L292.99,252.62L293.06,253.56L293.78,254.55L293.92,253.9L293.98,252.89L294.05,252.53L294.51,253.85L294.58,253.9L294.64,253.71L294.91,254.61L294.97,255.25L295.04,254.86L295.37,256.32L295.43,260.59L295.63,267.11L296.23,265.06L296.29,264.77L296.62,265.56L296.69,265.8L297.09,262.95L297.55,264.08L297.61,264.1L297.88,263.36L298.6,266.98L298.8,265.77L298.87,265.09L299.07,265.88L299.13,267.2L299.4,269.14L299.46,269.78L299.92,270.14L300.06,269.39L300.12,270.88L301.24,276.18L301.31,276.07L301.38,275.83L303.69,279.85L303.75,279.78L304.54,278.12L304.61,278.21L304.68,278.45L305.8,278.26L305.86,277.77L307.05,277.57L307.12,278.15L307.98,279.27L308.04,279.08L308.11,279.08L308.24,279.34L308.37,278.28L308.51,278.28L308.57,278.29L309.43,277.77L309.5,277.77L311.01,276.84L311.08,276.89L311.28,276.58L311.61,277.4L311.67,277.88L312.4,277.25L312.66,277.5L312.73,277.81L314.05,275.45L314.12,275.55L315.37,273.07L315.57,273.46L315.63,273.82L316.56,276.65L316.62,276.52L316.69,276.58L317.75,275.36L317.81,275.27L317.94,275.04L318.21,276.14L318.27,276.63L318.6,276.74L318.67,277.71L319.4,276.94L319.53,277.27L319.6,277.27L319.86,276.92L320.06,277.6L320.12,277.93L320.39,277.26L321.05,279.14L321.31,278.84L321.38,278.92L322.9,274.73L323.03,274.78L323.09,274.83L323.62,272.93L323.89,273.44L323.95,273.44L324.08,269.59L324.15,263.02L325.07,251.34L325.21,252.46L325.27,252.03L325.34,252.19L325.54,251.2L325.6,250.85L325.93,249.31L326,248.2L326.39,247.06L326.46,248.66L327.25,247.24L327.32,247.65L327.38,250.67L328.31,268.39L328.37,268.99L328.64,270.66L328.7,271.14L329.36,275.4L329.96,275.14L330.02,275.08L333.26,259.03L333.33,259.34L333.39,259.79L334.84,266.18L334.91,267.16L336.43,275.57L336.49,275.63L336.56,276.11L336.96,275.36L337.15,275.41L337.22,275.08L337.35,275.49L337.62,274.26L337.68,273.85L337.95,275.24L338.34,273.83L338.41,273.27L338.8,260.18L338.87,257.89L340.19,250.86L340.26,251.33L340.78,249.14L341.05,250.93L341.11,250.93L341.91,256.11L341.97,260.51L343.16,271.62L343.23,271.07L344.22,272.7L344.48,272.1L344.55,272L344.94,272.26L345.01,270.62L346.13,267.05L346.2,266.96L346.66,267.52L346.73,264.26L346.92,263.92L347.12,264.5L347.19,265.49L348.24,260.44L348.31,262.18L348.84,265.99L349.17,265.67L349.23,265.68L349.89,266.74L349.96,266.24L350.03,269.65L350.16,269.52L350.49,270.08L350.55,270.48L352.4,276.33L352.47,275.65L353.13,275.06L353.2,275.25L353.26,275.75L353.72,276.05L353.79,275.23L354.12,274.38L354.25,275.33L354.32,275.47L354.52,276.36L354.71,273.45L354.78,273.43L355.31,273.5L355.37,274.09L355.7,274.02L355.77,274.81L356.17,275.77L356.56,275.32L356.63,275.31L356.96,275.38L357.02,275L357.09,271.15L357.16,269.84L357.82,270.58L357.88,273.27L358.21,272.9L358.34,273.18L358.41,267.79L359.27,266.22L359.47,266.42L359.53,266.63L360.26,266.11L360.32,266.34L360.39,271L360.65,272.38L361.18,272.21L361.25,272.08L361.64,271.13L361.71,276.16L361.91,275.88L361.97,276.69L362.04,276.89L362.9,274.7L362.96,275.03L363.03,275.02L363.23,271.62L363.82,271.88L363.89,271.71L364.62,270.11L364.75,270.66L364.81,270.59L365.21,270.87L365.34,269.62L365.54,270.8L365.61,271.33L366.33,269.82L366.4,272.1L367.06,269.32L367.26,270.06L367.32,270.35L367.45,269.99L367.78,270.88L368.05,270.37L368.11,270.33L368.97,272.81L369.1,272.41L369.17,272.18L369.24,271.43L369.7,272.97L369.76,272.76L369.83,273.22L370.36,275.59L370.62,274.97L370.69,275.24L371.08,274.86L371.22,275.99L371.28,276.17L371.35,276.03L371.41,273.97L372.14,273.25L372.34,273.8L372.4,274.23L372.6,275.82L373.2,275.37L373.26,275.31L373.66,273.19L374.19,273.67L374.25,273.74L374.65,273.9L374.71,276.06L375.11,276.63L375.18,275.85L375.24,275.61L375.9,273.47L376.17,273.7L376.23,273.44L376.5,273.17L376.7,273.7L376.76,273.96L376.89,275.19L377.49,274.05L377.55,273.76L378.41,271.44L378.48,272.01L378.61,272.75L378.68,271.8L378.74,270.4L380.39,263.76L380.46,261.17L381.91,237.29L381.98,236.73L383.63,214.7L383.76,217.39L383.82,218.8L384.68,224.36L384.75,227.45L386.66,263.79L386.73,263.82L387.19,266.52L387.52,265.76L387.59,265.29L387.72,265.74L387.92,262.66L387.98,262.49L388.58,257.85L388.84,259.25L388.91,259.55L389.24,259.28L389.3,259.52L389.37,258.2L389.5,260.25L389.63,257.56L389.7,256.61L390.16,254.7L390.23,253.68L390.95,251.47L391.02,251.67L391.09,252.7L391.75,259.4L392.01,256.17L392.08,255.37L393.33,242.68L393.4,243.05L393.46,242.2L393.79,243.34L394.12,242.49L394.19,242.31L394.25,242.45L394.58,241.38L394.65,240.81L394.98,238.44L395.05,237.4L395.24,237.26L396.89,254.58L397.03,253.25L397.09,253.35L398.35,258.22L398.41,257.67L398.74,258.98L398.94,257.01L399.01,256.22L399.47,250.8L400,251.74L400.06,252.5L400.2,252.2L400.26,252.65L400.33,252.43L400.39,250.88L400.72,248.17L400.79,247.58L401.19,246.84L401.25,247.85L401.32,248.24L401.58,248.75L401.91,243L401.98,241.28L405.28,96.93L405.34,98.5L405.94,122.01L406,126.64L408.45,198.27L408.64,197.81L408.71,198.58L409.5,210.47L409.83,209.88L409.9,209.82L410.03,209.2L410.1,211.11L410.16,210.78L410.23,212.25L410.96,220.72L411.15,219.99L411.22,219.51L411.48,216.53L411.75,218.86L411.81,221.97L412.21,222.57L413.13,216.74L413.2,216.82L413.27,217.83L413.66,214.08L413.73,212.82L413.93,213.1L414.06,210.9L414.39,212.05L414.45,213.1L414.65,210.49L414.78,214.07L414.92,213.38L414.98,213.56L416.04,224.72L416.1,226.82L416.96,229.46L417.03,230.93L417.09,230.15L417.36,234.54L417.42,234.2L417.49,235.21L417.69,232.12L417.95,238.77L418.02,238.88L418.68,238.64L419.07,242.05L419.14,240.8L419.34,240.46L419.4,241.33L419.47,241.61L421.25,254.04L421.32,254.55L421.45,254.47L421.58,255.04L421.65,254.93L421.72,255.67L421.85,255.97L422.11,254.85L422.38,255.98L422.44,257.06L422.77,258.05L423.17,255.9L423.3,256.76L423.37,257.03L424.03,259.26L424.16,257.69L424.22,257.43L425.28,259.37L425.35,256.6L425.74,257.66L426.01,256.19L426.07,256.34L426.14,256.15L426.47,257.63L426.73,255.6L426.8,255.48L427.33,250.6L427.59,252.03L427.66,253.78L427.92,253.61L427.99,253.99L428.05,253.8L428.12,252.77L428.45,249.69L428.58,249.96L428.65,253.21L429.04,247.68L429.57,248.16L429.64,249.64L429.83,249.54L429.9,250.36L429.97,248.53L430.63,253.91L430.82,252.19L430.89,250.57L431.35,242.18L431.68,245.55L431.75,246.83L431.95,245.51L432.14,248.5L432.21,247.72L432.28,248.46L432.54,249.97L432.61,248.34L433,248.68L433.07,247.7L433.93,241.34L434.13,241.56L434.19,242.52L434.65,249.4L434.85,245.56L434.92,243.15L435.18,238.68L435.84,239.08L435.91,239.72L436.5,237.9L436.57,240.33L436.63,241.83L437.82,231.71L438.02,233.21L438.09,233.36L438.55,237.13L438.88,234.75L438.94,234.59L439.27,234.67L439.34,233.97L439.67,230.29L440.13,232.6L440.2,233.16L440.46,232.53L441.39,238.22L441.45,237.54L441.58,240.35L441.91,237.29L442.18,238.04L442.24,238.25L442.51,237.4L442.64,238.22L442.71,239.64L442.97,241.67L443.37,239.03L443.43,238.57L443.83,239.56L443.96,237.04L444.03,236.57L444.69,232.56L445.08,233.55L445.15,234.2L445.68,235.69L445.94,234.73L446.01,234.18L446.4,234.76L446.47,231.13L446.54,230.28L446.67,229.07L447.06,232.59L447.13,233.58L447.39,236.89L447.72,233.38L447.92,234.75L447.99,235.02L448.65,228.46L448.71,227.45L449.51,219.95L449.7,220.83L449.77,225L450.17,228.85L450.5,226.56L450.56,226.04L450.96,226.57L451.09,224.17L451.16,225.48L451.22,218.8L451.42,215.57L451.75,219L452.01,217.65L452.08,218.17L452.41,219.8L452.67,215.49L453.07,216.62L453.14,217.3L453.53,218.37L453.86,215.86L453.93,216.86L453.99,217.38L454.26,217.19L454.52,225.78L454.92,223.07L454.98,221.82L455.05,220.23L455.45,226.09L455.51,226.04L455.58,227.13L455.71,226.76L455.98,230.96L456.31,227.93L456.37,226.87L457.43,209.46L457.56,209.75L457.63,211.97L458.22,221.95L458.29,221.84L458.35,224L458.42,222.75L458.81,225.76L458.88,225.7L458.95,227.29L459.08,224.29L459.54,228.04L459.61,230.76L459.67,231.11L459.74,231.06L459.8,236L460.73,248.34L461.06,245.66L461.12,245.77L461.32,248.05L461.78,245.9L461.85,244.07L462.51,251.3L462.84,248.14L462.91,247.93L464.09,258.92L464.16,257.26L464.23,258.74L464.49,249.55L464.56,248.29L465.48,240.16L465.55,237.89L465.61,237.37L466.07,239.9L466.14,240.83L467.33,230.73L467.4,228.72L468.45,240.52L468.52,240.66L468.91,245.16L468.98,243.3L469.05,241.54L469.57,240.18L469.64,237.82L469.71,239.73L469.97,233.84L470.23,235.1L470.3,235.04L470.56,228.77L471.09,232.85L471.16,235.97L471.36,237.81L471.82,234.66L471.88,234.51L472.08,230.71L472.41,236.29L472.48,237.6L472.81,237.34L472.87,237.6L472.94,239.7L473.01,239.5L473.07,241.09L473.14,241.01L473.2,242.97L474.06,249.05L474.13,249.35L474.19,246.98L474.72,252.23L474.79,252.05L474.85,251.03L475.58,257.92L475.84,256.28L475.91,256.11L476.04,255.95L476.11,257.16L476.31,258.41L476.57,254.96L476.64,254.14L477.03,260.33L477.49,258.1L477.56,257.83L478.15,258.55L478.22,252.61L478.29,248.88L478.42,249.54L478.49,247.14L478.55,246.4L478.95,236.65L479.61,238.25L479.67,237.57L479.74,236.91L480,241.51L480.07,242.08L480.27,243.03L480.4,241.15L480.73,242.63L480.8,244.6L481.39,242.52L481.46,242.58L481.52,248.31L482.25,258.83L482.38,257.72L482.45,256.44L482.84,250.36L482.91,247.81L483.5,238.04L483.83,241.04L483.9,241.05L484.16,241.17L485.15,237.69L485.22,241.98L485.68,242.69L485.81,236.54L486.14,237.78L486.21,240.36L486.54,248.68L486.87,239.46L486.93,238.98L487.79,234.01L487.92,234.73L487.99,235.33L488.19,231.94L488.25,228.98L490.04,124.68L490.1,116.58L491.56,8.15L491.62,9.45L491.69,10.58L492.22,25.55L492.28,25.53L492.35,28.34L492.41,28.04L492.48,30.47L492.74,28.88L492.81,37.65L494.2,138.15L494.26,141.76L495.38,172.65L495.45,173.2L495.58,170.69L495.91,174.87L495.98,176.64L496.18,176.31L496.24,176.86L496.31,178.6L496.97,190.01L497.3,187.1L497.36,187.46L497.56,194.13L498.02,188.78L498.09,188.59L498.16,189.04L498.22,188.31L498.29,184.51L498.55,192.41L499.01,189.77"
                   style="vector-effect: none; fill: none; stroke: rgb(2, 119, 189); stroke-opacity: 1; stroke-width: 1.2px; opacity: 1;"
                   id="path80" />
              </g>
              <g
                 class="points"
                 id="g82" />
              <g
                 class="text"
                 id="g83" />
            </g>
          </g>
        </g>
        <g
           class="xy2"
           transform="translate(40,22)"
           clip-path="url(#clipa317daxy2plot)"
           id="g87" />
      </g>
      <path
         class="xlines-above crisp"
         d="M39,310.5H565M39,21.5H565"
         style="fill: none; stroke-width: 1px; stroke: rgb(0, 0, 0); stroke-opacity: 1;"
         id="path88" />
      <path
         class="ylines-above crisp"
         d="M39.5,22V310M564.5,22V310"
         style="fill: none; stroke-width: 1px; stroke: rgb(0, 0, 0); stroke-opacity: 1;"
         id="path89" />
      <g
         class="overlines-above"
         id="g91">
        <path
           class="xy2-x crisp"
           d="M0,0"
           style="fill: none;"
           id="path90" />
        <path
           class="xy2-y crisp"
           d="M564.5,22V310M39.5,22V310"
           style="fill: none; stroke-width: 1px; stroke: rgb(0, 0, 0); stroke-opacity: 1;"
           id="path91" />
      </g>
      <g
         class="xaxislayer-above"
         id="g104">
        <path
           class="xtick ticks crisp"
           d="M0,310v-5"
           transform="translate(123.21,0)"
           style="stroke: rgb(0, 0, 0); stroke-opacity: 1; stroke-width: 1px;"
           id="path92" />
        <path
           class="xtick ticks crisp"
           d="M0,310v-5"
           transform="translate(206.38,0)"
           style="stroke: rgb(0, 0, 0); stroke-opacity: 1; stroke-width: 1px;"
           id="path93" />
        <path
           class="xtick ticks crisp"
           d="M0,310v-5"
           transform="translate(289.56,0)"
           style="stroke: rgb(0, 0, 0); stroke-opacity: 1; stroke-width: 1px;"
           id="path94" />
        <path
           class="xtick ticks crisp"
           d="M0,310v-5"
           transform="translate(372.67,0)"
           style="stroke: rgb(0, 0, 0); stroke-opacity: 1; stroke-width: 1px;"
           id="path95" />
        <path
           class="xtick ticks crisp"
           d="M0,310v-5"
           transform="translate(455.84,0)"
           style="stroke: rgb(0, 0, 0); stroke-opacity: 1; stroke-width: 1px;"
           id="path96" />
        <path
           class="xtick ticks crisp"
           d="M0,310v-5"
           transform="translate(539.01,0)"
           style="stroke: rgb(0, 0, 0); stroke-opacity: 1; stroke-width: 1px;"
           id="path97" />
        <g
           class="xtick"
           id="g97">
          <text
             text-anchor="middle"
             x="0"
             y="320.6"
             transform="translate(40.03,0)"
             style="font-family: 'Segoe UI Semibold', 'Segoe UI', Arial; font-size: 8px; fill: rgb(0, 0, 0); fill-opacity: 1; white-space: pre; opacity: 1;"
             id="text97">1996</text>
        </g>
        <g
           class="xtick"
           id="g98">
          <text
             text-anchor="middle"
             x="0"
             y="320.6"
             transform="translate(123.21,0)"
             style="font-family: 'Segoe UI Semibold', 'Segoe UI', Arial; font-size: 8px; fill: rgb(0, 0, 0); fill-opacity: 1; white-space: pre; opacity: 1;"
             id="text98">2001</text>
        </g>
        <g
           class="xtick"
           id="g99">
          <text
             text-anchor="middle"
             x="0"
             y="320.6"
             transform="translate(206.38,0)"
             style="font-family: 'Segoe UI Semibold', 'Segoe UI', Arial; font-size: 8px; fill: rgb(0, 0, 0); fill-opacity: 1; white-space: pre; opacity: 1;"
             id="text99">2006</text>
        </g>
        <g
           class="xtick"
           id="g100">
          <text
             text-anchor="middle"
             x="0"
             y="320.6"
             transform="translate(289.56,0)"
             style="font-family: 'Segoe UI Semibold', 'Segoe UI', Arial; font-size: 8px; fill: rgb(0, 0, 0); fill-opacity: 1; white-space: pre; opacity: 1;"
             id="text100">2011</text>
        </g>
        <g
           class="xtick"
           id="g101">
          <text
             text-anchor="middle"
             x="0"
             y="320.6"
             transform="translate(372.67,0)"
             style="font-family: 'Segoe UI Semibold', 'Segoe UI', Arial; font-size: 8px; fill: rgb(0, 0, 0); fill-opacity: 1; white-space: pre; opacity: 1;"
             id="text101">2016</text>
        </g>
        <g
           class="xtick"
           id="g102">
          <text
             text-anchor="middle"
             x="0"
             y="320.6"
             transform="translate(455.84,0)"
             style="font-family: 'Segoe UI Semibold', 'Segoe UI', Arial; font-size: 8px; fill: rgb(0, 0, 0); fill-opacity: 1; white-space: pre; opacity: 1;"
             id="text102">2020</text>
        </g>
        <g
           class="xtick"
           id="g103">
          <text
             text-anchor="middle"
             x="0"
             y="320.6"
             transform="translate(539.01,0)"
             style="font-family: 'Segoe UI Semibold', 'Segoe UI', Arial; font-size: 8px; fill: rgb(0, 0, 0); fill-opacity: 1; white-space: pre; opacity: 1;"
             id="text103">2025</text>
        </g>
      </g>
      <g
         class="yaxislayer-above"
         id="g117">
        <path
           class="ytick ticks crisp"
           d="M40,0h5"
           transform="translate(0,307.93)"
           style="stroke: rgb(0, 0, 0); stroke-opacity: 1; stroke-width: 1px;"
           id="path104" />
        <path
           class="ytick ticks crisp"
           d="M40,0h5"
           transform="translate(0,261.5)"
           style="stroke: rgb(0, 0, 0); stroke-opacity: 1; stroke-width: 1px;"
           id="path105" />
        <path
           class="ytick ticks crisp"
           d="M40,0h5"
           transform="translate(0,215.06)"
           style="stroke: rgb(0, 0, 0); stroke-opacity: 1; stroke-width: 1px;"
           id="path106" />
        <path
           class="ytick ticks crisp"
           d="M40,0h5"
           transform="translate(0,168.63)"
           style="stroke: rgb(0, 0, 0); stroke-opacity: 1; stroke-width: 1px;"
           id="path107" />
        <path
           class="ytick ticks crisp"
           d="M40,0h5"
           transform="translate(0,122.19)"
           style="stroke: rgb(0, 0, 0); stroke-opacity: 1; stroke-width: 1px;"
           id="path108" />
        <path
           class="ytick ticks crisp"
           d="M40,0h5"
           transform="translate(0,75.75999999999999)"
           style="stroke: rgb(0, 0, 0); stroke-opacity: 1; stroke-width: 1px;"
           id="path109" />
        <path
           class="ytick ticks crisp"
           d="M40,0h5"
           transform="translate(0,29.32)"
           style="stroke: rgb(0, 0, 0); stroke-opacity: 1; stroke-width: 1px;"
           id="path110" />
        <g
           class="ytick"
           id="g110">
          <text
             text-anchor="end"
             x="37.4"
             y="2.8"
             transform="translate(0,307.93)"
             style="font-family: 'Segoe UI Semibold', 'Segoe UI', Arial; font-size: 8px; fill: rgb(0, 0, 0); fill-opacity: 1; white-space: pre; opacity: 1;"
             id="text110">0</text>
        </g>
        <g
           class="ytick"
           id="g111">
          <text
             text-anchor="end"
             x="37.4"
             y="2.8"
             style="font-family: 'Segoe UI Semibold', 'Segoe UI', Arial; font-size: 8px; fill: rgb(0, 0, 0); fill-opacity: 1; white-space: pre; opacity: 1;"
             transform="translate(0,261.5)"
             id="text111">100</text>
        </g>
        <g
           class="ytick"
           id="g112">
          <text
             text-anchor="end"
             x="37.4"
             y="2.8"
             style="font-family: 'Segoe UI Semibold', 'Segoe UI', Arial; font-size: 8px; fill: rgb(0, 0, 0); fill-opacity: 1; white-space: pre; opacity: 1;"
             transform="translate(0,215.06)"
             id="text112">200</text>
        </g>
        <g
           class="ytick"
           id="g113">
          <text
             text-anchor="end"
             x="37.4"
             y="2.8"
             style="font-family: 'Segoe UI Semibold', 'Segoe UI', Arial; font-size: 8px; fill: rgb(0, 0, 0); fill-opacity: 1; white-space: pre; opacity: 1;"
             transform="translate(0,168.63)"
             id="text113">300</text>
        </g>
        <g
           class="ytick"
           id="g114">
          <text
             text-anchor="end"
             x="37.4"
             y="2.8"
             style="font-family: 'Segoe UI Semibold', 'Segoe UI', Arial; font-size: 8px; fill: rgb(0, 0, 0); fill-opacity: 1; white-space: pre; opacity: 1;"
             transform="translate(0,122.19)"
             id="text114">400</text>
        </g>
        <g
           class="ytick"
           id="g115">
          <text
             text-anchor="end"
             x="37.4"
             y="2.8"
             style="font-family: 'Segoe UI Semibold', 'Segoe UI', Arial; font-size: 8px; fill: rgb(0, 0, 0); fill-opacity: 1; white-space: pre; opacity: 1;"
             transform="translate(0,75.75999999999999)"
             id="text115">500</text>
        </g>
        <g
           class="ytick"
           id="g116">
          <text
             text-anchor="end"
             x="37.4"
             y="2.8"
             style="font-family: 'Segoe UI Semibold', 'Segoe UI', Arial; font-size: 8px; fill: rgb(0, 0, 0); fill-opacity: 1; white-space: pre; opacity: 1;"
             transform="translate(0,29.32)"
             id="text116">600</text>
        </g>
      </g>
      <g
         class="overaxes-above"
         id="g132">
        <g
           class="xy2-x"
           id="g118" />
        <g
           class="xy2-y"
           id="g131">
          <path
             class="y2tick ticks crisp"
             d="M564,0h-5"
             transform="translate(0,307.93)"
             style="stroke: rgb(0, 0, 0); stroke-opacity: 1; stroke-width: 1px;"
             id="path118" />
          <path
             class="y2tick ticks crisp"
             d="M564,0h-5"
             transform="translate(0,261.5)"
             style="stroke: rgb(0, 0, 0); stroke-opacity: 1; stroke-width: 1px;"
             id="path119" />
          <path
             class="y2tick ticks crisp"
             d="M564,0h-5"
             transform="translate(0,215.06)"
             style="stroke: rgb(0, 0, 0); stroke-opacity: 1; stroke-width: 1px;"
             id="path120" />
          <path
             class="y2tick ticks crisp"
             d="M564,0h-5"
             transform="translate(0,168.63)"
             style="stroke: rgb(0, 0, 0); stroke-opacity: 1; stroke-width: 1px;"
             id="path121" />
          <path
             class="y2tick ticks crisp"
             d="M564,0h-5"
             transform="translate(0,122.19)"
             style="stroke: rgb(0, 0, 0); stroke-opacity: 1; stroke-width: 1px;"
             id="path122" />
          <path
             class="y2tick ticks crisp"
             d="M564,0h-5"
             transform="translate(0,75.75999999999999)"
             style="stroke: rgb(0, 0, 0); stroke-opacity: 1; stroke-width: 1px;"
             id="path123" />
          <path
             class="y2tick ticks crisp"
             d="M564,0h-5"
             transform="translate(0,29.32)"
             style="stroke: rgb(0, 0, 0); stroke-opacity: 1; stroke-width: 1px;"
             id="path124" />
          <g
             class="y2tick"
             id="g124">
            <text
               text-anchor="start"
               x="566.6"
               y="2.8"
               transform="translate(0,307.93)"
               style="font-family: 'Segoe UI Semibold', 'Segoe UI', Arial; font-size: 8px; fill: rgb(0, 0, 0); fill-opacity: 1; white-space: pre; opacity: 1;"
               id="text124">0</text>
          </g>
          <g
             class="y2tick"
             id="g125">
            <text
               text-anchor="start"
               x="566.6"
               y="2.8"
               style="font-family: 'Segoe UI Semibold', 'Segoe UI', Arial; font-size: 8px; fill: rgb(0, 0, 0); fill-opacity: 1; white-space: pre; opacity: 1;"
               transform="translate(0,261.5)"
               id="text125">100</text>
          </g>
          <g
             class="y2tick"
             id="g126">
            <text
               text-anchor="start"
               x="566.6"
               y="2.8"
               style="font-family: 'Segoe UI Semibold', 'Segoe UI', Arial; font-size: 8px; fill: rgb(0, 0, 0); fill-opacity: 1; white-space: pre; opacity: 1;"
               transform="translate(0,215.06)"
               id="text126">200</text>
          </g>
          <g
             class="y2tick"
             id="g127">
            <text
               text-anchor="start"
               x="566.6"
               y="2.8"
               style="font-family: 'Segoe UI Semibold', 'Segoe UI', Arial; font-size: 8px; fill: rgb(0, 0, 0); fill-opacity: 1; white-space: pre; opacity: 1;"
               transform="translate(0,168.63)"
               id="text127">300</text>
          </g>
          <g
             class="y2tick"
             id="g128">
            <text
               text-anchor="start"
               x="566.6"
               y="2.8"
               style="font-family: 'Segoe UI Semibold', 'Segoe UI', Arial; font-size: 8px; fill: rgb(0, 0, 0); fill-opacity: 1; white-space: pre; opacity: 1;"
               transform="translate(0,122.19)"
               id="text128">400</text>
          </g>
          <g
             class="y2tick"
             id="g129">
            <text
               text-anchor="start"
               x="566.6"
               y="2.8"
               style="font-family: 'Segoe UI Semibold', 'Segoe UI', Arial; font-size: 8px; fill: rgb(0, 0, 0); fill-opacity: 1; white-space: pre; opacity: 1;"
               transform="translate(0,75.75999999999999)"
               id="text129">500</text>
          </g>
          <g
             class="y2tick"
             id="g130">
            <text
               text-anchor="start"
               x="566.6"
               y="2.8"
               style="font-family: 'Segoe UI Semibold', 'Segoe UI', Arial; font-size: 8px; fill: rgb(0, 0, 0); fill-opacity: 1; white-space: pre; opacity: 1;"
               transform="translate(0,29.32)"
               id="text130">600</text>
          </g>
        </g>
      </g>
    </g>
    <g
       class="subplot xy2"
       id="g134" />
  </g>
  <g
     class="polarlayer"
     id="g136" />
  <g
     class="smithlayer"
     id="g137" />
  <g
     class="ternarylayer"
     id="g138" />
  <g
     class="geolayer"
     id="g139" />
  <g
     class="funnelarealayer"
     id="g140" />
  <g
     class="pielayer"
     id="g141" />
  <g
     class="iciclelayer"
     id="g142" />
  <g
     class="treemaplayer"
     id="g143" />
  <g
     class="sunburstlayer"
     id="g144" />
  <g
     class="glimages"
     id="g145" />
  <defs
     id="topdefs-a317da">
    <g
       class="clips"
       id="g146" />
  </defs>
  <g
     class="layer-above"
     id="g151">
    <g
       class="imagelayer"
       id="g147" />
    <g
       class="shapelayer"
       id="g150">
      <g
         class="shape-group"
         data-index="35"
         id="g148">
        <path
           data-index="35"
           fill-rule="evenodd"
           d="M71.44,29.200000000000006L102.88,29.200000000000006"
           style="opacity: 1; stroke: rgb(69, 90, 100); stroke-opacity: 1; fill: rgb(0, 0, 0); fill-opacity: 0; stroke-width: 2px;"
           id="path147" />
      </g>
      <g
         class="shape-group"
         data-index="36"
         id="g149">
        <path
           data-index="36"
           fill-rule="evenodd"
           d="M71.44,39.280000000000015L102.88,39.280000000000015"
           style="opacity: 1; stroke: rgb(2, 119, 189); stroke-opacity: 1; fill: rgb(0, 0, 0); fill-opacity: 0; stroke-width: 2px;"
           id="path148" />
      </g>
    </g>
  </g>
  <g
     class="infolayer"
     id="g173">
    <g
       class="g-gtitle"
       id="g152" />
    <g
       class="g-xtitle"
       id="g153" />
    <g
       class="g-ytitle"
       id="g154" />
    <g
       class="g-y2title"
       id="g155" />
    <g
       class="annotation"
       data-index="0"
       style="opacity: 1;"
       id="g158">
      <g
         class="annotation-text-g"
         transform="rotate(0,144.5,29.200000000000006)"
         id="g157">
        <g
           class="cursor-pointer"
           transform="translate(106,20)"
           id="g156">
          <rect
             class="bg"
             x="0.5"
             y="0.5"
             width="77"
             height="17"
             style="stroke-width: 1px; stroke: rgb(0, 0, 0); stroke-opacity: 0; fill: rgb(0, 0, 0); fill-opacity: 0;"
             id="rect155" />
          <text
             class="annotation-text"
             text-anchor="start"
             x="2"
             y="7"
             style="font-family: 'Segoe UI Semibold', 'Segoe UI', Arial; font-size: 6px; fill: rgb(0, 0, 0); fill-opacity: 1; white-space: pre;"
             id="text156"><tspan
               class="line"
               dy="0em"
               x="2"
               y="7"
               id="tspan155">US UNCERTAINTY INDEX:</tspan><tspan
               class="line"
               dy="1.3em"
               x="2"
               y="7"
               id="tspan156">ECONOMIC POLICY</tspan></text>
        </g>
      </g>
    </g>
    <g
       class="annotation"
       data-index="1"
       style="opacity: 1;"
       id="g161">
      <g
         class="annotation-text-g"
         transform="rotate(0,146.5,39.280000000000015)"
         id="g160">
        <g
           class="cursor-pointer"
           transform="translate(106,34)"
           id="g159">
          <rect
             class="bg"
             x="0.5"
             y="0.5"
             width="81"
             height="9"
             style="stroke-width: 1px; stroke: rgb(0, 0, 0); stroke-opacity: 0; fill: rgb(0, 0, 0); fill-opacity: 0;"
             id="rect158" />
          <text
             class="annotation-text"
             text-anchor="start"
             x="2"
             y="7"
             style="font-family: 'Segoe UI Semibold', 'Segoe UI', Arial; font-size: 6px; fill: rgb(0, 0, 0); fill-opacity: 1; white-space: pre;"
             id="text158">EQUITY MARKET-RELATED</text>
        </g>
      </g>
    </g>
    <g
       class="annotation"
       data-index="2"
       style="opacity: 1;"
       id="g168">
      <g
         class="annotation-text-g"
         transform="rotate(0,303.74666666666667,146.74514285714284)"
         id="g167">
        <g
           class="cursor-pointer"
           transform="translate(189,114)"
           id="g166">
          <rect
             class="bg"
             x="0.5"
             y="0.5"
             width="228"
             height="64"
             style="stroke-width: 1px; stroke: rgb(0, 0, 0); stroke-opacity: 0; fill: rgb(0, 0, 0); fill-opacity: 0;"
             id="rect161" />
          <text
             class="annotation-text"
             text-anchor="middle"
             x="114.3984375"
             y="9"
             style="font-family: 'Segoe UI Semibold', 'Segoe UI', Arial; font-size: 8px; fill: rgb(124, 45, 18); fill-opacity: 1; white-space: pre;"
             id="text166"><tspan
               class="line"
               dy="0em"
               x="114.3984375"
               y="9"
               id="tspan161">POLICY UNCERTAINTY &gt; EQUITY UNCERTAINTY  A</tspan><tspan
               class="line"
               dy="1.3em"
               x="114.3984375"
               y="9"
               id="tspan162">REPRICING RISK: THE 50-DAY MOVING AVERAGE SPREAD</tspan><tspan
               class="line"
               dy="2.6em"
               x="114.3984375"
               y="9"
               id="tspan163">SHOWS POLICY RISK RUNNING HOTTER THAN EQUITY</tspan><tspan
               class="line"
               dy="3.9000000000000004em"
               x="114.3984375"
               y="9"
               id="tspan164">VOLATILITY, IMPLYING THAT MARKETS MAY BE</tspan><tspan
               class="line"
               dy="5.2em"
               x="114.3984375"
               y="9"
               id="tspan165">UNDERPRICING TARIFF-DRIVEN POLICY SHOCKS UNTIL</tspan><tspan
               class="line"
               dy="6.5em"
               x="114.3984375"
               y="9"
               id="tspan166">HARD DATA OR EARNINGS CONFIRM PERSISTENCE.</tspan></text>
        </g>
      </g>
    </g>
    <g
       class="annotation"
       data-index="3"
       style="opacity: 1;"
       id="g172">
      <g
         class="annotation-text-g"
         transform="rotate(0,178.5,335)"
         id="g171">
        <g
           class="cursor-pointer"
           transform="translate(40,318)"
           id="g170">
          <rect
             class="bg"
             x="0.5"
             y="0.5"
             width="276"
             height="33"
             style="stroke-width: 1px; stroke: rgb(0, 0, 0); stroke-opacity: 0; fill: rgb(0, 0, 0); fill-opacity: 0;"
             id="rect168" />
          <text
             class="annotation-text"
             text-anchor="start"
             x="2"
             y="9"
             style="font-family: 'Segoe UI Semibold', 'Segoe UI', Arial; font-size: 8px; fill: rgb(0, 0, 0); fill-opacity: 1; white-space: pre;"
             id="text170"><tspan
               class="line"
               dy="0em"
               x="2"
               y="9"
               id="tspan168">* SHOWN AS 50-DAY MOVING AVERAGES.</tspan><tspan
               class="line"
               dy="1.3em"
               x="2"
               y="9"
               id="tspan169">SOURCE: FEDERAL RESERVE,GENESIS RESEARCH.</tspan><tspan
               class="line"
               dy="2.6em"
               x="2"
               y="9"
               id="tspan170">NOTE:SHADED AREAS REPRESENT NBER-DESIGNATED RECESSIONS.</tspan></text>
        </g>
      </g>
    </g>
  </g>
</svg>
