<?xml version="1.0" encoding="UTF-8" standalone="no"?>
<svg
   width="600"
   height="460"
   viewBox="0 0 600 460"
   preserveAspectRatio="xMidYMid meet"
   version="1.1"
   id="svg222"
   sodipodi:docname="GOLD 5MIN AND HAMAS HOSTAGE RELASE.svg"
   inkscape:version="1.4.2 (ebf0e940, 2025-05-08)"
   xmlns:inkscape="http://www.inkscape.org/namespaces/inkscape"
   xmlns:sodipodi="http://sodipodi.sourceforge.net/DTD/sodipodi-0.dtd"
   xmlns="http://www.w3.org/2000/svg"
   xmlns:svg="http://www.w3.org/2000/svg">
  <defs
     id="defs222" />
  <sodipodi:namedview
     id="namedview222"
     pagecolor="#ffffff"
     bordercolor="#000000"
     borderopacity="0.25"
     inkscape:showpageshadow="2"
     inkscape:pageopacity="0.0"
     inkscape:pagecheckerboard="0"
     inkscape:deskcolor="#d1d1d1"
     inkscape:zoom="1.4233333"
     inkscape:cx="315.10539"
     inkscape:cy="244.1452"
     inkscape:window-width="1368"
     inkscape:window-height="1186"
     inkscape:window-x="1192"
     inkscape:window-y="90"
     inkscape:window-maximized="0"
     inkscape:current-layer="g103" />
  <svg
     class="main-svg"
     width="600"
     height="255.0"
     style=""
     viewBox="0 0 600 250"
     x="0"
     y="0.0"
     preserveAspectRatio="xMidYMid meet"
     version="1.1"
     id="svg103">
    <rect
       x="0"
       y="0"
       width="600"
       height="250"
       style="fill: rgb(0, 0, 0); fill-opacity: 0;"
       id="rect1" />
    <defs
       id="defs-377f2e">
      <g
         class="clips"
         id="g8">
        <clipPath
           id="clip377f2exyplot"
           class="plotclip">
          <rect
             width="488"
             height="188"
             id="rect2" />
        </clipPath>
        <clipPath
           id="clip377f2exy2plot"
           class="plotclip">
          <rect
             width="488"
             height="188"
             id="rect3" />
        </clipPath>
        <clipPath
           class="axesclip"
           id="clip377f2ex">
          <rect
             x="56"
             y="0"
             width="488"
             height="250"
             id="rect4" />
        </clipPath>
        <clipPath
           class="axesclip"
           id="clip377f2ey">
          <rect
             x="0"
             y="22"
             width="600"
             height="188"
             id="rect5" />
        </clipPath>
        <clipPath
           class="axesclip"
           id="clip377f2exy">
          <rect
             x="56"
             y="22"
             width="488"
             height="188"
             id="rect6" />
        </clipPath>
        <clipPath
           class="axesclip"
           id="clip377f2ey2">
          <rect
             x="0"
             y="22"
             width="600"
             height="188"
             id="rect7" />
        </clipPath>
        <clipPath
           class="axesclip"
           id="clip377f2exy2">
          <rect
             x="56"
             y="22"
             width="488"
             height="188"
             id="rect8" />
        </clipPath>
      </g>
      <g
         class="gradients"
         id="g9" />
      <g
         class="patterns"
         id="g10" />
    </defs>
    <g
       class="bglayer"
       id="g11">
      <rect
         class="bg"
         x="56"
         y="22"
         width="488"
         height="188"
         style="fill: rgb(255, 255, 255); fill-opacity: 1; stroke-width: 0;"
         id="rect10" />
    </g>
    <g
       class="layer-below"
       id="g14">
      <g
         class="imagelayer"
         id="g12" />
      <g
         class="shapelayer"
         id="g13" />
    </g>
    <g
       class="cartesianlayer"
       id="g76"
       transform="matrix(1.0211764,0,0,1,-7.0257613,10.538642)">
      <g
         class="subplot xy"
         id="g74">
        <g
           class="layer-subplot"
           id="g17">
          <g
             class="shapelayer"
             id="g15" />
          <g
             class="imagelayer"
             id="g16" />
        </g>
        <g
           class="minor-gridlayer"
           id="g21">
          <g
             class="x"
             id="g18" />
          <g
             class="y"
             id="g19" />
          <g
             class="y2"
             id="g20" />
        </g>
        <g
           class="gridlayer"
           id="g25">
          <g
             class="x"
             id="g22" />
          <g
             class="y"
             id="g23" />
          <g
             class="y2"
             id="g24" />
        </g>
        <g
           class="zerolinelayer"
           id="g26" />
        <g
           class="layer-between"
           id="g29">
          <g
             class="shapelayer"
             id="g27" />
          <g
             class="imagelayer"
             id="g28" />
        </g>
        <path
           class="xlines-below"
           id="path29"
           d="" />
        <path
           class="ylines-below"
           id="path30"
           d="" />
        <g
           class="overlines-below"
           id="g32">
          <path
             class="xy2-x"
             id="path31"
             d="" />
          <path
             class="xy2-y"
             id="path32"
             d="" />
        </g>
        <g
           class="xaxislayer-below"
           id="g33" />
        <g
           class="yaxislayer-below"
           id="g34" />
        <g
           class="overaxes-below"
           id="g37">
          <g
             class="xy2-x"
             id="g35" />
          <g
             class="xy2-y"
             id="g36" />
        </g>
        <g
           class="overplot"
           id="g47">
          <g
             class="xy"
             transform="translate(56,22)"
             clip-path="url(#clip377f2exyplot)"
             id="g45">
            <g
               class="scatterlayer mlayer"
               id="g44">
              <g
                 class="trace scatter traceebd6e2"
                 style="opacity:1;stroke-miterlimit:2"
                 id="g43">
                <g
                   class="fills"
                   id="g38" />
                <g
                   class="errorbars"
                   id="g39" />
                <g
                   class="lines"
                   id="g40">
                  <path
                     class="js-line"
                     d="m -472.02,254.75 6.84,9.77 1.71,-7.35 0.18,-1.5 10.43,4.86 0.85,-3.52 0.18,-1.47 9.4,2.95 0.52,-3.68 0.17,-2.65 6.33,-17.52 0.17,-1.54 1.37,1.68 6.5,-2.81 0.17,0.43 0.17,0.43 20.01,-5.28 0.17,-0.45 2.4,2.55 4.1,-7.17 1.2,0.87 0.17,0.97 2.57,-1.94 2.56,7.19 1.88,-5.5 0.17,-0.85 0.35,-3.13 2.56,13.49 3.08,-6.2 0.17,1.18 8.9,-1.72 0.17,-0.8 0.17,-0.01 3.25,-1.69 2.39,4.1 0.18,1.46 0.68,5.53 5.82,-2.93 0.17,0.11 0.85,-2.12 3.25,8.13 0.86,-2.21 0.17,2.34 5.98,4.27 1.03,-0.9 0.17,-0.48 0.52,2.96 4.1,-10.37 0.86,1.99 0.17,-0.65 5.98,-7.01 0.35,0.38 0.17,0.38 1.54,3.49 1.36,-6.1 0.18,-8.54 1.54,35.19 4.61,-6.95 0.17,-2.87 2.57,-4.74 4.62,10.02 1.71,-3.51 0.17,-2.26 7.01,12.04 0.17,1.64 1.03,2.58 2.4,-13.54 1.36,1.87 0.18,-0.28 3.07,-9.1 2.74,2.41 0.17,1.16 1.88,-3.72 1.71,8.25 0.18,-0.03 0.17,1.84 0.68,15.45 4.79,-6.98 0.17,-0.25 1.54,-2.76 3.59,2.59 0.17,0.22 6.16,-0.21 0.34,0.8 0.17,0.37 3.77,1.24 0.51,-3.46 0.17,-3.51 1.88,6.35 2.4,-4.7 0.17,-1.79 3.76,-6.08 1.37,2.66 0.17,2.3 1.37,3.83 2.57,-5.66 0.34,0.56 0.17,-0.3 0.51,1.74 2.06,-4.13 1.71,0.56 0.17,-0.7 5.98,7.59 0.35,-4.62 0.17,-0.13 4.1,-12.35 1.71,3.47 0.17,0.09 10.61,-13.72 1.2,1.69 0.17,0.79 1.19,0.48 3.08,-4.89 0.69,1.66 0.17,0.86 1.71,-0.7 1.03,3.05 1.19,-3.13 0.17,-1.2 1.54,1.67 2.4,-4.82 0.68,0.34 0.17,0.73 5.65,-15.06 0.34,0.22 0.17,0.78 4.79,-4.35 0.34,0.56 0.17,0.27 1.71,7.73 2.91,-0.58 0.17,-3.5 0.35,1.26 4.1,-11.95 0.51,0.74 0.17,-0.09 5.48,-6.91 0.51,0.58 0.17,0.55 0.17,1.57 0.86,-2.58 2.56,0.41 0.18,1.53 1.36,3.77 1.2,-4.9 0.17,-0.27 4.45,-6.04 0.68,4.07 0.18,1.86 2.22,4.92 1.2,-4.42 0.17,0.33 2.05,1.2 1.03,-2.24 0.17,-1.38 0.68,-4.66 2.57,3.88 0.17,0.86 4.62,-24.36 0.51,3.64 0.17,3.66 3.59,-6.02 0.17,2.2 1.37,3.13 1.71,-3.14 0.17,-0.7 1.03,-0.85 0.86,5.45 0.17,0.39 0.51,5.42 2.22,-7.2 0.17,0.85 2.23,4.03 0.34,-2.47 0.17,-3.14 0.17,1.34 0.52,-1.18 0.17,0.48 0.17,-2.01 1.2,3.94 1.53,-1.95 0.18,1.3 1.02,15.37 2.05,-6.41 0.18,-0.78 2.22,1.69 2.05,-4.56 0.17,2.29 1.37,3.79 1.37,-2.42 0.17,-1.09 0.34,-1.35 2.91,10.04 0.51,-2.02 0.18,-2.46 0.34,2.29 1.37,-6.06 0.17,0.24 0.17,-0.31 1.02,0.63 2.57,-7.94 1.03,0.68 0.17,1.42 0.51,1.27 2.4,-4.18 0.17,0.32 0.17,-0.03 3.76,6.92 0.51,-0.94 0.17,-0.39 2.4,4.85 0.51,-2.58 0.17,-0.44 1.71,-3.17 0.69,3.55 0.17,-0.37 1.03,-3.79 1.02,5.39 0.17,0.88 0.17,-1.37 1.54,5.4 0.17,-0.56 0.18,0.46 1.19,-0.76 2.91,12.75 0.17,-1.06 0.69,-1.21 4.44,12.4 0.35,-2.62 0.17,-0.8 2.9,-9.48 0.18,0.01 0.68,-3.28 1.2,2.63 0.17,0.67 2.74,-6.71 0.17,1.27 0.51,-0.33 2.74,10.22 0.51,-0.9 0.17,-1.28 0.51,-3.96 1.03,4.24 0.34,-1.25 0.17,0.9 0.52,-1.95 1.19,4.28 0.35,-1.26 0.17,-3.15 0.34,-0.38 1.37,3.02 0.68,-1.82 0.17,0.26 1.03,-6.08 1.2,3.87 0.17,0.08 2.73,-11.55 0.35,1.58 0.17,2.3 0.68,-2.2 1.2,3.92 0.17,-1.09 0.17,-0.16 0.34,-3.65 1.71,0.77 0.17,0.35 0.18,-1.33 0.68,7.56 0.17,1.91 1.88,-6.01 0.34,0.1 0.18,-0.87 0.17,0.35 0.17,5.82 0.68,7.12 1.03,-6.26 0.17,0.67 0.68,10.31 1.03,-4.47 0.17,-2 1.03,6.31 0.51,-3.59 0.17,-2.23 0.51,2.64 1.54,-7.18 0.18,1.53 1.53,3.75 0.18,-1.11 0.17,-3.11 0.85,0.87 0.52,-0.79 0.17,-0.83 0.51,1.48 0.34,-3.5 0.17,-2.97 0.86,-4.67 0.68,1.48 0.17,0.49 0.69,5.01 1.02,-1.1 0.17,-0.77 0.52,0.32 0.51,-1.21 0.17,-0.69 0.86,3.29 0.68,-1.05 0.17,-0.89 1.03,0.44 0.17,2.09 0.17,4.42 1.2,-3.98 0.17,0.13 0.68,-1.55 0.35,3.19 0.17,-0.56 0.17,-0.73 0.85,-3.85 0.17,1.08 0.18,2.92 1.53,2.9 0.18,-0.89 0.68,1.19 0.34,-2.06 0.17,0.14 1.2,3.83 0.17,-1.05 0.17,-1 1.54,-4.81 0.17,-0.01 1.03,0.91 0.17,-1.19 0.34,-0.3 0.52,1.08 0.17,0.79 0.68,-2.95 0.51,2.28 0.18,2.23 0.68,-6.37 0.68,1.34 0.17,3.3 0.18,-0.56 0.34,1.29 0.17,1.66 2.74,-6.73 0.17,0.56 1.19,-1.94 0.18,0.92 0.17,1.07 0.68,2.05 0.51,-0.76 0.17,-0.46 0.35,-2.98 0.68,2.6 0.17,0.38 0.52,2.22 0.17,1.47 2.05,-5.17 0.17,0.91 0.17,1.26 0.69,-1.94 0.17,0.67 0.17,0.59 0.17,-2.47 0.34,1.54 0.17,-1.65 0.17,1.36 0.34,-1.7 0.18,-4.17 0.17,-1.84 0.34,5.56 0.17,-1.51 0.17,0.48 0.17,0.86 0.34,-1.99 0.18,-1.08 0.17,-0.5 0.17,-4.56 1.02,-7.39 0.17,1.64 0.18,1.23 0.51,-1.47 0.17,0.36 0.17,1.95 0.17,0.22 0.34,-0.74 0.18,-1.78 0.17,-0.15 0.17,1.22 0.17,0.62 0.17,-1.87 0.17,-0.48 0.34,-0.13 0.17,1.14 0.52,3.87 0.51,-1.57 0.17,-1.95 0.51,2.07 0.18,-0.65 0.17,-0.91 1.19,-3.5 0.17,0.68 0.18,0.2 0.17,-1.03 0.17,2.52 0.17,0.64 0.17,0.92 0.51,-1.09 0.17,-1.16 3.43,8.98 0.17,-0.67 0.17,-1.39 1.19,5.16 0.18,-2.58 0.51,-3.44 0.34,1.35 0.17,-0.5 0.34,0.11 0.52,-1.22 0.17,1.62 1.54,-1.85 0.17,1.35 0.17,0.95 0.17,-1.63 0.17,-2.05 1.37,-6.58 0.17,-1.76 0.17,-0.18 0.17,2.14 0.69,9.43 0.34,-1.87 0.17,-0.95 0.17,-0.04 0.17,-3.36 0.17,2.06 0.17,-2.36 0.18,0.26 0.17,-3.3 0.85,-6.7 0.17,0.4 0.17,1.38 0.18,1.42 0.34,-2.04 0.17,-2.34 0.34,-0.3 0.17,1.42 0.34,0.92 0.17,-1.07 0.18,-1.23 1.02,1.82 0.17,-0.94 0.17,0.48 0.18,-2.26 0.34,-1.99 0.17,-2.56 0.17,0.78 0.17,-0.37 0.17,-1.68 0.86,2.25 0.17,-0.99 0.68,1.61 0.17,-1.41 0.86,-6.4 0.17,1.32 0.17,-0.62 0.17,1.63 0.34,-1.77 0.17,-2.05 0.18,2.53 0.68,-0.18 0.17,-1.28 0.51,1.78 0.18,2.41 0.34,-0.07 0.17,2.13 0.17,0.98 0.17,-0.46 0.17,-2.72 0.34,-3.24 0.35,2.73 0.17,-0.11 0.85,-4.38 0.17,0.03 0.17,0.26 1.71,6.71 0.18,-0.16 0.17,-1.1 0.17,0.96 0.34,-1.45 0.17,-3.32 0.34,-0.02 0.17,-1.08 0.52,0.84 0.17,-1.14 0.17,0.36 0.34,-0.88 0.17,-2.13 1.37,-3.99 0.17,1.97 0.17,-0.28 0.17,1.04 0.18,0.41 1.19,6.4 0.17,-0.27 0.17,2.05 0.35,-4.15 0.17,-1.79 0.68,-3.81 0.17,0.12 0.17,2.81 0.18,-0.61 0.17,0.67 0.17,-3.43 0.17,-0.06 0.17,0.75 0.17,4.05 0.34,-4.63 0.17,1.04 0.17,-0.64 0.18,-0.09 0.17,1.06 0.51,-3.93 0.17,2.7 0.17,1.52 1.2,-4.86 0.17,0.28 0.17,0.75 0.17,1.24 0.34,-1.66 0.18,0.45 0.17,-0.2 0.34,-0.6 0.17,1.12 0.17,0.82 0.86,-2.18 0.17,1.76 0.85,1.79 0.17,-1.41 0.35,-0.34 0.51,3.24 0.17,-2.26 0.51,-1.27 0.17,2.91 0.52,-1.31 0.17,0.97 0.17,0.56 0.17,-0.11 0.17,0.92 0.34,-2.63 0.52,0.68 0.17,-0.78 0.17,-1.01 0.68,0.29 0.17,0.19 0.18,-0.72 0.68,0.27 0.17,0.26 0.68,-2.48 0.18,0.46 0.17,1.3 0.68,1.9 0.17,-1.1 0.34,0.45 0.18,-0.33 0.17,-0.96 0.17,-0.3 0.34,0.79 0.17,-0.36 0.17,0.7 0.17,-0.79 0.52,0.86 0.17,-0.26 0.68,-3.98 0.17,1.44 0.17,-3.21 0.35,-0.3 0.34,1.44 0.17,-0.99 0.34,1.17 0.86,-3.46 0.17,-0.52 0.85,-3.02 0.17,0.8 0.52,-1.99 0.17,2.05 0.17,-0.03 0.17,-0.68 0.17,2.32 0.17,-1.06 0.17,0.22 0.69,-2.2 0.17,0.6 0.17,0.74 1.71,-11.71 0.17,0.97 0.34,-0.29 0.17,1.34 0.52,-0.65 0.17,-1.15 0.51,1.28 0.17,-0.19 0.17,-1.79 0.35,1.66 0.34,-3.03 0.17,0.33 0.17,0.73 1.03,-1.3 0.17,0.8 0.17,-0.85 0.17,1.94 0.17,2.43 0.51,-4.52 0.35,0.05 0.17,3.25 0.68,6.88 0.17,-0.71 0.17,0.15 1.37,6.19 0.17,-0.33 1.2,22.02 0.17,-4.69 0.17,-2.44 0.51,0.77 0.18,4.18 0.51,8.04 0.34,-3.18 0.17,0.98 0.17,0.03 0.17,2.04 0.35,-0.3 0.17,-2.8 1.71,-6.39 0.34,1.29 0.17,1.47 0.34,2.37 0.35,-2.4 0.17,-3.92 0.17,-0.34 0.17,0.99 0.17,-0.11 0.17,0.61 0.34,0.56 0.34,-1.82 0.18,0.67 0.17,1.04 0.34,-0.24 0.17,-1.93 0.17,3.77 0.34,-5.9 0.17,0.88 0.18,2.33 0.17,-0.07 0.17,-0.94 0.17,-0.62 0.17,2.73 0.85,-9.42 0.18,2.41 0.17,0.54 0.85,-16.97 0.17,5.03 0.17,0.04 0.69,-6.39 0.17,0.15 0.17,4.96 0.86,6.45 0.17,-2.01 0.51,-0.59 0.17,0.74 0.17,-0.31 1.03,-2.99 0.17,-0.35 0.51,-1.98 0.34,1.02 0.18,0.45 0.68,-1.7 0.17,1.54 0.17,-1.43 0.34,1.12 0.18,1.86 0.17,-0.82 0.17,0.16 0.17,2.01 0.34,-0.26 0.17,-1.26 1.71,-4.28 0.17,0.07 1.37,-5.71 0.17,0.3 0.17,2.56 0.17,1.7 0.52,-1.56 0.17,-0.44 0.68,-1.78 0.17,-0.79 0.18,1.06 0.17,-1.29 0.34,0.2 0.17,-0.18 0.34,3.22 0.34,-2.18 0.17,-0.5 1.2,-1.64 0.17,0.58 1.71,-2.55 0.17,0.07 0.52,2.84 0.17,-0.67 0.17,-1.4 0.17,-0.02 0.17,0.87 0.52,1.76 0.17,-1.78 0.17,-0.84 0.85,-1.38 0.17,-1.49 0.17,0.75 0.18,-1.03 0.17,-1.06 0.17,-1.52 0.17,3.5 0.17,-0.39 0.17,1.7 0.86,-0.44 0.17,3.06 0.17,-1.52 0.17,2.03 0.51,-1.68 0.17,-0.3 0.17,-0.12 0.18,1.94 0.17,0.43 0.17,-2.64 0.85,2.14 0.35,-0.35 0.17,-0.13 0.17,0.14 0.17,1.44 0.17,0.59 0.17,-0.7 0.17,-0.99 0.51,-5.3 0.52,1.18 0.17,-0.36 0.68,3.07 0.35,-0.27 0.17,-0.09 0.68,4.25 0.17,-0.59 0.17,-2.74 0.17,0.64 0.17,-0.14 0.18,-1.66 0.17,0.05 0.17,0.93 0.17,1.79 0.34,-2.15 0.17,-2.38 0.86,-3.99 0.17,2.61 1.37,-14.72 0.17,0.92 0.17,1.9 0.51,-1.43 0.17,-0.73 0.69,-0.97 0.17,3.16 0.51,2.35 0.17,-1.67 0.17,-0.71 0.35,-1.33 0.17,1.33 0.34,1.16 0.34,-0.8 0.17,-0.44 0.52,1.75 0.17,-0.86 0.17,-0.09 0.17,-0.45 0.34,0.26 0.17,1.52 1.03,2.87 0.17,-0.85 1.2,-3.92 0.17,4.51 1.37,7.08 0.17,-2.06 0.17,4.35 0.51,-2.65 0.17,-2.69 0.52,2.6 0.17,-1.79 0.17,0.05 0.51,1.7 0.34,-0.54 0.17,-2.57 0.17,-1.62 0.35,0.47 0.17,6.33 0.68,-4.89 0.17,3.29 0.17,3.57 0.35,2.19 0.34,-1.02 0.17,-1.83 0.51,-2.5 0.17,2.3 1.03,-3.34 0.17,-0.48 1.03,0.95 0.17,-0.19 0.17,-0.21 0.17,-0.85 0.34,0.55 0.17,3.01 1.03,5.49 0.17,-1.91 0.17,-3.01 0.34,1.05 0.18,-1.84 0.34,4.05 0.34,-1.71 0.17,-0.02 0.51,-2.14 0.35,0.52 0.17,0.1 0.34,-0.42 0.17,-2.27 0.17,-0.71 0.34,1.58 0.17,1.72 0.18,2.18 0.51,-0.62 0.17,-0.67 0.17,-0.92 0.51,0.91 0.17,-0.29 0.18,-0.94 0.17,0.51 0.17,2.05 0.17,-1 0.34,1.68 0.17,0.01 1.37,-2.48 0.17,1.23 0.51,-2.15 0.18,1.56 0.17,1.67 0.34,-1.24 0.17,-1.02 1.54,3.77 0.17,-0.29 0.17,-1.4 0.34,2.83 0.17,-0.07 1.2,-5.24 0.17,0.9 0.52,-1.03 0.17,2.06 0.34,-4.9 0.34,3.19 0.17,0.24 0.69,-0.41 0.17,-1.57 0.17,0.69 0.34,-0.55 0.17,-1.11 0.34,-0.13 0.18,1.13 0.51,1.61 0.34,-0.83 0.17,-0.33 0.34,-0.27 0.52,0.83 0.17,-0.2 0.68,1.94 0.17,-0.16 0.17,-0.76 1.03,-3.04 0.17,1.18 0.51,0.16 0.18,-0.72 0.17,0.25 0.17,-0.99 0.17,-0.6 1.03,-2.05 0.17,1.99 0.51,3.86 0.17,-1.99 0.17,-2.45 0.34,-1.61 0.17,2.43 0.18,3.35 0.51,-0.81 0.17,-1.34 0.34,-0.25 0.34,1.48 0.18,-0.49 0.17,-0.46 1.54,-5.44 0.17,1.26 0.34,-1.88 0.17,1.36 0.17,0.02 1.03,-2.24 0.17,0.05 0.17,-0.17 0.17,1.94 0.34,-3.84 0.17,0.17 0.69,1.14 0.17,-1.07 0.34,1.04 0.17,-0.13 0.17,-1.65 0.86,-1.18 0.17,0.24 0.17,0.41 0.17,-0.35 0.17,-0.93 0.34,-2.08 0.18,2.01 0.17,1.91 0.17,0.67 0.34,-1.69 0.17,-0.99 0.51,2.6 0.18,-1.23 0.17,-3.24 0.17,0.46 0.17,-1.25 0.17,0.45 0.17,-1.51 0.17,-0.65 0.17,0.69 0.17,5.8 0.17,-0.11 0.18,3.45 0.85,3.74 0.17,3.14 0.52,5.45 0.17,7.28 0.51,10.04 0.34,-5.14 0.17,0.51 0.17,-0.29 0.17,1.48 0.35,-1.07 0.17,4.31 0.17,3.41 0.17,-7.05 0.34,4.11 0.17,-0.06 0.69,-8.7 0.17,1.92 0.17,0.9 0.17,0.31 0.17,-0.32 0.17,-3.16 0.34,1.33 0.18,-2.45 0.85,-1.49 0.17,1.72 0.17,-0.54 0.17,1.45 0.18,0.5 0.68,-2.71 0.17,0.5 0.17,-0.13 0.51,-0.63 0.18,-0.12 0.85,-2.2 0.17,-3.28 0.17,-0.01 0.17,1.27 0.69,-1.85 0.17,0.56 0.17,0.12 0.17,-0.45 0.34,0.9 0.17,0.06 0.18,-1.78 0.51,0.61 0.17,0.64 1.03,0.42 0.17,-0.82 0.17,-0.08 0.17,2.38 1.71,-3 0.17,0.58 1.71,-3.19 0.17,1.3 0.34,-0.58 0.52,1.62 0.17,0.92 0.17,-0.86 0.51,0.63 0.17,0.39 0.18,-1.54 0.34,1.59 0.17,0.83 0.51,3.61 0.17,-2.83 0.17,-1.28 0.35,-2.17 0.34,0.97 0.17,0.44 1.71,5.55 0.17,-1.36 0.17,0.13 0.17,1.56 0.69,5.58 0.34,-1.43 0.17,-0.41 0.17,1 0.17,-1.75 0.17,-1.19 0.35,-0.42 0.17,0.67 0.17,-0.97 1.02,1.08 0.17,0.01 1.37,-7.99 0.17,1.02 0.18,-0.43 0.34,0.72 0.17,1.72 0.85,-5.08 0.17,1.5 0.18,-1.54 0.34,2.28 0.17,-0.86 0.17,-0.41 0.51,0.3 0.17,-0.72 0.86,-2.77 0.17,0.81 0.34,-0.7 0.34,0.39 0.18,1.07 1.02,-0.77 0.17,1.02 0.34,-2.08 0.35,2.25 0.17,0.25 0.34,1.29 0.34,-1.04 0.17,0.13 0.35,0.39 0.17,-1.95 0.68,-1.64 0.17,0.48 0.17,1.08 1.03,-2.28 0.17,0.53 0.17,0.85 0.17,-0.19 0.17,1.37 0.69,3.03 0.17,-1.6 0.17,-0.01 1.03,-2.58 0.17,1.74 2.56,-13.92 0.17,0.56 0.17,-1.84 0.52,2.31 0.17,1.94 0.34,7.36 0.34,-4.84 0.17,-2.33 0.35,2.91 0.17,-0.39 0.17,-3.21 0.68,2.21 0.17,-2.21 0.17,0.41 0.18,-3.92 0.34,0.38 0.68,-2.24 0.17,-0.17 0.69,5.2 0.51,-0.16 0.17,-0.4 0.69,-1.18 0.17,1.16 0.68,-2.04 0.17,0.97 0.17,-0.1 0.35,-0.57 0.17,2.01 0.17,1.94 0.17,-2.17 0.34,0.19 0.17,-0.61 0.17,-0.02 0.17,-1.41 0.17,0.29 0.18,-1.75 0.34,-0.58 0.17,0.13 0.17,0.82 0.17,0.4 0.34,-0.28 0.17,-0.63 0.35,0.77 0.34,-0.86 0.17,-0.21 0.68,1.47 0.17,-0.75 0.18,0.05 0.51,1.82 0.34,-0.12 0.17,-0.1 0.86,-2.81 0.17,1.58 0.68,-4.65 0.34,0.38 0.18,-0.34 0.34,-0.14 0.17,-3.2 0.17,-10.86 0.51,5.07 0.17,-0.38 0.52,-0.97 0.34,0.69 0.17,0.68 0.17,-0.46 0.17,2.73 0.17,-1.04 0.17,1.41 0.18,-0.19 0.17,2.88 0.68,-2.95 0.17,1.63 0.17,1 0.17,0.12 0.18,-0.69 0.17,-2.47 0.17,-0.27 0.17,1.01 0.17,0.41 0.17,0.45 0.17,-2.01 0.51,-3.57 0.18,-2.47 0.51,-4.66 0.34,1.11 0.17,1.05 0.34,0.22 0.35,-1.78 0.17,0.61 0.17,0.5 0.17,0.12 0.17,-1.34 0.34,0.83 0.17,-1.65 0.17,1.58 0.35,-0.7 0.17,-1.5 0.85,-3.29 0.17,0.57 0.18,0.42 0.17,-0.09 0.17,-1.33 1.54,-7.65 0.17,2.57 0.68,6.25 0.17,-1.08 0.17,0.7 0.18,-1.42 0.17,1.62 0.17,-1.43 0.17,2.68 0.17,1.39 0.51,-0.84 0.17,-0.76 0.17,1.86 0.35,-1.01 0.17,-3.59 0.17,0.45 0.17,-1.29 0.17,0.03 0.51,-0.72 0.18,3.38 1.53,-10.62 0.18,0.28 0.17,-0.15 0.51,5.05 0.17,2.09 0.51,-5.89 0.52,1.32 0.17,0.06 0.34,1.73 0.17,-2.06 0.51,2.86 0.18,-1.58 0.17,0.08 0.17,-0.59 0.17,1.24 0.17,2.05 1.2,-6.05 0.17,2.6 0.17,-0.8 0.34,1.97 0.17,1.38 0.34,2.13 0.18,-0.74 0.17,-1.7 0.17,-0.09 0.17,1.9 0.34,-0.3 0.17,0.41 0.17,-1.64 0.17,1.69 0.35,-2.77 0.17,-0.2 0.51,6.96 0.34,-1.63 0.17,-1.63 0.17,-1.34 0.18,1.41 0.34,-0.74 0.17,0.62 0.34,-0.57 0.17,1.24 0.17,2.9 1.03,-10.42 0.17,-1.68 0.34,-0.27 0.17,1.18 0.17,-0.6 0.18,-4.01 0.17,-0.13 0.17,-1.82 0.85,3.95 0.17,-2.23 0.35,3.13 0.34,-1.68 0.17,-0.85 1.03,-6.54 0.17,10.16 0.85,-4.28 0.17,1.68 0.86,-3.59 0.34,0.83 0.17,1.23 0.34,2.02 0.35,-2.28 0.17,-0.43 0.17,-0.02 0.17,-1.18 0.17,-1.12 0.17,1.68 0.34,-0.41 0.17,-0.31 0.52,1.03 0.17,-0.68 0.17,-1.31 0.17,1.15 0.34,-2.05 0.17,-0.94 0.35,1.22 0.17,-0.31 0.17,-1.61 1.37,2.73 0.17,-0.38 0.17,-0.03 0.17,-0.18 0.17,0.4 0.17,0.75 0.17,0.34 0.17,-0.49 0.17,-1 0.18,-0.36 0.17,1.21 0.17,-0.94 0.17,-2.56 0.68,-4.88 0.17,1.15 0.18,1.58 0.34,4.12 0.51,-1.72 0.17,0.92 1.2,-5.2 0.17,1.47 0.17,0.32 1.37,-4.14 0.17,2.81 0.86,6.95 0.17,-0.39 0.17,-1.08 0.85,3.25 0.17,-2.12 0.69,1.34 0.17,-0.41 0.17,-1.86 1.03,-2.92 0.17,0.01 0.17,-0.09 0.17,0.87 0.34,0.21 0.34,-2.18 0.18,2.62 0.17,0.2 0.17,-2.07 0.68,-4.48 0.34,0.41 0.17,-0.58 0.69,0.61 0.17,-0.18 0.17,-0.18 0.17,0.43 0.17,-1.77 0.35,0.29 0.17,2.19 0.68,6.08 0.17,-0.71 0.17,-1.29 0.34,2.51 0.35,-1.61 0.17,-0.34 0.17,1.92 0.51,-1.37 0.17,0.49 0.17,-0.63 0.18,1.95 0.17,-0.32 1.36,6.91 0.18,1.5 0.34,-4.31 0.51,2.87 0.17,1.38 0.34,1.92 0.35,-1.35 0.17,-1.47 0.17,-2.68 0.68,0.44 0.17,0.13 0.17,0.7 0.35,-0.84 0.17,-1.25 0.51,-4.37 0.34,0.12 0.17,0.95 0.18,-0.36 0.17,0.77 0.17,1.87 0.17,0.77 0.17,-1.61 0.34,0.63 0.17,-1.14 0.34,1.17 0.18,-0.78 0.17,-1.65 0.17,1.21 0.34,-2.33 0.17,1.52 0.17,-0.21 0.34,-0.69 0.18,1.12 0.17,0.67 0.34,1.19 0.17,-4.1 1.03,-4.37 0.17,0.17 0.17,-0.44 0.34,3.23 0.34,-3 0.17,-1.61 1.2,-6.75 0.17,2.94 0.17,-1.95 0.17,5.4 0.17,0.48 0.18,0.28 0.17,-3.94 0.34,0.04 0.17,2.14 0.34,2.48 0.17,-3.01 0.17,1.46 0.18,-2.42 0.85,-4.67 0.17,0.17 0.34,2.6 0.17,-3.14 0.18,-1.27 0.17,-0.27 0.17,2.48 h 0.17 l 0.17,4.82 0.34,8.07 0.34,-1.53 0.18,-3.39 0.17,-1.7 0.17,5.81 0.34,-4.5 0.17,1.86 0.34,-5.5 0.52,2.9 0.17,-1.87 0.85,-4.24 0.17,1.77 0.52,-3.35 0.34,0.95 0.17,2.33 0.17,3.71 0.34,-4.65 0.17,0.1 0.17,0.51 0.52,1.25 0.17,-1.71 0.34,-0.27 0.69,1.99 0.17,-0.35 0.17,0.32 0.17,-0.48 0.17,-1.47 0.17,1.97 0.68,-0.5 0.18,-0.54 0.34,-0.49 0.17,0.53 0.17,-1.23 0.51,0.5 0.17,-1.07 1.54,-3.93 0.17,0.95 0.35,-0.73 0.17,1.72 1.02,-2.75 0.18,0.83 0.17,0.99 0.51,-0.81 0.17,-3.2 0.34,0.69 0.17,-1.62 0.35,0.08 0.17,-0.33 0.17,-0.41 0.17,-0.18 0.17,2.97 0.34,-0.86 0.17,-0.61 0.35,2.13 0.17,3.41 0.17,0.68 0.17,-1.8 0.17,0.59 0.17,-1.23 1.03,-5.04 0.17,-1.23 0.17,0.49 0.17,-0.15 0.17,-2.98 0.17,0.72 0.17,-1.29 0.17,1.05 0.18,-1.46 0.17,0.24 0.17,-0.49 0.17,-0.82 0.85,-3.38 0.17,0.51 0.18,1.42 2.05,-5.52 0.17,0.44 0.51,-0.61 0.17,-1.3 1.2,-7.52 0.17,0.51 0.34,-1.96 0.18,3.74 0.17,-1.14 1.02,5.79 0.17,-1.13 1.03,-4.74 0.17,0.54 0.17,0.19 0.34,-3.26 0.52,0.28 0.17,-0.19 0.85,1.5 0.17,-1.05 0.69,-2.07 0.17,0.7 0.17,-0.87 0.86,1.86 0.17,-0.51 0.17,-0.03 0.51,0.43 0.17,0.72 0.17,1.16 0.17,-2.9 0.18,-1.25 0.51,-5.34 0.51,1.82 0.17,1.16 0.35,2.36 0.17,2.72 0.17,1.2 0.34,-2.02 0.17,0.34 0.17,-0.25 1.2,2.74 0.17,-1.23 0.68,-1.99 0.18,-2.66 0.17,-2.3 0.34,0.96 0.17,4 0.17,-1.35 0.17,1.81 0.17,3.28 1.2,-8.6 0.17,1 0.17,2.1 0.69,6.6 0.17,-2.3 0.17,-1.71 0.85,-3.63 0.17,2.53 0.86,-3.77 0.17,0.09 0.34,-2.67 0.17,1.46 0.18,4.1 0.17,0.09 0.17,-3.3 0.34,1.1 0.17,-2.41 0.34,-0.15 0.52,1.59 0.17,-1.34 0.85,-6.27 0.17,0.02 0.17,-0.51 0.18,1.92 0.17,0.59 0.17,-1.53 0.17,0.25 0.17,-0.44 0.85,6.13 0.35,-1.74 0.17,-2.14 0.85,6.43 0.17,-0.53 0.18,-2.23 0.85,-1.2 0.17,0.11 0.34,-3.2 0.17,12.25 0.52,-6.84 0.34,2.68 0.17,2.22 0.17,-0.19 0.17,-3.16 0.35,-1.17 0.17,0.05 0.17,2.67 0.34,-2.8 0.51,1.56 0.17,2.12 0.35,-3.78 0.34,2.46 0.17,2.85 0.17,9.55 0.68,-3.33 0.18,-0.18 1.02,7.34 0.17,-1.24 0.17,-2.75 0.35,3.68 0.17,0.29 0.17,-2.2 0.34,4.41 0.17,2.97 1.2,-13.07 0.17,-0.15 0.68,3.75 0.35,-1.06 0.17,8.37 1.19,-15.24 0.18,0.59 0.17,5.03 1.02,9.91 0.17,-3.4 0.35,3.65 0.17,-4.97 1.02,-4.12 0.17,1.66 0.18,0.13 0.85,-4.9 0.17,0.66 0.17,0.18 0.17,0.09 0.17,-1.66 0.18,0.07 0.17,-2.16 0.17,-0.24 0.17,-2.28 1.03,-1.63 0.17,0.55 0.34,1.46 0.34,-0.35 0.17,-0.99 0.17,-0.1 0.17,-1.89 0.52,2.8 0.17,-0.17 0.17,-1.31 0.85,2.16 0.18,2.78 0.17,-2.24 0.34,3.2 0.17,1.48 0.34,0.88 0.17,-2.62 0.17,-0.92 0.17,2.85 0.18,0.02 0.17,-2.15 0.51,2.09 0.17,-0.94 1.2,-4.35 0.17,0.34 1.03,-2.7 0.17,1.17 0.17,-2.11 0.17,2.87 0.34,-0.73 0.17,-0.76 0.69,1.84 0.34,-0.53 0.17,-0.17 0.68,-0.18 0.17,-0.72 0.69,0.1 0.17,-1.1 0.34,-2.25 0.17,2.2 0.17,0.73 0.52,2.82 0.17,-0.71 0.17,-2.18 0.51,-3.71 0.34,0.8 0.18,1.24 0.17,-0.38 0.17,1.24 0.17,0.53 0.17,0.9 0.34,-1.74 0.17,0.21 1.2,-8.94 0.17,1.85 0.17,-2.72 0.34,5.68 0.18,2.67 0.68,15.82 0.17,-3.28 0.17,-2.66 0.86,12.86 0.17,-5.05 0.17,1.34 0.34,-8.63 0.51,1.86 0.18,-1.25 0.17,-1.71 0.17,4.04 0.17,3.05 0.51,4.84 0.17,-3.77 0.17,-0.1 0.18,0.07 0.17,-2.53 0.17,-1.49 0.34,3.25 0.17,3.34 0.17,-1.11 0.17,8.24 0.86,18.11 0.17,-1.23 0.17,1.95 0.17,9.02 0.51,-4.06 0.18,-0.19 0.85,5.5 0.17,-1.59 0.17,-3.61 0.34,-5.54 0.35,2.89 0.17,2.19 0.17,-0.71 0.17,1.91 0.17,-0.98 0.17,1.4 0.17,-0.03 0.17,-1.7 1.2,-13.29 0.17,1.65 0.34,2.34 0.18,1.37 0.51,-3.38 0.34,0.85 0.17,0.57 0.17,-0.23 0.17,0.44 0.17,0.69 0.69,-1.69 0.17,1.35 0.17,4.05 0.34,-6.88 0.17,4.68 0.18,-0.13 0.51,-2.75 0.51,0.88 0.17,0.41 0.17,-0.08 0.17,-1.08 0.86,-6.91 0.17,1.19 0.17,-1.21 0.34,0.65 0.69,-2.47 0.17,-0.18 0.17,0.47 0.34,-1.11 0.17,-0.48 0.69,5.56 0.17,-0.36 0.17,3.67 0.34,-1.74 0.34,5.86 0.18,-1.51 0.17,-2.21 0.17,-0.57 0.17,3.39 0.85,-6.79 0.17,0.33 0.18,-1.12 0.17,0.26 0.17,1.64 0.17,-0.56 0.17,1.94 0.17,1.2 0.86,5.56 0.17,-0.41 0.17,-1.48 1.37,14.75 0.17,-4.71 0.17,0.15 1.37,-7.62 0.17,-1.58 0.34,-2.92 0.34,1.81 0.17,0.44 0.17,2.56 0.18,-4.27 0.34,1.07 0.17,-0.96 0.34,3.27 0.51,-1.61 0.18,0.14 0.51,-0.54 0.17,1.71 0.68,9.11 0.35,-4.29 0.17,-0.79 0.34,0.28 1.03,-9.39 0.17,-4.43 0.17,-1.61 0.68,0.54 0.17,0.13 1.2,-8.23 0.17,5.19 1.03,-6.61 0.17,2.81 0.68,3.32 0.17,-0.22 0.17,-1.47 0.86,-1.98 0.17,2.93 0.17,0.13 0.17,-1.86 0.17,-0.97 0.52,0.91 0.17,0.09 1.02,5.97 0.18,-0.67 0.17,-0.44 0.17,0.34 0.17,-2.66 1.03,6.51 0.17,-3.62 0.34,4.34 0.17,-4.36 0.17,0.3 0.68,-4.64 0.35,1.12 0.17,6.64 0.51,4.92 0.17,-4.01 0.17,0.06 0.17,-2.33 0.35,0.74 0.34,-2.64 0.17,3.15 1.54,-20.59 0.17,2.92 0.17,-1.53 0.17,4.02 0.17,2.87 0.17,0.28 0.18,2.71 0.51,4.58 0.17,7.38 0.51,-9.55 0.34,4.44 0.18,0.07 0.51,3.76 0.17,2.26 1.03,-8.31 0.17,0.67 0.17,0.54 0.34,-1.12 0.17,0.25 0.17,-2.25 0.52,-7.87 0.17,1.55 0.17,4.49 0.34,0.76 0.17,-2.76 0.17,-0.13 0.17,0.58 0.17,0.2 1.2,-7.47 0.17,-4.26 1.03,7.38 0.17,-1.77 0.17,-2.33 0.69,0.23 0.17,0.77 0.17,-4.81 0.17,0.62"
                     style="opacity:1;vector-effect:none;fill:none;stroke:#455a64;stroke-width:1.2px;stroke-opacity:1"
                     id="path39" />
                </g>
                <g
                   class="points"
                   id="g41" />
                <g
                   class="text"
                   id="g42" />
              </g>
            </g>
          </g>
          <g
             class="xy2"
             transform="translate(56,22)"
             clip-path="url(#clip377f2exy2plot)"
             id="g46" />
        </g>
        <path
           class="xlines-above crisp"
           d="M 55,210.5 H 545 M 55,21.5 h 490"
           style="fill:none;stroke:#000000;stroke-width:1px;stroke-opacity:1"
           id="path47" />
        <path
           class="ylines-above crisp"
           d="M 55.5,22 V 210 M 544.5,22 V 210"
           style="fill:none;stroke:#000000;stroke-width:1px;stroke-opacity:1"
           id="path48" />
        <g
           class="overlines-above"
           id="g50">
          <path
             class="xy2-x crisp"
             d="M 0,0"
             style="fill:none"
             id="path49" />
          <path
             class="xy2-y crisp"
             d="M 544.5,22 V 210 M 55.5,22 v 188"
             style="fill:none;stroke:#000000;stroke-width:1px;stroke-opacity:1"
             id="path50" />
        </g>
        <g
           class="yaxislayer-above"
           id="g66">
          <path
             class="ytick ticks crisp"
             d="m 56,0 h 5"
             transform="translate(0,183.03)"
             style="stroke:#000000;stroke-width:1px;stroke-opacity:1"
             id="path61" />
          <path
             class="ytick ticks crisp"
             d="m 56,0 h 5"
             transform="translate(0,122.71)"
             style="stroke:#000000;stroke-width:1px;stroke-opacity:1"
             id="path62" />
          <path
             class="ytick ticks crisp"
             d="m 56,0 h 5"
             transform="translate(0,62.39)"
             style="stroke:#000000;stroke-width:1px;stroke-opacity:1"
             id="path63" />
          <g
             class="ytick"
             id="g63">
            <text
               text-anchor="end"
               x="53.400002"
               y="2.8"
               transform="translate(0,183.03)"
               style="font-size:8px;font-family:'Segoe UI Semibold', 'Segoe UI', Arial;white-space:pre;opacity:1;fill:#000000;fill-opacity:1"
               id="text63">3800</text>
          </g>
          <g
             class="ytick"
             id="g64">
            <text
               text-anchor="end"
               x="53.400002"
               y="2.8"
               style="font-size:8px;font-family:'Segoe UI Semibold', 'Segoe UI', Arial;white-space:pre;opacity:1;fill:#000000;fill-opacity:1"
               transform="translate(0,122.71)"
               id="text64">3900</text>
          </g>
          <g
             class="ytick"
             id="g65">
            <text
               text-anchor="end"
               x="53.400002"
               y="2.8"
               style="font-size:8px;font-family:'Segoe UI Semibold', 'Segoe UI', Arial;white-space:pre;opacity:1;fill:#000000;fill-opacity:1"
               transform="translate(0,62.39)"
               id="text65">4000</text>
          </g>
        </g>
        <g
           class="overaxes-above"
           id="g73">
          <g
             class="xy2-x"
             id="g67" />
          <g
             class="xy2-y"
             id="g72">
            <path
               class="y2tick ticks crisp"
               d="m 544,0 h -5"
               transform="translate(0,183.03)"
               style="stroke:#000000;stroke-width:1px;stroke-opacity:1"
               id="path67" />
            <path
               class="y2tick ticks crisp"
               d="m 544,0 h -5"
               transform="translate(0,122.71)"
               style="stroke:#000000;stroke-width:1px;stroke-opacity:1"
               id="path68" />
            <path
               class="y2tick ticks crisp"
               d="m 544,0 h -5"
               transform="translate(0,62.39)"
               style="stroke:#000000;stroke-width:1px;stroke-opacity:1"
               id="path69" />
            <g
               class="y2tick"
               id="g69">
              <text
                 text-anchor="start"
                 x="546.59998"
                 y="2.8"
                 transform="translate(0,183.03)"
                 style="font-size:8px;font-family:'Segoe UI Semibold', 'Segoe UI', Arial;white-space:pre;opacity:1;fill:#000000;fill-opacity:1"
                 id="text69">3800</text>
            </g>
            <g
               class="y2tick"
               id="g70">
              <text
                 text-anchor="start"
                 x="546.59998"
                 y="2.8"
                 style="font-size:8px;font-family:'Segoe UI Semibold', 'Segoe UI', Arial;white-space:pre;opacity:1;fill:#000000;fill-opacity:1"
                 transform="translate(0,122.71)"
                 id="text70">3900</text>
            </g>
            <g
               class="y2tick"
               id="g71">
              <text
                 text-anchor="start"
                 x="546.59998"
                 y="2.8"
                 style="font-size:8px;font-family:'Segoe UI Semibold', 'Segoe UI', Arial;white-space:pre;opacity:1;fill:#000000;fill-opacity:1"
                 transform="translate(0,62.39)"
                 id="text71">4000</text>
            </g>
          </g>
        </g>
      </g>
      <g
         class="subplot xy2"
         id="g75" />
    </g>
    <g
       class="polarlayer"
       id="g77" />
    <g
       class="smithlayer"
       id="g78" />
    <g
       class="ternarylayer"
       id="g79" />
    <g
       class="geolayer"
       id="g80" />
    <g
       class="funnelarealayer"
       id="g81" />
    <g
       class="pielayer"
       id="g82" />
    <g
       class="iciclelayer"
       id="g83" />
    <g
       class="treemaplayer"
       id="g84" />
    <g
       class="sunburstlayer"
       id="g85" />
    <g
       class="glimages"
       id="g86" />
    <defs
       id="topdefs-377f2e">
      <g
         class="clips"
         id="g87" />
    </defs>
    <g
       class="infolayer"
       id="g103">
      <g
         class="g-gtitle"
         id="g92" />
      <g
         class="g-xtitle"
         id="g93" />
      <g
         class="g-ytitle"
         id="g94" />
      <g
         class="g-y2title"
         id="g95" />
      <g
         class="annotation"
         data-index="0"
         style="opacity:1"
         id="g98"
         transform="translate(-60.421546)">
        <g
           class="annotation-text-g"
           id="g97">
          <g
             class="cursor-pointer"
             transform="translate(124,34)"
             id="g96">
            <rect
               class="bg"
               x="0.5"
               y="0.5"
               width="20"
               height="9"
               style="fill:#000000;fill-opacity:0;stroke:#000000;stroke-width:1px;stroke-opacity:0"
               id="rect95" />
            <text
               class="annotation-text"
               text-anchor="start"
               x="2"
               y="7"
               style="font-size:6px;font-family:'Segoe UI Semibold', 'Segoe UI', Arial;white-space:pre;fill:#000000;fill-opacity:1"
               id="text95">GOLD*</text>
          </g>
        </g>
      </g>
      <g
         class="annotation"
         data-index="1"
         style="opacity:1"
         id="g102"
         transform="translate(-1.4051522,-0.70257611)">
        <g
           class="annotation-text-g"
           id="g101">
          <g
             class="cursor-pointer"
             transform="translate(178,34)"
             id="g100">
            <rect
               class="bg"
               x="0.5"
               y="0.5"
               width="186"
               height="33"
               style="fill:#000000;fill-opacity:0;stroke:#000000;stroke-width:1px;stroke-opacity:0"
               id="rect98" />
            <text
               class="annotation-text"
               text-anchor="middle"
               x="93.726562"
               y="9"
               style="font-size:8px;font-family:'Segoe UI Semibold', 'Segoe UI', Arial;white-space:pre;fill:#7c2d12;fill-opacity:1"
               id="text100"><tspan
                 class="line"
                 dy="0em"
                 x="93.726562"
                 y="9"
                 id="tspan98">GOLD PEAKED ABOVE $4 000 AS PEACE</tspan><tspan
                 class="line"
                 dy="1.3em"
                 x="93.726562"
                 y="9"
                 id="tspan99">HEADLINES BROKE, THEN HELD FIRM EVEN AS</tspan><tspan
                 class="line"
                 dy="2.5999999em"
                 x="93.726562"
                 y="9"
                 id="tspan100">TARIFF-RELATED RISKS RESURFACED.</tspan></text>
          </g>
        </g>
      </g>
    </g>
  </svg>
  <svg
     class="main-svg"
     width="600"
     height="255.0"
     style=""
     viewBox="0 0 600 250"
     x="0"
     y="205.0"
     preserveAspectRatio="xMidYMid meet"
     version="1.1"
     id="svg221">
    <rect
       x="0"
       y="0"
       width="600"
       height="250"
       style="fill: rgb(0, 0, 0); fill-opacity: 0;"
       id="rect103" />
    <defs
       id="defs-097796">
      <g
         class="clips"
         id="g110">
        <clipPath
           id="clip097796xyplot"
           class="plotclip">
          <rect
             width="500"
             height="182"
             id="rect104" />
        </clipPath>
        <clipPath
           id="clip097796xy2plot"
           class="plotclip">
          <rect
             width="500"
             height="182"
             id="rect105" />
        </clipPath>
        <clipPath
           class="axesclip"
           id="clip097796x">
          <rect
             x="50"
             y="0"
             width="500"
             height="250"
             id="rect106" />
        </clipPath>
        <clipPath
           class="axesclip"
           id="clip097796y">
          <rect
             x="0"
             y="28"
             width="600"
             height="182"
             id="rect107" />
        </clipPath>
        <clipPath
           class="axesclip"
           id="clip097796xy">
          <rect
             x="50"
             y="28"
             width="500"
             height="182"
             id="rect108" />
        </clipPath>
        <clipPath
           class="axesclip"
           id="clip097796y2">
          <rect
             x="0"
             y="28"
             width="600"
             height="182"
             id="rect109" />
        </clipPath>
        <clipPath
           class="axesclip"
           id="clip097796xy2">
          <rect
             x="50"
             y="28"
             width="500"
             height="182"
             id="rect110" />
        </clipPath>
      </g>
      <g
         class="gradients"
         id="g111" />
      <g
         class="patterns"
         id="g112" />
    </defs>
    <g
       class="bglayer"
       id="g113">
      <rect
         class="bg"
         x="50"
         y="28"
         width="500"
         height="182"
         style="fill: rgb(255, 255, 255); fill-opacity: 1; stroke-width: 0;"
         id="rect112" />
    </g>
    <g
       class="layer-below"
       id="g116">
      <g
         class="imagelayer"
         id="g114" />
      <g
         class="shapelayer"
         id="g115" />
    </g>
    <g
       class="cartesianlayer"
       id="g184">
      <g
         class="subplot xy"
         id="g182">
        <g
           class="layer-subplot"
           id="g119">
          <g
             class="shapelayer"
             id="g117" />
          <g
             class="imagelayer"
             id="g118" />
        </g>
        <g
           class="minor-gridlayer"
           id="g123">
          <g
             class="x"
             id="g120" />
          <g
             class="y"
             id="g121" />
          <g
             class="y2"
             id="g122" />
        </g>
        <g
           class="gridlayer"
           id="g127">
          <g
             class="x"
             id="g124" />
          <g
             class="y"
             id="g125" />
          <g
             class="y2"
             id="g126" />
        </g>
        <g
           class="zerolinelayer"
           id="g128" />
        <g
           class="layer-between"
           id="g131">
          <g
             class="shapelayer"
             id="g129" />
          <g
             class="imagelayer"
             id="g130" />
        </g>
        <path
           class="xlines-below"
           id="path131" />
        <path
           class="ylines-below"
           id="path132" />
        <g
           class="overlines-below"
           id="g134">
          <path
             class="xy2-x"
             id="path133" />
          <path
             class="xy2-y"
             id="path134" />
        </g>
        <g
           class="xaxislayer-below"
           id="g135" />
        <g
           class="yaxislayer-below"
           id="g136" />
        <g
           class="overaxes-below"
           id="g139">
          <g
             class="xy2-x"
             id="g137" />
          <g
             class="xy2-y"
             id="g138" />
        </g>
        <g
           class="overplot"
           id="g149">
          <g
             class="xy"
             transform="translate(50,28)"
             clip-path="url(#clip097796xyplot)"
             id="g147">
            <g
               class="scatterlayer mlayer"
               id="g146">
              <g
                 class="trace scatter trace6dd207"
                 style="stroke-miterlimit: 2; opacity: 1;"
                 id="g145">
                <g
                   class="fills"
                   id="g140" />
                <g
                   class="errorbars"
                   id="g141" />
                <g
                   class="lines"
                   id="g142">
                  <path
                     class="js-line"
                     d="M0.34,152.19L1.97,161.6L3.59,149.37L5.22,149.37L6.84,151.25L8.47,144.66L10.09,146.54L16.59,146.54L18.22,148.42L19.84,150.31L21.47,150.31L23.09,160.66L24.72,163.49L27.97,159.72L29.59,140.89L31.22,129.6L32.84,130.54L34.47,153.13L36.09,153.13L39.35,155.96L40.97,155.96L42.6,155.01L44.22,155.96L45.85,155.96L47.47,155.01L55.6,155.01L57.22,154.07L58.85,155.96L60.47,152.19L63.72,143.72L65.35,142.78L66.97,146.54L68.6,145.6L73.48,154.07L75.1,152.19L76.73,150.31L78.35,155.01L86.48,155.01L88.1,155.96L89.73,155.96L91.35,156.9L92.98,155.96L94.6,157.84L102.73,157.84L104.35,158.78L105.98,160.66L107.6,160.66L109.23,161.6L110.86,168.19L114.11,168.19L115.73,167.25L118.98,164.43L120.61,163.49L122.23,167.25L123.86,169.13L127.11,169.13L128.73,167.25L131.98,169.13L133.61,169.13L135.23,167.25L136.86,169.13L151.49,169.13L153.11,171.02L156.36,171.02L157.99,169.13L161.24,171.02L162.86,171.02L169.36,171.02L170.99,169.13L175.86,169.13L177.49,171.02L179.11,172.9L180.74,172.9L182.37,171.96L183.99,168.19L185.62,167.25L187.24,167.25L188.87,167.25L190.49,149.37L192.12,147.48L193.74,149.37L195.37,144.66L196.99,152.19L198.62,143.72L200.24,125.83L201.87,137.13L203.49,126.77L205.12,113.59L206.74,130.54L208.37,132.42L209.99,120.18L211.62,147.48L213.24,148.42L216.5,129.6L218.12,131.48L219.75,136.19L221.37,135.24L223,135.24L224.62,129.6L226.25,125.83L227.87,131.48L229.5,130.54L231.12,123.01L232.75,107.94L234.37,120.18L236,113.59L237.62,120.18L239.25,119.24L240.87,123.01L242.5,129.6L244.12,128.66L245.75,128.66L247.37,129.6L249,129.6L250.62,128.66L253.88,123.01L255.5,118.3L258.75,114.53L260.38,115.48L262,118.3L263.63,116.42L265.25,115.48L266.88,117.36L268.5,113.59L270.13,113.59L271.75,115.48L273.38,115.48L275,115.48L276.63,112.65L278.25,112.65L279.88,115.48L281.5,113.59L283.13,113.59L284.75,110.77L286.38,103.24L288.01,105.12L289.63,109.83L291.26,110.77L292.88,110.77L296.13,110.77L297.76,109.83L299.38,106.06L301.01,107L302.63,105.12L304.26,107.94L305.88,108.89L307.51,112.65L309.13,112.65L310.76,107L312.38,110.77L314.01,110.77L317.26,110.77L318.88,112.65L323.76,118.3L325.39,118.3L327.01,120.18L328.64,120.18L330.26,120.18L331.89,121.12L333.51,127.71L335.14,126.77L336.76,125.83L338.39,125.83L341.64,135.24L343.26,133.36L344.89,129.6L346.51,130.54L348.14,131.48L349.76,123.95L351.39,120.18L353.01,122.07L354.64,122.07L356.26,123.95L359.52,123.95L361.14,125.83L362.77,125.83L364.39,124.89L366.02,124.89L367.64,118.3L369.27,107L370.89,110.77L372.52,112.65L374.14,112.65L375.77,112.65L377.39,107L379.02,103.24L380.64,97.59L382.27,80.64L383.89,80.64L385.52,75L387.14,62.76L388.77,47.7L390.39,17.57L392.02,26.04L393.64,17.57L396.9,24.16L398.52,17.57L400.15,19.46L401.77,24.16L403.4,17.57L405.02,21.34L406.65,18.51L408.27,19.46L409.9,19.46L411.52,20.4L413.15,18.51L414.77,18.51L416.4,16.63L418.02,16.63L419.65,14.75L421.27,18.51L422.9,18.51L424.52,20.4L431.03,20.4L432.65,18.51L434.28,19.46L435.9,18.51L437.53,17.57L439.15,18.51L442.4,18.51L444.03,17.57L445.65,17.57L447.28,16.63L448.9,18.51L450.53,18.51L453.78,18.51L455.4,14.75L457.03,13.81L458.65,14.75L460.28,9.1L461.9,9.1L463.53,10.98L465.15,9.1L466.78,14.75L468.41,15.69L470.03,13.81L471.66,13.81L473.28,14.75L474.91,14.75L478.16,10.98L479.78,10.98L481.41,13.81L483.03,12.87L484.66,13.81L486.28,12.87L487.91,14.75L489.53,12.87L491.16,12.87L492.78,13.81L494.41,15.69L496.03,15.69L497.66,16.63L499.28,16.63L500.91,13.81L502.54,14.75L504.16,12.87L505.79,12.87L510.66,10.98L512.29,10.98L517.16,10.98L518.79,12.87L520.41,12.87L522.04,10.98L523.66,10.98"
                     style="vector-effect: none; fill: none; stroke: rgb(69, 90, 100); stroke-opacity: 1; stroke-width: 1.2px; opacity: 1;"
                     id="path141" />
                </g>
                <g
                   class="points"
                   id="g143" />
                <g
                   class="text"
                   id="g144" />
              </g>
            </g>
          </g>
          <g
             class="xy2"
             transform="translate(50,28)"
             clip-path="url(#clip097796xy2plot)"
             id="g148" />
        </g>
        <path
           class="xlines-above crisp"
           d="M49,210.5H551M49,27.5H551"
           style="fill: none; stroke-width: 1px; stroke: rgb(0, 0, 0); stroke-opacity: 1;"
           id="path149" />
        <path
           class="ylines-above crisp"
           d="M49.5,28V210M550.5,28V210"
           style="fill: none; stroke-width: 1px; stroke: rgb(0, 0, 0); stroke-opacity: 1;"
           id="path150" />
        <g
           class="overlines-above"
           id="g152">
          <path
             class="xy2-x crisp"
             d="M0,0"
             style="fill: none;"
             id="path151" />
          <path
             class="xy2-y crisp"
             d="M550.5,28V210M49.5,28V210"
             style="fill: none; stroke-width: 1px; stroke: rgb(0, 0, 0); stroke-opacity: 1;"
             id="path152" />
        </g>
        <g
           class="xaxislayer-above"
           id="g163">
          <path
             class="xtick ticks crisp"
             d="M0,210v-5"
             transform="translate(142.98000000000002,0)"
             style="stroke: rgb(0, 0, 0); stroke-opacity: 1; stroke-width: 1px;"
             id="path153" />
          <path
             class="xtick ticks crisp"
             d="M0,210v-5"
             transform="translate(237.24,0)"
             style="stroke: rgb(0, 0, 0); stroke-opacity: 1; stroke-width: 1px;"
             id="path154" />
          <path
             class="xtick ticks crisp"
             d="M0,210v-5"
             transform="translate(329.88,0)"
             style="stroke: rgb(0, 0, 0); stroke-opacity: 1; stroke-width: 1px;"
             id="path155" />
          <path
             class="xtick ticks crisp"
             d="M0,210v-5"
             transform="translate(424.14,0)"
             style="stroke: rgb(0, 0, 0); stroke-opacity: 1; stroke-width: 1px;"
             id="path156" />
          <path
             class="xtick ticks crisp"
             d="M0,210v-5"
             transform="translate(518.4100000000001,0)"
             style="stroke: rgb(0, 0, 0); stroke-opacity: 1; stroke-width: 1px;"
             id="path157" />
          <g
             class="xtick"
             id="g157">
            <text
               text-anchor="middle"
               x="0"
               y="220.6"
               transform="translate(50.34,0)"
               style="font-family: 'Segoe UI Semibold', 'Segoe UI', Arial; font-size: 8px; fill: rgb(0, 0, 0); fill-opacity: 1; white-space: pre; opacity: 1;"
               id="text157">28 Sep 2025</text>
          </g>
          <g
             class="xtick"
             id="g158">
            <text
               text-anchor="middle"
               x="0"
               y="220.6"
               transform="translate(142.98000000000002,0)"
               style="font-family: 'Segoe UI Semibold', 'Segoe UI', Arial; font-size: 8px; fill: rgb(0, 0, 0); fill-opacity: 1; white-space: pre; opacity: 1;"
               id="text158">01 Oct 2025</text>
          </g>
          <g
             class="xtick"
             id="g159">
            <text
               text-anchor="middle"
               x="0"
               y="220.6"
               transform="translate(237.24,0)"
               style="font-family: 'Segoe UI Semibold', 'Segoe UI', Arial; font-size: 8px; fill: rgb(0, 0, 0); fill-opacity: 1; white-space: pre; opacity: 1;"
               id="text159">03 Oct 2025</text>
          </g>
          <g
             class="xtick"
             id="g160">
            <text
               text-anchor="middle"
               x="0"
               y="220.6"
               transform="translate(329.88,0)"
               style="font-family: 'Segoe UI Semibold', 'Segoe UI', Arial; font-size: 8px; fill: rgb(0, 0, 0); fill-opacity: 1; white-space: pre; opacity: 1;"
               id="text160">06 Oct 2025</text>
          </g>
          <g
             class="xtick"
             id="g161">
            <text
               text-anchor="middle"
               x="0"
               y="220.6"
               transform="translate(424.14,0)"
               style="font-family: 'Segoe UI Semibold', 'Segoe UI', Arial; font-size: 8px; fill: rgb(0, 0, 0); fill-opacity: 1; white-space: pre; opacity: 1;"
               id="text161">08 Oct 2025</text>
          </g>
          <g
             class="xtick"
             id="g162">
            <text
               text-anchor="middle"
               x="0"
               y="220.6"
               transform="translate(518.4100000000001,0)"
               style="font-family: 'Segoe UI Semibold', 'Segoe UI', Arial; font-size: 8px; fill: rgb(0, 0, 0); fill-opacity: 1; white-space: pre; opacity: 1;"
               id="text162">10 Oct 2025</text>
          </g>
        </g>
        <g
           class="yaxislayer-above"
           id="g171">
          <path
             class="ytick ticks crisp"
             d="M50,0h5"
             transform="translate(0,179.25)"
             style="stroke: rgb(0, 0, 0); stroke-opacity: 1; stroke-width: 1px;"
             id="path163" />
          <path
             class="ytick ticks crisp"
             d="M50,0h5"
             transform="translate(0,141.59)"
             style="stroke: rgb(0, 0, 0); stroke-opacity: 1; stroke-width: 1px;"
             id="path164" />
          <path
             class="ytick ticks crisp"
             d="M50,0h5"
             transform="translate(0,103.94)"
             style="stroke: rgb(0, 0, 0); stroke-opacity: 1; stroke-width: 1px;"
             id="path165" />
          <path
             class="ytick ticks crisp"
             d="M50,0h5"
             transform="translate(0,66.28)"
             style="stroke: rgb(0, 0, 0); stroke-opacity: 1; stroke-width: 1px;"
             id="path166" />
          <g
             class="ytick"
             id="g166">
            <text
               text-anchor="end"
               x="47.4"
               y="2.8"
               transform="translate(0,179.25)"
               style="font-family: 'Segoe UI Semibold', 'Segoe UI', Arial; font-size: 8px; fill: rgb(0, 0, 0); fill-opacity: 1; white-space: pre; opacity: 1;"
               id="text166">0.2</text>
          </g>
          <g
             class="ytick"
             id="g167">
            <text
               text-anchor="end"
               x="47.4"
               y="2.8"
               style="font-family: 'Segoe UI Semibold', 'Segoe UI', Arial; font-size: 8px; fill: rgb(0, 0, 0); fill-opacity: 1; white-space: pre; opacity: 1;"
               transform="translate(0,141.59)"
               id="text167">0.4</text>
          </g>
          <g
             class="ytick"
             id="g168">
            <text
               text-anchor="end"
               x="47.4"
               y="2.8"
               style="font-family: 'Segoe UI Semibold', 'Segoe UI', Arial; font-size: 8px; fill: rgb(0, 0, 0); fill-opacity: 1; white-space: pre; opacity: 1;"
               transform="translate(0,103.94)"
               id="text168">0.6</text>
          </g>
          <g
             class="ytick"
             id="g169">
            <text
               text-anchor="end"
               x="47.4"
               y="2.8"
               style="font-family: 'Segoe UI Semibold', 'Segoe UI', Arial; font-size: 8px; fill: rgb(0, 0, 0); fill-opacity: 1; white-space: pre; opacity: 1;"
               transform="translate(0,66.28)"
               id="text169">0.8</text>
          </g>
          <g
             class="ytick"
             id="g170">
            <text
               text-anchor="end"
               x="47.4"
               y="2.8"
               style="font-family: 'Segoe UI Semibold', 'Segoe UI', Arial; font-size: 8px; fill: rgb(0, 0, 0); fill-opacity: 1; white-space: pre; opacity: 1;"
               transform="translate(0,28.63)"
               id="text170">1</text>
          </g>
        </g>
        <g
           class="overaxes-above"
           id="g181">
          <g
             class="xy2-x"
             id="g172" />
          <g
             class="xy2-y"
             id="g180">
            <path
               class="y2tick ticks crisp"
               d="M550,0h-5"
               transform="translate(0,179.25)"
               style="stroke: rgb(0, 0, 0); stroke-opacity: 1; stroke-width: 1px;"
               id="path172" />
            <path
               class="y2tick ticks crisp"
               d="M550,0h-5"
               transform="translate(0,141.59)"
               style="stroke: rgb(0, 0, 0); stroke-opacity: 1; stroke-width: 1px;"
               id="path173" />
            <path
               class="y2tick ticks crisp"
               d="M550,0h-5"
               transform="translate(0,103.94)"
               style="stroke: rgb(0, 0, 0); stroke-opacity: 1; stroke-width: 1px;"
               id="path174" />
            <path
               class="y2tick ticks crisp"
               d="M550,0h-5"
               transform="translate(0,66.28)"
               style="stroke: rgb(0, 0, 0); stroke-opacity: 1; stroke-width: 1px;"
               id="path175" />
            <g
               class="y2tick"
               id="g175">
              <text
                 text-anchor="start"
                 x="552.6"
                 y="2.8"
                 transform="translate(0,179.25)"
                 style="font-family: 'Segoe UI Semibold', 'Segoe UI', Arial; font-size: 8px; fill: rgb(0, 0, 0); fill-opacity: 1; white-space: pre; opacity: 1;"
                 id="text175">0.2</text>
            </g>
            <g
               class="y2tick"
               id="g176">
              <text
                 text-anchor="start"
                 x="552.6"
                 y="2.8"
                 style="font-family: 'Segoe UI Semibold', 'Segoe UI', Arial; font-size: 8px; fill: rgb(0, 0, 0); fill-opacity: 1; white-space: pre; opacity: 1;"
                 transform="translate(0,141.59)"
                 id="text176">0.4</text>
            </g>
            <g
               class="y2tick"
               id="g177">
              <text
                 text-anchor="start"
                 x="552.6"
                 y="2.8"
                 style="font-family: 'Segoe UI Semibold', 'Segoe UI', Arial; font-size: 8px; fill: rgb(0, 0, 0); fill-opacity: 1; white-space: pre; opacity: 1;"
                 transform="translate(0,103.94)"
                 id="text177">0.6</text>
            </g>
            <g
               class="y2tick"
               id="g178">
              <text
                 text-anchor="start"
                 x="552.6"
                 y="2.8"
                 style="font-family: 'Segoe UI Semibold', 'Segoe UI', Arial; font-size: 8px; fill: rgb(0, 0, 0); fill-opacity: 1; white-space: pre; opacity: 1;"
                 transform="translate(0,66.28)"
                 id="text178">0.8</text>
            </g>
            <g
               class="y2tick"
               id="g179">
              <text
                 text-anchor="start"
                 x="552.6"
                 y="2.8"
                 style="font-family: 'Segoe UI Semibold', 'Segoe UI', Arial; font-size: 8px; fill: rgb(0, 0, 0); fill-opacity: 1; white-space: pre; opacity: 1;"
                 transform="translate(0,28.63)"
                 id="text179">1</text>
            </g>
          </g>
        </g>
      </g>
      <g
         class="subplot xy2"
         id="g183" />
    </g>
    <g
       class="polarlayer"
       id="g185" />
    <g
       class="smithlayer"
       id="g186" />
    <g
       class="ternarylayer"
       id="g187" />
    <g
       class="geolayer"
       id="g188" />
    <g
       class="funnelarealayer"
       id="g189" />
    <g
       class="pielayer"
       id="g190" />
    <g
       class="iciclelayer"
       id="g191" />
    <g
       class="treemaplayer"
       id="g192" />
    <g
       class="sunburstlayer"
       id="g193" />
    <g
       class="glimages"
       id="g194" />
    <defs
       id="topdefs-097796">
      <g
         class="clips"
         id="g195" />
    </defs>
    <g
       class="infolayer"
       id="g221">
      <g
         class="g-gtitle"
         id="g200" />
      <g
         class="g-xtitle"
         id="g201" />
      <g
         class="g-ytitle"
         id="g202" />
      <g
         class="g-y2title"
         id="g203" />
      <g
         class="annotation"
         data-index="0"
         style="opacity:1"
         id="g206"
         transform="translate(-59.016393,-9.1334895)">
        <g
           class="annotation-text-g"
           id="g205">
          <g
             class="cursor-pointer"
             transform="translate(120,44)"
             id="g204">
            <rect
               class="bg"
               x="0.5"
               y="0.5"
               width="193"
               height="9"
               style="fill:#000000;fill-opacity:0;stroke:#000000;stroke-width:1px;stroke-opacity:0"
               id="rect203" />
            <text
               class="annotation-text"
               text-anchor="start"
               x="2"
               y="7"
               style="font-size:6px;font-family:'Segoe UI Semibold', 'Segoe UI', Arial;white-space:pre;fill:#000000;fill-opacity:1"
               id="text203">WILL HAMAS RELEASE ALL ISRAELI HOSTAGES BY OCTOBER 31?</text>
          </g>
        </g>
      </g>
      <g
         class="annotation"
         data-index="1"
         style="opacity: 1;"
         id="g209">
        <g
           class="annotation-text-g"
           transform="rotate(0,57.5,21.5)"
           id="g208">
          <g
             class="cursor-pointer"
             transform="translate(52,15)"
             id="g207">
            <rect
               class="bg"
               x="0.5"
               y="0.5"
               width="10"
               height="12"
               style="stroke-width: 1px; stroke: rgb(0, 0, 0); stroke-opacity: 0; fill: rgb(0, 0, 0); fill-opacity: 0;"
               id="rect206" />
            <text
               class="annotation-text"
               text-anchor="middle"
               x="5.5625"
               y="9"
               style="font-family: 'Segoe UI Semibold', 'Segoe UI', Arial; font-size: 8px; fill: rgb(0, 0, 0); fill-opacity: 1; white-space: pre;"
               id="text206">%</text>
          </g>
        </g>
      </g>
      <g
         class="annotation"
         data-index="2"
         style="opacity: 1;"
         id="g212">
        <g
           class="annotation-text-g"
           transform="rotate(0,542.5,21.5)"
           id="g211">
          <g
             class="cursor-pointer"
             transform="translate(537,15)"
             id="g210">
            <rect
               class="bg"
               x="0.5"
               y="0.5"
               width="10"
               height="12"
               style="stroke-width: 1px; stroke: rgb(0, 0, 0); stroke-opacity: 0; fill: rgb(0, 0, 0); fill-opacity: 0;"
               id="rect209" />
            <text
               class="annotation-text"
               text-anchor="middle"
               x="5.5625"
               y="9"
               style="font-family: 'Segoe UI Semibold', 'Segoe UI', Arial; font-size: 8px; fill: rgb(0, 0, 0); fill-opacity: 1; white-space: pre;"
               id="text209">%</text>
          </g>
        </g>
      </g>
      <g
         class="annotation"
         data-index="3"
         style="opacity:1"
         id="g217"
         transform="translate(19.672131,-14.051522)">
        <g
           class="annotation-text-g"
           id="g216">
          <g
             class="cursor-pointer"
             transform="translate(167,71)"
             id="g215">
            <rect
               class="bg"
               x="0.5"
               y="0.5"
               width="207"
               height="43"
               style="fill:#000000;fill-opacity:0;stroke:#000000;stroke-width:1px;stroke-opacity:0"
               id="rect212" />
            <text
               class="annotation-text"
               text-anchor="middle"
               x="103.9375"
               y="9"
               style="font-size:8px;font-family:'Segoe UI Semibold', 'Segoe UI', Arial;white-space:pre;fill:#7c2d12;fill-opacity:1"
               id="text215"><tspan
                 class="line"
                 dy="0em"
                 x="103.9375"
                 y="9"
                 id="tspan212">WILL HAMAS RELEASE ALL ISRAELI HOSTAGES BY</tspan><tspan
                 class="line"
                 dy="1.3em"
                 x="103.9375"
                 y="9"
                 id="tspan213">OCTOBER 31 PROBABILITY SURGED FOLLOWING</tspan><tspan
                 class="line"
                 dy="2.5999999em"
                 x="103.9375"
                 y="9"
                 id="tspan214">TRUMPS PEACE ANNOUNCEMENT, CAPTURING THE</tspan><tspan
                 class="line"
                 dy="3.9000001em"
                 x="103.9375"
                 y="9"
                 id="tspan215">TEMPORARY EASING OF GEOPOLITICAL TENSION.</tspan></text>
          </g>
        </g>
      </g>
      <g
         class="annotation"
         data-index="4"
         style="opacity:1"
         id="g220"
         transform="translate(0,3.5128806)">
        <g
           class="annotation-text-g"
           id="g219">
          <g
             class="cursor-pointer"
             transform="translate(50,218)"
             id="g218">
            <rect
               class="bg"
               x="0.5"
               y="0.5"
               width="189"
               height="22"
               style="fill:#000000;fill-opacity:0;stroke:#000000;stroke-width:1px;stroke-opacity:0"
               id="rect217" />
            <text
               class="annotation-text"
               text-anchor="start"
               x="2"
               y="9"
               style="font-size:8px;font-family:'Segoe UI Semibold', 'Segoe UI', Arial;white-space:pre;fill:#000000;fill-opacity:1"
               id="text218"><tspan
                 class="line"
                 dy="0em"
                 x="2"
                 y="9"
                 id="tspan217">* SHOWN IN A 5-MINUTE TIME FRAME.</tspan><tspan
                 class="line"
                 dy="1.3em"
                 x="2"
                 y="9"
                 id="tspan218">SOURCES: POLYMARKET, GENESIS RESEARCH.</tspan></text>
          </g>
        </g>
      </g>
    </g>
  </svg>
</svg>
