<?xml version="1.0" encoding="UTF-8" standalone="no"?>
<svg
   class="main-svg"
   width="600"
   height="350"
   style=""
   viewBox="0 0 600 350"
   version="1.1"
   id="svg162"
   sodipodi:docname="ZION.svg"
   inkscape:version="1.4.2 (ebf0e940, 2025-05-08)"
   xmlns:inkscape="http://www.inkscape.org/namespaces/inkscape"
   xmlns:sodipodi="http://sodipodi.sourceforge.net/DTD/sodipodi-0.dtd"
   xmlns="http://www.w3.org/2000/svg"
   xmlns:svg="http://www.w3.org/2000/svg">
  <sodipodi:namedview
     id="namedview162"
     pagecolor="#ffffff"
     bordercolor="#000000"
     borderopacity="0.25"
     inkscape:showpageshadow="2"
     inkscape:pageopacity="0.0"
     inkscape:pagecheckerboard="0"
     inkscape:deskcolor="#d1d1d1"
     inkscape:zoom="1.4233333"
     inkscape:cx="278.92272"
     inkscape:cy="176.69789"
     inkscape:window-width="1176"
     inkscape:window-height="1186"
     inkscape:window-x="1330"
     inkscape:window-y="88"
     inkscape:window-maximized="0"
     inkscape:current-layer="g160" />
  <rect
     x="0"
     y="0"
     width="600"
     height="350"
     style="fill: rgb(255, 255, 255); fill-opacity: 1;"
     id="rect1" />
  <defs
     id="defs-070345">
    <g
       class="clips"
       id="g8">
      <clipPath
         id="clip070345xyplot"
         class="plotclip">
        <rect
           width="524"
           height="288"
           id="rect2" />
      </clipPath>
      <clipPath
         id="clip070345xy2plot"
         class="plotclip">
        <rect
           width="524"
           height="288"
           id="rect3" />
      </clipPath>
      <clipPath
         class="axesclip"
         id="clip070345x">
        <rect
           x="40"
           y="0"
           width="524"
           height="350"
           id="rect4" />
      </clipPath>
      <clipPath
         class="axesclip"
         id="clip070345y">
        <rect
           x="0"
           y="22"
           width="600"
           height="288"
           id="rect5" />
      </clipPath>
      <clipPath
         class="axesclip"
         id="clip070345xy">
        <rect
           x="40"
           y="22"
           width="524"
           height="288"
           id="rect6" />
      </clipPath>
      <clipPath
         class="axesclip"
         id="clip070345y2">
        <rect
           x="0"
           y="22"
           width="600"
           height="288"
           id="rect7" />
      </clipPath>
      <clipPath
         class="axesclip"
         id="clip070345xy2">
        <rect
           x="40"
           y="22"
           width="524"
           height="288"
           id="rect8" />
      </clipPath>
    </g>
    <g
       class="gradients"
       id="g9" />
    <g
       class="patterns"
       id="g10" />
  </defs>
  <g
     class="bglayer"
     id="g11" />
  <g
     class="layer-below"
     id="g49">
    <g
       class="imagelayer"
       id="g12" />
    <g
       class="shapelayer"
       id="g48">
      <g
         class="shape-group"
         data-index="1"
         clip-path="url(#clip070345x)"
         id="g13">
        <path
           data-index="1"
           fill-rule="evenodd"
           d="M-478.27,310H-478.27V22H-478.27Z"
           style="opacity: 1; stroke: rgb(0, 0, 0); stroke-opacity: 0; fill: rgb(150, 150, 150); fill-opacity: 0.18; stroke-width: 0px;"
           id="path12" />
      </g>
      <g
         class="shape-group"
         data-index="2"
         clip-path="url(#clip070345x)"
         id="g14">
        <path
           data-index="2"
           fill-rule="evenodd"
           d="M-478.27,310H-478.27V22H-478.27Z"
           style="opacity: 1; stroke: rgb(0, 0, 0); stroke-opacity: 0; fill: rgb(150, 150, 150); fill-opacity: 0.18; stroke-width: 0px;"
           id="path13" />
      </g>
      <g
         class="shape-group"
         data-index="3"
         clip-path="url(#clip070345x)"
         id="g15">
        <path
           data-index="3"
           fill-rule="evenodd"
           d="M-478.27,310H-478.27V22H-478.27Z"
           style="opacity: 1; stroke: rgb(0, 0, 0); stroke-opacity: 0; fill: rgb(150, 150, 150); fill-opacity: 0.18; stroke-width: 0px;"
           id="path14" />
      </g>
      <g
         class="shape-group"
         data-index="4"
         clip-path="url(#clip070345x)"
         id="g16">
        <path
           data-index="4"
           fill-rule="evenodd"
           d="M-478.27,310H-478.27V22H-478.27Z"
           style="opacity: 1; stroke: rgb(0, 0, 0); stroke-opacity: 0; fill: rgb(150, 150, 150); fill-opacity: 0.18; stroke-width: 0px;"
           id="path15" />
      </g>
      <g
         class="shape-group"
         data-index="5"
         clip-path="url(#clip070345x)"
         id="g17">
        <path
           data-index="5"
           fill-rule="evenodd"
           d="M-478.27,310H-478.27V22H-478.27Z"
           style="opacity: 1; stroke: rgb(0, 0, 0); stroke-opacity: 0; fill: rgb(150, 150, 150); fill-opacity: 0.18; stroke-width: 0px;"
           id="path16" />
      </g>
      <g
         class="shape-group"
         data-index="6"
         clip-path="url(#clip070345x)"
         id="g18">
        <path
           data-index="6"
           fill-rule="evenodd"
           d="M-478.27,310H-478.27V22H-478.27Z"
           style="opacity: 1; stroke: rgb(0, 0, 0); stroke-opacity: 0; fill: rgb(150, 150, 150); fill-opacity: 0.18; stroke-width: 0px;"
           id="path17" />
      </g>
      <g
         class="shape-group"
         data-index="7"
         clip-path="url(#clip070345x)"
         id="g19">
        <path
           data-index="7"
           fill-rule="evenodd"
           d="M-478.27,310H-478.27V22H-478.27Z"
           style="opacity: 1; stroke: rgb(0, 0, 0); stroke-opacity: 0; fill: rgb(150, 150, 150); fill-opacity: 0.18; stroke-width: 0px;"
           id="path18" />
      </g>
      <g
         class="shape-group"
         data-index="8"
         clip-path="url(#clip070345x)"
         id="g20">
        <path
           data-index="8"
           fill-rule="evenodd"
           d="M-478.27,310H-478.27V22H-478.27Z"
           style="opacity: 1; stroke: rgb(0, 0, 0); stroke-opacity: 0; fill: rgb(150, 150, 150); fill-opacity: 0.18; stroke-width: 0px;"
           id="path19" />
      </g>
      <g
         class="shape-group"
         data-index="9"
         clip-path="url(#clip070345x)"
         id="g21">
        <path
           data-index="9"
           fill-rule="evenodd"
           d="M-478.27,310H-478.27V22H-478.27Z"
           style="opacity: 1; stroke: rgb(0, 0, 0); stroke-opacity: 0; fill: rgb(150, 150, 150); fill-opacity: 0.18; stroke-width: 0px;"
           id="path20" />
      </g>
      <g
         class="shape-group"
         data-index="10"
         clip-path="url(#clip070345x)"
         id="g22">
        <path
           data-index="10"
           fill-rule="evenodd"
           d="M-478.27,310H-478.27V22H-478.27Z"
           style="opacity: 1; stroke: rgb(0, 0, 0); stroke-opacity: 0; fill: rgb(150, 150, 150); fill-opacity: 0.18; stroke-width: 0px;"
           id="path21" />
      </g>
      <g
         class="shape-group"
         data-index="11"
         clip-path="url(#clip070345x)"
         id="g23">
        <path
           data-index="11"
           fill-rule="evenodd"
           d="M-478.27,310H-478.27V22H-478.27Z"
           style="opacity: 1; stroke: rgb(0, 0, 0); stroke-opacity: 0; fill: rgb(150, 150, 150); fill-opacity: 0.18; stroke-width: 0px;"
           id="path22" />
      </g>
      <g
         class="shape-group"
         data-index="12"
         clip-path="url(#clip070345x)"
         id="g24">
        <path
           data-index="12"
           fill-rule="evenodd"
           d="M-478.27,310H-478.27V22H-478.27Z"
           style="opacity: 1; stroke: rgb(0, 0, 0); stroke-opacity: 0; fill: rgb(150, 150, 150); fill-opacity: 0.18; stroke-width: 0px;"
           id="path23" />
      </g>
      <g
         class="shape-group"
         data-index="13"
         clip-path="url(#clip070345x)"
         id="g25">
        <path
           data-index="13"
           fill-rule="evenodd"
           d="M-478.27,310H-478.27V22H-478.27Z"
           style="opacity: 1; stroke: rgb(0, 0, 0); stroke-opacity: 0; fill: rgb(150, 150, 150); fill-opacity: 0.18; stroke-width: 0px;"
           id="path24" />
      </g>
      <g
         class="shape-group"
         data-index="14"
         clip-path="url(#clip070345x)"
         id="g26">
        <path
           data-index="14"
           fill-rule="evenodd"
           d="M-478.27,310H-478.27V22H-478.27Z"
           style="opacity: 1; stroke: rgb(0, 0, 0); stroke-opacity: 0; fill: rgb(150, 150, 150); fill-opacity: 0.18; stroke-width: 0px;"
           id="path25" />
      </g>
      <g
         class="shape-group"
         data-index="15"
         clip-path="url(#clip070345x)"
         id="g27">
        <path
           data-index="15"
           fill-rule="evenodd"
           d="M-478.27,310H-478.27V22H-478.27Z"
           style="opacity: 1; stroke: rgb(0, 0, 0); stroke-opacity: 0; fill: rgb(150, 150, 150); fill-opacity: 0.18; stroke-width: 0px;"
           id="path26" />
      </g>
      <g
         class="shape-group"
         data-index="16"
         clip-path="url(#clip070345x)"
         id="g28">
        <path
           data-index="16"
           fill-rule="evenodd"
           d="M-478.27,310H-478.27V22H-478.27Z"
           style="opacity: 1; stroke: rgb(0, 0, 0); stroke-opacity: 0; fill: rgb(150, 150, 150); fill-opacity: 0.18; stroke-width: 0px;"
           id="path27" />
      </g>
      <g
         class="shape-group"
         data-index="17"
         clip-path="url(#clip070345x)"
         id="g29">
        <path
           data-index="17"
           fill-rule="evenodd"
           d="M-478.27,310H-478.27V22H-478.27Z"
           style="opacity: 1; stroke: rgb(0, 0, 0); stroke-opacity: 0; fill: rgb(150, 150, 150); fill-opacity: 0.18; stroke-width: 0px;"
           id="path28" />
      </g>
      <g
         class="shape-group"
         data-index="18"
         clip-path="url(#clip070345x)"
         id="g30">
        <path
           data-index="18"
           fill-rule="evenodd"
           d="M-478.27,310H-478.27V22H-478.27Z"
           style="opacity: 1; stroke: rgb(0, 0, 0); stroke-opacity: 0; fill: rgb(150, 150, 150); fill-opacity: 0.18; stroke-width: 0px;"
           id="path29" />
      </g>
      <g
         class="shape-group"
         data-index="19"
         clip-path="url(#clip070345x)"
         id="g31">
        <path
           data-index="19"
           fill-rule="evenodd"
           d="M-478.27,310H-478.27V22H-478.27Z"
           style="opacity: 1; stroke: rgb(0, 0, 0); stroke-opacity: 0; fill: rgb(150, 150, 150); fill-opacity: 0.18; stroke-width: 0px;"
           id="path30" />
      </g>
      <g
         class="shape-group"
         data-index="20"
         clip-path="url(#clip070345x)"
         id="g32">
        <path
           data-index="20"
           fill-rule="evenodd"
           d="M-478.27,310H-478.27V22H-478.27Z"
           style="opacity: 1; stroke: rgb(0, 0, 0); stroke-opacity: 0; fill: rgb(150, 150, 150); fill-opacity: 0.18; stroke-width: 0px;"
           id="path31" />
      </g>
      <g
         class="shape-group"
         data-index="21"
         clip-path="url(#clip070345x)"
         id="g33">
        <path
           data-index="21"
           fill-rule="evenodd"
           d="M-478.27,310H-478.27V22H-478.27Z"
           style="opacity: 1; stroke: rgb(0, 0, 0); stroke-opacity: 0; fill: rgb(150, 150, 150); fill-opacity: 0.18; stroke-width: 0px;"
           id="path32" />
      </g>
      <g
         class="shape-group"
         data-index="22"
         clip-path="url(#clip070345x)"
         id="g34">
        <path
           data-index="22"
           fill-rule="evenodd"
           d="M-478.27,310H-478.27V22H-478.27Z"
           style="opacity: 1; stroke: rgb(0, 0, 0); stroke-opacity: 0; fill: rgb(150, 150, 150); fill-opacity: 0.18; stroke-width: 0px;"
           id="path33" />
      </g>
      <g
         class="shape-group"
         data-index="23"
         clip-path="url(#clip070345x)"
         id="g35">
        <path
           data-index="23"
           fill-rule="evenodd"
           d="M-478.27,310H-478.27V22H-478.27Z"
           style="opacity: 1; stroke: rgb(0, 0, 0); stroke-opacity: 0; fill: rgb(150, 150, 150); fill-opacity: 0.18; stroke-width: 0px;"
           id="path34" />
      </g>
      <g
         class="shape-group"
         data-index="24"
         clip-path="url(#clip070345x)"
         id="g36">
        <path
           data-index="24"
           fill-rule="evenodd"
           d="M-478.27,310H-478.27V22H-478.27Z"
           style="opacity: 1; stroke: rgb(0, 0, 0); stroke-opacity: 0; fill: rgb(150, 150, 150); fill-opacity: 0.18; stroke-width: 0px;"
           id="path35" />
      </g>
      <g
         class="shape-group"
         data-index="25"
         clip-path="url(#clip070345x)"
         id="g37">
        <path
           data-index="25"
           fill-rule="evenodd"
           d="M-478.27,310H-478.27V22H-478.27Z"
           style="opacity: 1; stroke: rgb(0, 0, 0); stroke-opacity: 0; fill: rgb(150, 150, 150); fill-opacity: 0.18; stroke-width: 0px;"
           id="path36" />
      </g>
      <g
         class="shape-group"
         data-index="26"
         clip-path="url(#clip070345x)"
         id="g38">
        <path
           data-index="26"
           fill-rule="evenodd"
           d="M-478.27,310H-478.27V22H-478.27Z"
           style="opacity: 1; stroke: rgb(0, 0, 0); stroke-opacity: 0; fill: rgb(150, 150, 150); fill-opacity: 0.18; stroke-width: 0px;"
           id="path37" />
      </g>
      <g
         class="shape-group"
         data-index="27"
         clip-path="url(#clip070345x)"
         id="g39">
        <path
           data-index="27"
           fill-rule="evenodd"
           d="M-478.27,310H-478.27V22H-478.27Z"
           style="opacity: 1; stroke: rgb(0, 0, 0); stroke-opacity: 0; fill: rgb(150, 150, 150); fill-opacity: 0.18; stroke-width: 0px;"
           id="path38" />
      </g>
      <g
         class="shape-group"
         data-index="28"
         clip-path="url(#clip070345x)"
         id="g40">
        <path
           data-index="28"
           fill-rule="evenodd"
           d="M-478.27,310H-478.27V22H-478.27Z"
           style="opacity: 1; stroke: rgb(0, 0, 0); stroke-opacity: 0; fill: rgb(150, 150, 150); fill-opacity: 0.18; stroke-width: 0px;"
           id="path39" />
      </g>
      <g
         class="shape-group"
         data-index="29"
         clip-path="url(#clip070345x)"
         id="g41">
        <path
           data-index="29"
           fill-rule="evenodd"
           d="M-446.73,310H-423.96V22H-446.73Z"
           style="opacity: 1; stroke: rgb(0, 0, 0); stroke-opacity: 0; fill: rgb(150, 150, 150); fill-opacity: 0.18; stroke-width: 0px;"
           id="path40" />
      </g>
      <g
         class="shape-group"
         data-index="30"
         clip-path="url(#clip070345x)"
         id="g42">
        <path
           data-index="30"
           fill-rule="evenodd"
           d="M-336.65,310H-328.96V22H-336.65Z"
           style="opacity: 1; stroke: rgb(0, 0, 0); stroke-opacity: 0; fill: rgb(150, 150, 150); fill-opacity: 0.18; stroke-width: 0px;"
           id="path41" />
      </g>
      <g
         class="shape-group"
         data-index="31"
         clip-path="url(#clip070345x)"
         id="g43">
        <path
           data-index="31"
           fill-rule="evenodd"
           d="M-308.81,310H-286.04V22H-308.81Z"
           style="opacity: 1; stroke: rgb(0, 0, 0); stroke-opacity: 0; fill: rgb(150, 150, 150); fill-opacity: 0.18; stroke-width: 0px;"
           id="path42" />
      </g>
      <g
         class="shape-group"
         data-index="32"
         clip-path="url(#clip070345x)"
         id="g44">
        <path
           data-index="32"
           fill-rule="evenodd"
           d="M-140.81,310H-130.27V22H-140.81Z"
           style="opacity: 1; stroke: rgb(0, 0, 0); stroke-opacity: 0; fill: rgb(150, 150, 150); fill-opacity: 0.18; stroke-width: 0px;"
           id="path43" />
      </g>
      <g
         class="shape-group"
         data-index="33"
         clip-path="url(#clip070345x)"
         id="g45">
        <path
           data-index="33"
           fill-rule="evenodd"
           d="M64.19,310H75.35V22H64.19Z"
           style="opacity: 1; stroke: rgb(0, 0, 0); stroke-opacity: 0; fill: rgb(150, 150, 150); fill-opacity: 0.18; stroke-width: 0px;"
           id="path44" />
      </g>
      <g
         class="shape-group"
         data-index="34"
         clip-path="url(#clip070345x)"
         id="g46">
        <path
           data-index="34"
           fill-rule="evenodd"
           d="M194.65,310H221.96V22H194.65Z"
           style="opacity: 1; stroke: rgb(0, 0, 0); stroke-opacity: 0; fill: rgb(150, 150, 150); fill-opacity: 0.18; stroke-width: 0px;"
           id="path45" />
      </g>
      <g
         class="shape-group"
         data-index="35"
         clip-path="url(#clip070345x)"
         id="g47">
        <path
           data-index="35"
           fill-rule="evenodd"
           d="M430.12,310H431.81V22H430.12Z"
           style="opacity: 1; stroke: rgb(0, 0, 0); stroke-opacity: 0; fill: rgb(150, 150, 150); fill-opacity: 0.18; stroke-width: 0px;"
           id="path46" />
      </g>
    </g>
  </g>
  <g
     class="cartesianlayer"
     id="g123">
    <g
       class="subplot xy"
       id="g121">
      <g
         class="layer-subplot"
         id="g52">
        <g
           class="shapelayer"
           id="g50" />
        <g
           class="imagelayer"
           id="g51" />
      </g>
      <g
         class="minor-gridlayer"
         id="g56">
        <g
           class="x"
           id="g53" />
        <g
           class="y"
           id="g54" />
        <g
           class="y2"
           id="g55" />
      </g>
      <g
         class="gridlayer"
         id="g60">
        <g
           class="x"
           id="g57" />
        <g
           class="y"
           id="g58" />
        <g
           class="y2"
           id="g59" />
      </g>
      <g
         class="zerolinelayer"
         id="g61" />
      <g
         class="layer-between"
         id="g64">
        <g
           class="shapelayer"
           id="g62" />
        <g
           class="imagelayer"
           id="g63" />
      </g>
      <path
         class="xlines-below"
         id="path64" />
      <path
         class="ylines-below"
         id="path65" />
      <g
         class="overlines-below"
         id="g67">
        <path
           class="xy2-x"
           id="path66" />
        <path
           class="xy2-y"
           id="path67" />
      </g>
      <g
         class="xaxislayer-below"
         id="g68" />
      <g
         class="yaxislayer-below"
         id="g69" />
      <g
         class="overaxes-below"
         id="g72">
        <g
           class="xy2-x"
           id="g70" />
        <g
           class="xy2-y"
           id="g71" />
      </g>
      <g
         class="overplot"
         id="g88">
        <g
           class="xy"
           transform="translate(40,22)"
           clip-path="url(#clip070345xyplot)"
           id="g86">
          <g
             class="scatterlayer mlayer"
             id="g85">
            <g
               class="trace scatter trace93c60f"
               style="stroke-miterlimit: 2; opacity: 1;"
               id="g78">
              <g
                 class="fills"
                 id="g73" />
              <g
                 class="errorbars"
                 id="g74" />
              <g
                 class="lines"
                 id="g75">
                <path
                   class="js-line"
                   d="M-518.27,293.62L-457.58,295.42L-457.5,295.21L-444.96,296.11L-444.88,296.11L-403.5,291.62L-403.42,291.55L-398.81,296.32L-396.58,295.97L-396.5,295.84L-303.65,286.94L-303.58,286.94L-297.35,289.12L-297.27,289.12L-283.27,286.32L-283.19,286.11L-268.96,283L-268.88,282.59L-261.81,278.74L-261.73,278.64L-257.12,277.14L-257.04,277.29L-256.96,279.68L-256.42,277.91L-253.65,281.96L-253.12,281.65L-253.04,281.55L-248.35,285.18L-246.65,283.21L-246.58,282.79L-246.5,281.86L-242.58,284.25L-242.5,284.25L-242.42,284.66L-238.19,283.31L-237.96,283.83L-237.88,284.14L-233.27,287.46L-233.19,288.09L-229.5,292.24L-228.73,291.41L-228.65,291.2L-204.42,290.89L-204.35,290.68L-172.58,289.23L-172.5,289.02L-167.81,283.21L-167.73,284.04L-167.65,284.35L-165.12,283.93L-164.19,284.56L-164.12,284.71L-158.42,281.65L-158.19,282.53L-158.12,282.84L-157.04,281.86L-155.81,285.18L-155.73,285.49L-151.65,281.03L-151.12,281.24L-151.04,281.65L-147.04,279.68L-146.96,279.99L-143.88,277.91L-143.81,278.02L-140.58,276.51L-140.12,276.82L-140.04,277.4L-137.5,270.65L-136.88,271.79L-136.81,271.69L-133.96,262.14L-132.58,264.73L-132.5,264.84L-131.27,260.68L-129.96,264.84L-129.88,266.5L-129.81,265.04L-128.65,268.57L-127.5,268.57L-127.42,269.4L-123.35,265.25L-123.27,266.5L-122.58,267.33L-120.58,263.59L-120.5,265.04L-120.42,266.29L-119.65,265.04L-118.65,270.86L-118.35,270.86L-118.27,270.86L-116.96,271.48L-115.58,270.03L-115.5,271.06L-112.35,268.36L-112.27,268.36L-111.5,270.65L-109.81,268.99L-109.73,268.57L-109.35,269.61L-108.88,266.91L-107.73,266.91L-107.65,266.5L-105.5,269.4L-105.19,269.2L-105.12,268.99L-104.88,269.4L-103.96,267.85L-103.19,268.16L-103.12,267.95L-102.19,268.16L-101.96,268.78L-101.88,269.82L-101.35,269.4L-99.58,271.06L-99.5,270.44L-98.27,273.55L-97.27,271.89L-97.19,271.58L-92.81,268.57L-92.65,268.99L-92.58,269.51L-92.35,270.03L-91.35,267.53L-91.27,266.24L-88.5,263.18L-88.42,261.31L-88.27,261.83L-87.27,258.61L-86.96,259.54L-86.88,259.44L-86.73,259.85L-86.04,256.84L-85.73,256.95L-85.65,256.32L-84.96,256.53L-81.58,247.4L-81.5,247.19L-79.88,240.13L-79.04,243.25L-78.96,243.04L-78.81,243.45L-78.5,239.92L-78.42,238.06L-77.88,234.01L-76.81,245.94L-76.42,242.93L-76.35,240.34L-75.58,237.85L-75.04,240.96L-74.5,239.72L-74.42,239.61L-72.19,244.91L-72.04,243.87L-71.96,242.21L-71.65,237.43L-70.12,240.24L-70.04,239.72L-69.81,240.13L-69.42,237.64L-69.35,236.6L-68.65,235.77L-68.19,238.47L-68.12,240.96L-67.27,241.59L-66.04,234.94L-65.96,234.11L-65.88,234.94L-64.88,229.13L-64.73,229.75L-64.65,229.34L-64.12,226.85L-63.73,230.38L-63.27,228.09L-63.19,227.88L-63.04,228.51L-62.19,225.19L-62.12,224.98L-60.58,227.88L-60.42,226.43L-60.35,223.32L-58.27,215.01L-58.19,216.05L-55.35,190.93L-55.27,193.42L-55.19,197.99L-54.58,194.51L-54.04,201.52L-53.88,199.24L-53.81,195.5L-52.12,207.12L-52.04,201.73L-50.88,185.95L-50.58,197.58L-50.5,199.65L-50.12,198.82L-49.96,201.31L-49.88,205.46L-48.65,176.4L-47.73,182.42L-47.65,182.63L-46.65,178.48L-46.35,183.87L-46.27,182.84L-46.19,182.21L-46.04,184.5L-45.88,180.97L-45.5,183.87L-45.42,178.06L-44.12,164.78L-43.96,168.1L-43.88,171.42L-43.73,176.82L-43.35,167.89L-42.65,172.66L-42.58,168.93L-42.19,175.16L-41.73,167.68L-41.5,170.59L-41.42,172.66L-41.19,173.08L-40.42,164.36L-40.35,157.09L-39.88,160.21L-39.73,149.83L-39.12,156.47L-39.04,156.89L-38.65,147.34L-38.35,169.97L-37.81,155.23L-37.73,157.09L-37.58,160.21L-37.19,155.64L-37.12,151.91L-36.73,150.87L-35.5,165.4L-35.35,158.55L-35.27,157.3L-35.19,157.72L-34.96,153.98L-34.88,151.91L-34.81,153.36L-34.65,145.68L-34.58,137.79L-34.42,136.96L-34.35,116.41L-33.58,132.39L-33.04,129.49L-32.96,130.73L-32.73,141.73L-32.42,122.01L-31.88,131.15L-31.81,130.32L-31.35,122.22L-31.19,128.86L-31.12,133.43L-31.04,130.32L-30.58,138.2L-30.42,137.37L-30.35,138.62L-30.12,140.28L-28.35,111.22L-28.27,113.92L-28.19,122.01L-27.04,144.85L-26.96,142.77L-25.96,173.91L-25.88,165.4L-25.81,153.57L-25.58,146.92L-25.42,156.89L-25.12,147.34L-25.04,157.3L-24.96,142.36L-24.35,165.81L-24.19,156.89L-24.12,162.49L-23.88,171.42L-22.27,118.28L-22.19,124.3L-22.12,126.58L-21.88,131.15L-21.81,126.99L-21.73,124.92L-21.12,133.64L-20.88,124.92L-20.81,120.56L-20.73,120.35L-20.42,122.01L-20.35,123.05L-19.65,108.31L-19.58,104.05L-19.42,94.19L-18.73,112.05L-18.65,108.93L-18.58,108.1L-18.19,98.97L-18.12,108.31L-17.96,108.73L-16.96,96.69L-16.88,99.18L-15.58,75.51L-15.5,75.93L-15.42,75.1L-15.12,85.68L-14.42,84.54L-14.35,78L-14.12,78.83L-14.04,73.64L-13.96,73.02L-13.73,66.58L-13.65,49.35L-12.81,93.78L-12.65,85.89L-12.58,82.36L-12.42,82.15L-11.81,100.63L-11.65,96.69L-11.58,89.63L-11.5,90.87L-11.27,84.23L-11.19,106.75L-10.73,121.7L-10.35,105.61L-10.27,102.91L-10.12,103.74L-10.04,101.25L-9.96,93.16L-9.58,87.45L-9.27,95.02L-9.19,99.18L-9.04,96.69L-8.65,109.14L-8.58,107.48L-8.5,105.61L-7.65,124.09L-7.35,115.78L-7.27,113.5L-6.73,122.22L-6.65,138.62L-6.35,129.69L-5.81,132.6L-5.73,133.22L-5.65,134.67L-5.5,127.62L-5.42,122.43L-5.12,124.61L-4.42,108.93L-4.27,113.71L-4.19,113.5L-4.12,124.71L-3.73,110.8L-3.5,115.58L-3.42,107.69L-2.19,86.72L-2.12,89.42L-2.04,93.78L-1.81,96.27L-1.58,82.57L-1.5,76.96L-0.73,97.31L-0.65,97.1L-0.58,86.72L-0.5,76.96L-0.12,106.65L-0.04,104.78L0.04,117.03L0.5,135.71L0.73,116.61L0.81,125.96L0.88,124.09L1.12,128.65L1.19,123.05L1.27,123.46L1.35,109.56L1.58,102.91L2.19,119.73L2.27,121.6L2.5,118.59L2.58,135.71L3.04,125.13L3.19,130.52L3.27,172.46L3.35,163.32L3.81,180.35L4.04,165.4L4.12,170.8L4.35,155.23L4.73,174.12L4.88,168.51L4.96,163.12L5.12,160.21L5.19,166.44L5.27,160.62L5.35,151.49L5.5,143.6L5.65,152.11L5.73,156.26L6.04,153.15L6.5,166.23L6.58,166.44L6.81,161.87L6.88,168.72L8.12,140.9L8.19,142.77L8.88,151.91L8.96,144.85L9.04,139.86L9.65,148.95L9.88,146.09L9.96,144.02L10.12,144.22L10.19,146.3L10.35,142.77L10.58,150.45L10.81,149.62L10.88,150.24L11.27,156.68L11.5,147.13L11.58,150.24L11.65,151.07L12.5,164.98L12.58,160L12.81,161.04L12.88,158.13L12.96,152.74L13.12,156.47L13.42,147.75L13.58,148.58L13.65,149.41L13.73,148.58L13.81,152.74L13.96,152.32L14.04,154.4L14.81,124.3L15.04,130.52L15.12,140.7L15.19,145.88L15.35,132.81L15.73,133.43L15.81,128.65L16.12,113.09L16.19,110.59L16.5,109.14L17.19,125.54L17.27,128.65L18.35,92.95L18.42,101.88L18.65,112.05L18.96,107.9L19.04,96.27L19.35,93.99L20.04,106.44L20.12,100.84L20.96,115.78L21.19,113.71L21.27,114.75L21.73,106.44L21.96,112.67L22.04,117.44L22.12,118.33L22.27,113.71L22.35,112.05L22.58,107.06L22.88,114.12L22.96,117.44L23.65,145.47L23.81,131.31L23.88,125.33L24.35,133.9L24.65,128.02L24.73,125.23L24.96,128.52L25.04,124.37L25.12,117.86L25.27,126.86L25.88,122.14L25.96,119.52L26.42,123.24L26.58,118.69L26.81,121.41L26.88,121.15L27.27,124.34L27.42,119.12L27.5,116.86L27.73,113.24L28.27,115.7L28.35,114.21L28.5,103.61L29.12,105.14L29.19,107.26L29.42,112.71L29.88,105.4L29.96,105.17L30.65,109.92L30.88,107.9L30.96,106.87L31.04,108.59L31.5,105.2L31.58,103.74L31.73,104.18L31.81,102.88L31.88,102.91L31.96,106.67L33.12,129.92L33.19,129.19L33.27,127.86L33.35,127.99L33.42,122.01L33.73,136.56L33.81,138.25L34.58,160.37L34.65,155.89L34.73,152.3L35.65,136.16L35.81,139.48L35.88,141.18L36.42,145.79L36.5,144.07L36.58,141.77L36.73,142.51L36.81,140.25L36.96,141.94L37.04,138.88L37.88,128.39L37.96,127.82L38.04,123.64L38.5,130.05L38.73,125.86L38.81,126.16L39.88,138.75L40.19,135.7L40.27,134.87L40.81,123.11L41.27,124.97L41.35,125.86L42.5,115.17L42.81,116.5L42.88,110.59L43.04,104.51L43.35,111.55L43.65,107.63L43.73,109.86L44.12,104.08L44.19,115.1L44.27,120.02L44.65,123.67L44.81,121.08L44.88,116.37L45.04,116.5L45.12,115.3L45.19,115.83L45.27,118.39L45.35,119.52L45.58,113.41L45.65,114.17L45.73,113.61L46.04,111.25L46.96,126.96L47.04,127.76L47.27,121.08L47.81,134.27L47.88,130.72L47.96,128.32L48.19,134.23L48.27,127.63L49.19,155.13L49.35,146.76L49.42,143.9L50.27,127.63L50.35,130.22L51.12,119.39L51.19,122.38L51.27,121.35L51.35,119.95L51.58,126.56L51.73,123.87L51.81,125.6L53.27,186.95L53.58,176.05L53.65,176.28L54.04,166.85L54.5,169.71L54.58,167.85L54.81,158.49L55.19,170.51L55.27,168.68L55.35,170.97L55.65,174.29L56.12,161.4L56.19,164.69L56.27,163.76L57.27,171.2L57.35,169.68L57.42,167.82L57.65,171.54L57.88,166.38L57.96,167.62L58.04,163.9L58.5,158.55L58.81,160.14L58.88,161.87L58.96,160.31L59.35,165.86L59.5,162.07L59.58,165.39L59.65,164.99L59.81,167.91L59.88,166.92L59.96,167.78L60.04,168.71L60.27,163.4L60.35,162L60.42,162.8L60.5,159.35L60.81,160.28L60.88,159.35L61.5,166.55L61.65,161.64L61.73,159.31L61.81,160.41L62.04,153.7L62.35,157.62L62.42,156.89L62.65,156.42L63.04,160.28L63.19,157.58L63.27,154L64.27,135.5L64.42,137.42L64.5,138.29L64.81,136.36L65.19,140.68L65.27,139.28L65.35,139.18L65.42,139.68L65.65,136.26L65.73,131.81L65.81,134.42L66.04,125.93L66.27,128.12L66.35,126.06L66.5,126.7L66.58,124.1L66.73,125.3L66.81,130.42L66.88,129.65L67.12,134.1L67.27,133.24L67.35,133.3L67.73,125.37L68.19,128.82L68.27,129.98L68.73,111.48L69.12,115.07L69.19,114.61L69.27,116L69.65,112.08L69.81,112.58L69.88,112.81L69.96,110.02L70.5,117L70.58,115.67L70.65,116.13L70.81,113.54L70.88,112.15L71.12,110.85L71.42,116.43L71.58,113.74L71.65,111.22L71.73,108.63L72.12,116.6L72.42,109.49L72.5,109.52L72.96,100.42L73.27,106.04L73.35,107.3L73.42,107.13L73.5,108.59L73.65,107.26L73.73,104.71L74.65,90.46L74.73,91.62L74.81,91.62L75.27,100.26L75.58,95.04L75.65,95.21L76.12,98.53L76.35,97.33L76.42,94.84L77.35,101.85L77.5,100.49L77.58,99.43L77.81,105.97L78.19,96.37L78.27,100.75L78.35,98.66L78.42,97.43L78.65,105.14L78.73,106.6L79.12,104.57L79.27,108.73L79.42,105.7L79.5,107.36L79.58,105.64L79.96,110.32L80.19,107.83L80.27,107.26L80.58,104.74L81.04,114.17L81.12,112.51L81.19,109.32L81.27,108.43L81.5,113.41L81.58,114.51L82.35,109.92L82.42,111.02L82.5,110.05L82.96,120.18L83.19,108.99L83.27,110.35L83.5,115.5L83.65,112.25L83.73,110.15L83.81,108.83L83.96,115.24L84.04,117.46L85.12,97.76L85.19,99.59L85.58,95.44L85.81,100.52L85.88,101.29L85.96,101.75L86.19,99.29L86.27,97.47L86.81,97.7L87.04,96.04L87.12,95.87L87.19,96.14L87.27,92.95L87.42,93.85L87.65,91.62L87.73,88.23L88.81,107.06L88.88,106.04L88.96,106.5L89.19,103.48L89.27,102.71L90.35,91.65L90.42,93.95L90.73,93.75L91.27,103.71L91.5,100.46L91.58,98.56L91.73,97.03L91.88,100.89L91.96,99.86L92.04,102.12L92.19,101.39L92.42,103.41L92.5,98.53L92.65,99.26L92.73,89.16L93.58,78.83L93.65,80.86L93.73,82.52L94.12,72.46L94.42,82.15L94.5,81.76L94.81,82.12L94.96,76.14L95.19,78.17L95.27,81.16L95.81,81.29L96.19,71.36L96.35,75.34L96.42,75.38L96.5,73.95L96.81,81.39L96.88,80.13L96.96,85.51L97.12,85.24L97.19,87.27L97.35,90.26L97.42,81.02L97.81,83.98L97.88,76.08L98.04,81.32L98.27,71.36L98.35,71.39L98.42,68.87L99.35,82.42L99.42,82.25L99.5,81.46L99.58,81.82L99.65,79.56L99.73,78.8L100.35,68.54L100.65,70.56L100.73,72.26L101.12,78.04L101.27,72.12L101.42,72.75L101.5,72.59L101.58,70.86L101.81,75.51L101.96,74.78L102.04,78.27L102.12,80.83L102.5,75.01L102.58,71.43L102.65,72.69L102.96,66.04L103.04,67.67L103.12,65.05L103.5,64.02L103.65,68.87L103.73,65.18L103.81,63.39L103.88,61.96L104.27,66.68L104.42,65.21L104.5,66.08L105.42,54.32L105.5,51.7L106.42,73.29L106.73,71.43L106.81,67.57L107.04,67.74L107.5,56.91L107.65,60.9L107.73,63.95L107.96,56.94L108.27,65.78L108.42,61.96L108.5,63.12L108.58,62.66L108.65,66.87L108.96,64.18L109.19,66.28L109.27,69.47L109.42,72.72L109.58,67.84L109.65,68.54L109.73,64.95L110.19,67.17L110.35,62.79L110.42,64.22L110.5,64.78L110.88,62.36L111.42,71.99L111.5,70.56L111.73,76.44L111.96,69.9L112.04,70.2L113.04,56.31L113.12,57.08L113.19,58.41L114.12,46.75L114.27,47.18L114.35,50.17L114.42,48.08L114.81,55.12L114.88,52.86L114.96,56.01L116.27,40.54L116.35,42.69L116.42,45.72L116.5,44.22L116.58,48.11L116.88,45.02L116.96,49.87L117.12,44.42L117.19,33.63L117.27,31.2L117.65,41.2L117.73,38.58L117.81,40.6L117.88,41.96L118.12,35.65L118.19,38.24L118.27,33.36L118.42,30.4L118.5,35.22L118.58,32.46L118.65,25.39L118.81,23.3L118.96,27.28L119.12,25.72L119.19,28.71L119.27,30.21L119.42,24.96L119.65,25.62L119.73,23.8L119.96,18.91L120.04,20.01L120.12,22.3L120.5,25.29L120.58,25.09L120.65,28.68L120.96,23.53L121.27,31.2L121.35,32.63L121.58,22.93L121.81,30.8L121.88,32.6L122.19,25.59L122.35,33.49L122.65,29.87L122.73,31.14L122.81,29.31L123.19,37.35L123.27,37.65L124.04,25.95L124.12,29.71L124.19,28.64L124.35,26.32L124.5,29.31L124.58,31L125.19,46.08L125.58,42.5L125.65,42.76L126.19,51.1L126.35,44.49L126.42,42.69L126.81,23.76L127.35,26.32L127.42,25.52L128.58,39.44L128.65,37.55L128.73,37.78L129.58,45.58L129.65,43.43L129.73,42.59L129.81,44.02L130.12,37.48L130.19,34.39L130.35,33.63L130.5,39.31L130.88,37.58L130.96,37.05L131.5,38.68L131.65,31.2L131.81,33.76L131.88,32.96L132.35,42.93L132.81,38.74L132.88,37.38L133.04,36.22L133.81,42.33L133.88,38.94L134.04,38.71L134.19,39.14L134.27,36.02L135.12,26.19L135.27,27.55L135.35,25.99L135.73,21.97L136.12,25.42L136.19,26.55L136.35,27.45L136.42,24.16L136.5,25.12L136.58,20.74L136.65,22.2L136.96,17.48L137.12,17.95L137.19,17.65L137.27,18.31L137.5,15.56L137.58,15.62L137.65,10.48L137.81,8.15L138.12,13.07L138.19,18.58L138.27,17.78L138.35,19.88L138.42,19.24L138.5,23.3L138.88,13.93L138.96,24.23L139.27,18.55L139.35,16.72L139.42,11.21L139.81,21.5L139.96,20.64L140.04,25.39L140.5,27.02L140.96,16.39L141.04,30.84L141.88,24.43L141.96,27.71L143.04,35.75L143.19,34.12L143.27,29.51L143.58,39.34L143.88,31.47L143.96,32.03L144.81,45.92L145.04,41.66L145.12,42.69L145.27,47.21L145.88,38.38L145.96,39.94L146.04,49.7L146.12,47.08L146.42,53.76L146.58,51.23L146.65,61.96L146.88,42.23L147.27,71.09L147.42,56.55L147.5,58.6L147.58,53.36L147.96,62.13L148.04,61.59L148.12,69.5L148.42,66.18L148.58,73.39L148.88,66.71L148.96,68.47L149.04,61.96L149.65,73.29L149.73,69.07L150.04,60.56L150.35,65.31L150.42,75.61L151.81,133.07L151.88,127.26L151.96,123.77L152.12,113.34L152.19,116.56L152.27,128.42L152.35,128.82L152.42,134.57L152.5,135.16L152.58,134.47L152.65,128.65L152.73,138.12L153.04,120.12L153.27,120.42L153.35,115.3L154.96,162.67L155.04,162.37L155.12,156.12L155.35,159.58L155.42,154.13L155.5,161.74L155.58,162.83L155.65,159.31L155.73,146.62L156.27,117.53L156.65,128.95L156.73,130.75L156.81,130.45L156.96,132.54L157.04,129.32L157.58,125.6L158.04,154.33L158.12,151.91L158.88,130.85L158.96,133.34L159.04,139.88L159.35,139.68L159.88,152.24L159.96,153.7L160.04,163.5L160.35,146.86L160.58,158.35L160.65,144.3L160.96,147.42L161.04,137.49L161.35,143.6L161.42,150.08L161.58,149.41L162.42,159.51L162.5,156.02L164.81,216.04L164.88,235.84L164.96,237.37L165.04,223.18L165.42,202.56L165.88,204.15L165.96,199.77L166.04,200.76L166.12,189.87L166.19,187.25L166.35,195.08L166.42,192.43L166.5,208.04L167.27,218.87L167.35,217.17L167.42,214.58L168.35,167.91L168.42,181.83L168.5,151.17L168.58,125.9L169.04,187.61L169.19,153.57L169.27,156.75L169.65,203.79L169.96,176.52L170.04,167.85L170.42,196.98L170.81,181.57L170.88,174.79L171.04,158.48L171.42,177.95L171.5,194.62L171.58,185.95L172.04,215.35L172.19,199L172.27,197.94L172.35,195.45L172.42,215.31L172.5,215.48L172.73,201.66L173.12,215.98L173.19,220.53L173.27,211.53L173.65,228.96L173.81,227.27L173.88,229.23L174.27,217.84L174.5,229.03L174.58,232.22L174.65,228.6L174.88,246.6L174.96,257.1L175.27,260.88L175.42,241.72L175.65,253.34L175.73,257.83L175.81,258.72L175.96,253.74L176.04,252.08L176.73,272.57L176.88,269.42L176.96,265.13L177.42,279.85L177.73,270.88L177.81,270.08L178.04,262.41L178.58,266.63L178.65,270.22L179.65,251.48L179.73,258.43L179.81,265.04L179.88,266.83L180.04,261.25L180.42,265.8L180.5,258.69L180.58,258.96L180.65,247.9L180.73,248.16L180.81,233.75L181.58,259.16L181.73,255.6L181.81,255.74L181.88,255.93L181.96,254.17L182.04,252.71L182.73,251.62L182.88,258.53L182.96,257.53L183.04,257.06L183.88,264.77L183.96,265L184.42,260.19L184.65,265.9L184.73,264.84L185.65,244.71L185.73,241.82L186.12,248.43L186.42,240.85L186.5,243.01L186.65,243.51L186.73,243.45L186.81,241.19L187.5,248.59L187.58,247.03L187.65,241.19L187.73,237.23L188.19,242.42L188.35,240.95L188.42,240.95L188.58,246.98L188.96,244.44L189.04,244.01L189.12,244.91L189.27,239.43L189.35,238.86L190.42,256.03L190.58,255.44L190.65,253.71L191.35,259.69L191.42,254.47L191.96,259.55L192.19,255.74L192.27,254.94L192.73,259.19L193.19,258.99L193.27,259.02L193.5,257.1L193.58,255.54L194.42,240.39L194.5,242.71L194.58,241.85L194.96,235.21L195.19,243.28L195.27,241.59L195.35,241.62L195.88,242.52L196.04,238.7L196.19,239.36L196.27,240.12L196.65,241.32L196.88,237.4L196.96,233.31L197.35,224.35L197.81,226.17L197.88,227.54L198.04,229.43L198.27,224.28L198.35,220.76L198.42,222.49L198.81,213.82L198.88,214.55L199.04,216.91L199.19,205.48L199.27,203.06L199.35,201.73L199.58,209.5L199.81,205.05L199.88,209.13L199.96,208.84L200.04,213.55L200.35,205.45L200.81,225.68L201.04,224.61L201.12,221.79L201.19,218.8L201.65,230.03L201.73,226.57L201.81,225.68L202.12,220.86L202.58,223.82L202.65,225.14L202.73,222.25L203.12,232.45L203.27,227.26L203.35,227.04L203.58,220.99L203.88,230.23L203.96,236.57L204.04,236.87L204.12,234.38L204.19,233.12L204.65,225.34L205.04,228.83L205.12,230.09L206.04,241.12L206.12,239.23L206.19,240.8L206.5,233.85L206.65,235.64L206.73,233.91L206.81,235.47L207.19,230.13L207.27,228.3L207.5,234.61L208.04,231.16L208.12,228.6L208.5,227.9L208.65,230.43L208.73,232.55L208.88,228.76L209.42,231.32L209.5,232.44L209.65,234.28L209.88,228.2L209.96,228.76L210.12,228.3L211.04,237.43L211.12,236.77L212.58,220.13L212.65,220.76L212.81,220.89L212.88,217.76L213.81,222.52L213.88,220.63L214.12,224.01L214.58,220.96L214.65,219.66L214.81,217.01L215.35,219.86L215.42,221.32L216.19,226.67L216.27,224.51L216.35,223.75L216.65,225.84L216.73,227.4L217.88,219.66L218.04,220.93L218.12,221.13L218.19,220.86L218.27,222.45L218.35,223.52L218.5,225.11L218.81,221.59L218.88,220.39L219.04,219.8L219.19,220.53L219.35,220.49L219.42,221.86L219.65,221.06L220.35,224.81L220.58,224.48L220.65,222.62L220.73,222.22L220.81,225.08L220.88,224.78L220.96,225.34L221.12,229.03L221.65,227L221.73,224.51L221.88,223.85L222.04,225.91L222.12,227L222.73,220.06L223.04,222.29L223.12,225.08L223.35,226.18L223.58,223.52L223.73,225.21L223.81,227.77L224.04,228.9L224.12,232.15L224.19,231.95L224.27,236.94L225.19,251.42L225.27,249.29L225.35,247.17L225.42,248.59L225.73,243.45L225.96,248.26L226.04,245.16L226.5,243.35L226.88,252.41L226.96,252.11L227.04,248.86L227.42,255.93L227.58,252.25L227.65,248.63L227.73,250.12L227.96,243.61L228.19,248.59L228.27,244.91L228.35,246.83L228.81,240.62L228.88,240.79L229.58,247.33L229.73,246.87L229.81,245.84L230.12,249.09L230.19,250.42L230.27,252.55L230.73,247.53L230.81,245.44L231.58,252.78L231.65,250.39L231.73,249.52L232.81,239.43L232.88,239.92L232.96,240.26L233.19,238.76L233.35,244.41L233.42,243.18L233.5,246.3L234.73,235.41L234.81,236.6L234.88,238.96L235.19,237.53L235.42,238.73L235.5,239.76L235.58,241.75L235.96,236.5L236.04,229.69L236.27,226.17L236.5,230.03L236.81,228.96L236.88,229.46L237.42,234.01L237.73,232.3L237.81,231.06L238.19,234.74L238.5,233.65L238.58,232.75L239.58,240.69L239.73,239.06L239.81,237.87L240.04,237.63L240.35,242.88L240.73,242.52L240.81,241.35L240.88,241.88L241.12,238.8L241.19,236.7L241.27,236.2L241.35,238.35L241.42,237.83L241.5,240.09L241.96,235.94L242.27,238.99L242.35,238.5L242.73,236.77L243.12,241.98L243.19,241.32L243.27,239.99L243.58,241.42L243.65,238.5L243.73,238.86L243.81,238.1L244.04,238.7L244.12,239.16L244.42,235.94L244.65,237.17L244.73,238.25L245.88,230.46L246.35,231.55L246.42,233.85L246.81,232.25L246.88,231.06L247.35,226.57L247.65,228.1L247.73,230.03L247.88,230.13L247.96,231.12L248.35,229.03L248.58,229.43L248.65,233.58L249.12,237.43L249.42,234.34L249.5,232.75L249.58,232.58L249.65,235.08L249.81,234.21L249.96,235.64L250.04,236.24L250.19,236.47L250.27,235.47L250.35,235.11L250.96,228.57L251.27,230.76L251.35,231.19L251.65,226.14L252.35,226.64L252.42,226.47L253.73,219.2L253.96,219.36L254.04,221.19L254.27,222.85L254.65,220.96L254.73,220L255.27,215.91L255.58,216.87L255.65,217.8L255.73,217.6L255.96,218.34L256.04,218.37L256.12,219.07L256.73,218.53L257.04,223.55L257.12,223.52L257.19,222.62L257.27,222.95L257.35,220.96L257.42,219.9L257.81,221.06L257.88,219.51L257.96,217.84L258.81,209.37L258.96,211.03L259.04,210.99L259.35,206.38L259.58,211.19L259.65,213.15L260.58,208.67L260.65,209L261.35,197.87L261.65,201.83L261.73,200.66L262.12,198.94L262.5,204.38L262.58,204.19L262.65,202.92L262.81,201.23L263.04,204.88L263.27,203.02L263.35,204.55L263.42,204.35L263.5,205.98L263.58,205.51L263.65,206.01L263.88,203.02L264.12,208.64L264.27,207.21L264.35,208.47L265.19,203.62L265.27,205.88L266.12,211.43L266.19,208.9L266.42,212.06L266.81,204.98L266.88,204.15L266.96,202.03L267.12,208.8L267.5,206.91L267.58,206.94L267.81,207.04L267.88,206.08L268.04,207.57L268.12,202.92L268.5,204.38L268.58,205.48L268.65,207.67L269.12,203.42L269.27,204.38L269.35,205.45L269.58,202.62L269.96,206.81L270.04,206.51L270.12,208.14L270.81,201.86L270.96,202.19L271.04,202.89L271.27,201L271.73,201.2L271.81,196.84L271.88,195.82L272.12,201.96L272.19,202.52L272.5,208.67L272.88,203.19L272.96,201.99L273.42,202.29L273.88,197.74L273.96,198.67L274.27,196.51L274.73,197.04L274.81,196.98L274.96,191.8L275.27,201.06L275.35,202.29L275.65,196.11L276.04,199.44L276.12,203.12L276.58,200.96L276.96,206.21L277.04,205.35L277.42,207.41L277.65,204.92L277.73,203.02L278.04,208.3L278.58,206.81L278.65,206.38L279.27,201.4L279.5,202.99L279.58,204.45L279.88,201.36L280.35,203.49L280.42,203.39L280.58,202.49L281.27,206.64L281.42,206.24L281.5,204.55L281.58,204.88L281.65,203.42L281.73,201.53L282.42,209.87L282.73,208.44L282.81,207.66L282.88,207.99L283.12,206.21L283.19,205.02L283.73,203.85L283.96,204.82L284.04,205.15L284.12,206.01L284.35,203.12L284.58,203.29L284.65,202.16L284.73,201.69L284.88,204.15L284.96,204.05L285.04,205.31L285.12,204.29L285.42,206.64L285.58,206.41L285.65,208.34L285.73,207.27L286.04,212.79L286.12,215.15L287.65,202.52L287.73,204.12L287.81,204.58L288.27,203.95L288.58,210.83L288.81,208.97L288.88,206.38L289.19,210.33L289.27,211.76L289.42,212.56L289.5,210.2L289.58,207.71L289.73,207.77L290.04,205.98L290.27,207.41L290.35,210.93L291.12,220.36L291.19,220.16L291.27,217.44L291.58,222.09L291.88,217.34L291.96,218.93L292.04,216.01L292.35,216.64L292.58,213.04L292.88,213.98L292.96,213.49L293.12,213.59L293.19,212.57L293.73,213.19L293.88,208.24L294.04,210.23L294.12,210.53L294.35,210.2L294.73,213.62L294.81,211.69L294.88,211.69L295.12,212.02L295.27,210.8L295.35,209.92L295.65,208.64L295.96,210.98L296.04,208.74L296.27,210.08L296.5,207.26L296.58,207.31L296.65,205.88L296.88,206.44L297.12,205.38L297.19,204.58L297.35,205.91L297.5,203.62L297.88,204.19L297.96,204.65L298.12,206.38L298.19,200L298.27,198.67L298.35,199.1L298.42,195.62L298.5,195.72L298.65,193.72L298.73,195.28L298.81,195.25L299.19,196.65L299.58,193.44L299.65,196.68L299.81,195.27L300.04,199.93L300.12,202.56L300.88,195.32L301.04,197.11L301.12,198.54L301.35,197.04L301.58,198.97L301.73,198.37L301.81,199.34L301.88,196.68L302.04,201.79L302.42,201.43L302.5,205.68L302.73,213.29L303.04,205.05L303.19,207.71L303.27,206.64L303.88,204.52L304.04,210.13L304.12,208.9L304.19,209.83L304.35,209.63L304.42,207.74L304.81,210.63L305.04,205.98L305.12,205.85L305.81,209.96L305.88,208.67L305.96,206.41L306.12,208.17L306.19,203.79L306.35,205.81L306.65,202.69L306.73,199.44L306.88,199.14L307.12,203.45L307.58,202.16L307.65,201.89L307.96,200.37L308.04,201.93L308.12,203.49L308.19,201.1L308.58,210.5L308.65,211.86L308.81,207.67L308.96,212.66L309.42,209L309.5,210.13L309.81,216.18L309.88,218.73L310.73,233.65L310.96,227.8L311.04,226.04L311.73,235.27L311.81,231.65L311.88,229.36L312.04,231.06L312.12,230.26L312.19,227.6L312.35,232.7L312.81,223.12L312.88,220.53L312.96,220.2L313.04,222.72L313.12,223.05L313.73,217.04L313.96,218.27L314.04,219.17L314.65,223.98L314.81,222.59L314.88,220.03L315.73,208.9L315.88,209.96L315.96,210.03L316.65,215.41L316.81,214.35L316.88,210.56L316.96,211.89L317.27,207.81L317.42,207.84L317.5,208.3L317.81,204.62L318.12,208.4L318.19,209.96L318.81,207.84L318.96,223.02L319.19,217.9L319.27,218.6L319.35,223.52L319.88,214.95L319.96,214.98L320.04,215.48L320.5,213.05L320.58,208.44L320.88,211.56L321.12,205.41L321.42,207.44L321.5,207.91L322.65,198.51L322.73,200.43L323.04,198.61L323.19,201.59L323.27,200.57L323.35,202.06L323.5,202.16L323.58,201.76L323.65,200.8L323.81,201.66L324.35,195.68L324.58,195.72L324.65,197.41L324.81,200.53L324.96,199.57L325.04,197.84L325.35,193.66L325.81,194.29L325.88,198.54L326.19,193.76L326.27,186.38L327.04,171.44L327.12,171.5L327.19,173.79L327.27,173.49L327.35,169.21L328.42,155.53L328.5,156.42L328.58,156.09L328.73,155.46L328.81,157.62L328.88,159.25L329.5,155.49L329.65,155.72L329.73,162.63L330.27,156.99L330.5,161.24L330.58,160.34L330.65,162.63L331.12,156.65L331.19,154.96L332.04,146.82L332.12,152.04L332.19,150.71L332.73,153.6L332.81,154.99L332.88,154.03L333.04,157.92L333.12,165.72L333.19,166.09L333.58,164.13L333.65,160.61L334.42,170.34L334.65,168.58L334.73,164.93L334.88,162L335.35,168.58L335.58,166.02L335.65,164.53L336.19,171.87L336.42,167.82L336.5,164.06L336.81,168.94L337.27,166.98L337.35,163.9L337.88,157.35L338.12,160.87L338.19,162.1L339.04,151.24L339.27,152.84L339.35,154.1L339.65,156.75L339.81,153.07L339.88,149.68L340.42,148.19L340.81,154.86L340.88,151.94L340.96,151.47L341.04,151.51L341.12,155.72L341.27,156.75L341.5,153.96L341.58,152.9L342.19,164.1L342.58,159.68L342.65,157.62L343.81,142.34L343.88,144.13L343.96,142.9L344.19,146.59L344.27,145.96L344.35,148.62L344.96,144.9L345.12,147.06L345.19,147.85L345.27,145.76L345.65,155.33L345.73,155.46L346.73,136.79L346.81,135.03L346.88,129.52L347.5,137.89L347.58,135.26L347.88,130.45L348.35,132.97L348.42,133.17L348.65,133.24L349.96,118.76L350.04,121.51L350.35,132.94L350.73,119.45L350.81,118.46L350.96,115.83L351.04,119.62L351.12,116.43L351.19,114.41L351.42,120.75L351.73,112.28L351.81,115.04L351.88,111.91L352.65,131.21L353.12,128.85L353.19,125.83L353.27,125.7L353.35,130.51L353.65,121.58L353.81,124.3L353.88,128.92L354.12,122.68L354.19,121.15L355.27,109.36L355.35,110.02L355.81,106.93L355.96,109.19L356.04,111.88L356.27,119.32L356.73,111.42L356.81,113.48L357.65,121.91L357.73,125.17L357.81,124.77L357.88,126.36L357.96,125.47L358.04,127.56L358.19,126.73L358.27,122.24L358.58,129.45L358.81,121.55L358.96,125.3L359.04,122.68L359.19,130.25L359.81,124.57L359.88,124.07L360.19,126.76L360.65,121.28L360.73,121.78L360.81,123.41L361.35,122.28L362.12,130.28L362.19,128.39L362.27,126.99L362.35,126.76L362.42,128.99L362.58,132.11L362.65,134.3L362.88,137.19L362.96,132.71L363.19,128.36L363.42,138.02L363.5,141.21L363.73,140.48L363.88,145.36L363.96,150.74L364.88,136.26L364.96,133.9L365.73,145.2L365.88,142.21L365.96,140.91L366.04,141.24L366.12,139.75L366.19,140.65L366.27,148.95L367.27,173.46L367.58,166.05L367.65,163.26L367.73,164.03L367.88,159.25L367.96,157.95L369.81,135.66L369.88,136.79L369.96,138.85L370.19,131.05L370.5,133.9L370.58,131.71L370.73,131.41L370.88,132.67L370.96,136.39L371.58,135.16L371.88,156.42L372.04,151.97L372.12,152.34L373.04,140.55L373.27,140.74L373.35,144.27L373.42,146.23L373.81,137.22L373.88,137.52L374.12,135.13L374.96,152.24L375.04,149.31L375.58,158.32L376.04,155.76L376.12,153.83L376.5,151.77L376.88,155.26L376.96,153.96L377.81,147.32L377.88,150.68L378.04,152.3L378.19,148.25L378.27,151.14L378.35,159.11L378.73,150.31L378.96,160.04L379.04,164.59L379.27,161.44L379.58,169.68L379.65,171.17L380.04,164.73L380.5,164.89L380.58,169.21L380.88,160.64L380.96,156.36L381.27,151.31L381.65,154.23L381.73,155.99L382.04,153.5L382.19,161.01L382.42,157.09L382.5,161.17L383.19,149.68L383.27,141.67L383.42,143.57L383.5,142.11L383.58,139.28L383.81,140.38L384.27,131.74L384.42,132.91L384.5,136.54L384.88,139L384.96,138.15L385.04,135.43L385.12,134.73L385.42,136.96L385.5,140.05L386.04,129.29L386.65,130.22L386.73,129.78L387.04,127.19L387.5,133.07L387.58,131.91L387.65,130.58L388.58,150.28L388.73,146.33L388.81,141.91L390.04,168.68L390.12,164.19L391.27,221.39L391.35,217.74L391.96,219.4L392.27,198.42L392.42,203.26L392.5,208.34L392.58,211.89L393.04,203.52L393.12,199.1L393.27,194.62L393.65,202.13L393.73,203.16L394.04,213.98L394.42,198.01L394.5,199.3L394.58,201.1L395.35,166.62L395.42,170.82L395.5,179.27L395.81,178.58L396.27,191.03L396.35,187.61L397.04,200.27L397.12,194.39L397.19,192.16L397.58,195.02L397.81,188.38L397.88,189.67L398.42,194.32L398.58,193.19L398.65,189.14L398.81,183.82L399.19,192.63L399.27,192.06L399.35,194.65L399.42,196.45L399.73,190.8L400.04,193.79L400.12,193.46L400.19,189.5L400.42,198.01L400.81,196.68L400.88,197.01L401.19,207.64L401.65,202.23L401.73,197.48L401.88,194.59L402.65,201.53L402.73,194.25L403.04,199.73L403.35,186.91L403.42,198.61L404.04,169.34L404.27,173.86L404.35,174.21L405.04,155.18L405.27,159.48L405.35,159.74L405.5,166.15L405.96,161.74L406.04,156.85L406.27,159.31L406.58,156.52L406.65,140.25L407.12,132.26L407.35,140.94L407.42,143.97L407.5,141.54L407.73,155.86L407.81,151.34L407.88,154.76L409.19,112.78L409.5,121.21L409.58,121.21L409.65,122.14L409.73,116.07L409.81,109.99L410.12,105.2L410.73,125.3L410.81,119.55L410.96,122.38L411.65,113.44L411.73,116.93L411.81,114.57L412.12,127.49L412.19,123.17L412.27,126.81L413.12,104.51L413.27,106.93L413.35,111.55L413.58,101.19L414.04,115.3L414.12,112.98L414.5,107.76L414.81,113.31L414.88,118.42L414.96,117.79L415.04,121.95L415.19,118.26L415.27,129.92L415.35,134.3L415.73,117.1L415.88,126.33L415.96,125.8L416.04,122.61L416.35,135.83L416.58,130.61L416.65,130.78L416.73,129.75L416.81,136.63L416.88,142.94L417.5,125.86L417.73,126.2L417.81,127.89L418.19,115.5L418.58,123.21L418.65,124.77L419.12,106.9L419.58,110.39L419.65,113.71L419.88,107.7L420.27,116.46L420.35,117.46L421.04,89.46L421.35,90.56L421.42,93.98L421.58,94.97L421.96,85.14L422.04,86.9L422.12,80.86L422.42,92.55L422.65,89.03L422.73,82.88L422.81,87.83L423.42,80.69L423.5,81.19L423.58,81.42L423.65,84.11L423.81,76.81L424.12,91.85L424.19,94.21L424.5,87.34L424.81,98.2L424.88,94.54L424.96,92.92L425.04,90.56L425.19,104.08L425.73,91.69L425.81,91.59L426.58,66.71L426.65,70.76L426.73,81.59L426.88,96.27L427.27,75.01L427.35,76.11L427.42,72.02L427.58,72.52L427.73,63.39L427.81,55.68L428.19,54.55L428.65,78.93L428.73,65.58L428.81,65.91L429.19,94.68L429.58,85.48L429.65,84.28L430.27,65.28L430.42,69.73L430.5,77.6L431.35,92.38L431.42,89.86L431.5,83.71L431.73,99.62L431.81,98.46L431.88,115.93L431.96,115.34L432.04,108.76L432.35,103.81L432.96,125.57L433.04,119.02L433.27,128.69L433.65,111.91L433.73,111.91L434.12,110.75L434.42,131.68L434.73,127.79L434.81,125.27L435.04,124.24L435.58,133.94L435.65,130.38L436.04,140.15L436.19,132.41L436.27,126.66L436.88,120.18L437.12,122.14L437.19,124.3L437.81,105.44L438.12,115.37L438.19,114.74L438.27,114.44L438.35,111.02L438.88,119.82L438.96,114.21L439.04,107.86L439.27,111.05L439.42,105.5L439.65,109.72L439.73,111.72L440.88,140.48L440.96,133.4L441.19,128.72L441.35,144.83L441.5,136.03L441.58,130.28L441.88,128.85L442.12,141.54L442.42,136.26L442.5,122.44L442.58,117.39L442.96,133.04L443.04,132.61L443.12,131.11L443.35,134.53L443.65,127.82L443.73,140.55L444.5,149.45L444.58,148.15L444.65,143.37L445.73,130.48L445.81,130.68L445.88,132.44L445.96,141.08L446.5,124.1L446.58,127.89L446.65,124.8L447.04,119.39L447.12,124.2L447.19,126.53L447.35,125.67L447.58,130.68L447.65,130.55L447.73,135.96L448.12,133.24L448.5,147.12L448.58,146.33L448.65,164L449.42,210.2L449.58,203.95L449.65,201.89L449.73,198.27L450.04,209.33L450.42,200.76L450.5,197.91L450.81,192.69L451.65,235.17L451.73,222.45L451.81,220.79L451.88,220.26L451.96,222.49L452.04,226.04L452.12,226.87L452.19,220.56L452.27,222.45L452.35,214.45L452.65,203.75L453.19,204.82L453.27,205.98L453.5,195.07L453.81,208.17L453.96,206.28L454.04,208.87L454.12,208.54L454.19,211.79L454.27,213.02L454.42,210.7L454.65,212.16L454.73,207.91L454.88,209.1L454.96,205.12L455.04,203.19L456.12,172.86L456.27,178.14L456.35,179.71L456.88,174.16L456.96,177.12L457.04,182.7L457.42,191.46L457.81,183.66L457.88,185.15L458.27,188.91L458.5,178.18L458.73,178.74L458.81,181.2L459.65,192.03L459.88,189.47L459.96,188.54L460.42,179.34L460.58,194.29L460.65,201.86L460.88,202.96L460.96,200.23L461.04,203.55L461.42,185.92L461.81,192.03L461.88,192.73L462.04,181.53L462.65,186.61L462.73,183.66L462.81,183.03L462.88,174.09L463.12,177.98L463.5,162.47L463.58,149.68L463.88,160.08L464.35,155.66L464.42,154.76L464.73,153.43L465.27,166.79L465.35,163.13L465.81,152.14L465.96,162.2L466.04,171L466.19,172.27L466.81,163.46L466.96,168.21L467.04,169.84L467.12,169.68L467.19,171.73L467.42,174.89L467.5,170.41L467.65,171.27L467.73,165.36L467.96,161.07L468.12,165.52L468.19,164.96L468.27,169.18L468.42,169.41L468.5,169.24L468.58,164.13L468.73,166.35L469.58,156.85L469.65,164.89L469.73,164.33L469.88,167.15L469.96,170.17L470.12,171.04L470.19,168.78L470.27,164.13L470.73,165.92L471.58,151.57L471.65,152.77L471.73,152.04L471.96,155.92L472.04,160.01L472.27,162.9L472.42,157.92L472.5,161.77L472.58,164.76L472.81,163.4L472.96,166.19L473.04,160.44L473.19,166.02L473.58,160.37L473.81,161.67L473.88,157.32L473.96,157.49L474.04,155.33L474.19,160.24L474.35,155.53L474.42,150.71L475.12,126.89L475.42,129.29L475.5,128.95L475.58,129.75L475.65,139.88L476.35,150.74L476.42,148.15L476.5,146.62L476.65,147.39L476.88,135.6L477.35,139.81L477.42,144.3L477.58,151.81L478.12,145.53L478.19,145.23L478.27,140.45L478.58,149.68L478.81,144.53L478.88,149.91L479.04,147.95L479.12,142.41L479.27,144.53L479.5,135.4L479.58,135.03L479.96,137.16L480.5,125.57L480.58,128.46L480.65,130.51L480.73,131.44L480.81,128.59L480.88,100.92L480.96,110.22L481.65,106.53L481.73,104.94L481.88,96.34L482.42,104.97L482.5,104.87L483.19,127.46L483.5,117.53L483.58,119.75L484.04,117.36L484.19,124.2L484.27,120.85L484.35,113.77L484.65,105.3L485.12,109.92L485.19,107.76L485.96,117.2L486.04,116.23L486.12,112.78L487.12,134.8L487.19,144.53L487.35,142.14L487.42,145.26L487.5,139.85L487.65,141.18L488.04,131.94L488.35,135.76L488.42,137.02L488.5,133.84L488.58,155.86L488.65,163.9L488.88,149.48L489.42,156.49L489.5,158.12L490.42,146.03L490.5,146.89L490.65,135.56L491.19,145.4L491.27,146.66L492.12,135.96L492.19,138.92L492.5,144.33L492.58,140.84L492.65,140.01L493.81,112.31L494.12,112.71L494.19,113.41L494.27,112.55L494.42,118.09L494.5,117.43L494.58,117.49L495.19,131.31L495.42,124.8L495.5,122.48L495.58,122.78L495.65,126.43L496.65,108.36L496.81,111.98L496.88,112.38L497.27,113.71L497.42,104.91L497.65,111.08L497.73,112.35L497.88,110.25L498.19,114.07L498.42,113.01L498.5,115.04L498.58,115.93L498.65,127.49L498.81,117.79L498.96,145.49L499.04,136.39"
                   style="vector-effect: none; fill: none; stroke: rgb(69, 90, 100); stroke-opacity: 1; stroke-width: 1.2px; opacity: 1;"
                   id="path74" />
              </g>
              <g
                 class="points"
                 id="g76" />
              <g
                 class="text"
                 id="g77" />
            </g>
            <g
               class="trace scatter tracee98727"
               style="stroke-miterlimit: 2; opacity: 1;"
               id="g84">
              <g
                 class="fills"
                 id="g79" />
              <g
                 class="errorbars"
                 id="g80" />
              <g
                 class="lines"
                 id="g81">
                <path
                   class="js-line"
                   d="M-518.27,293.62L-450.65,296.79L-450.58,296.78L-284.81,288.66L-284.73,288.65L-258.96,281.61L-258.88,281.56L-247.73,280.1L-247.65,280.12L-202.04,291.69L-201.96,291.69L-163.12,287.1L-163.04,287.07L-147.12,282.09L-147.04,282.08L-135.88,277.44L-135.81,277.38L-119.12,265.91L-119.04,265.93L-107.12,268.76L-107.04,268.77L-88.73,268.95L-88.65,268.92L-83.58,264.98L-83.5,264.88L-66.65,240.79L-66.58,240.73L-58.58,233.11L-58.5,232.99L-54.58,223.38L-54.5,223.16L-30.65,155.47L-30.58,155.24L-25.65,143.98L-25.58,143.88L-23.58,143.27L-23.5,143.31L-22.42,141.6L-22.35,141.42L-13.73,119.77L-13.65,119.39L-8.04,101.35L-7.96,101.22L-6.27,100.67L-6.19,100.69L-2.96,101.2L-2.88,101.13L-0.42,100.39L-0.35,100.49L1.19,104.64L1.27,104.86L3.5,111.65L3.58,112.04L6.12,122.24L6.19,122.56L8.58,129.46L8.65,129.59L10.73,132.05L10.81,132.24L13.58,141.56L13.65,141.88L15.73,147.29L15.81,147.3L17.27,147.12L17.35,147.19L18.19,146.78L18.27,146.6L19.42,142.22L19.5,141.84L23.5,129.42L23.58,129.41L24.65,128.3L24.73,128.21L27.12,124.2L27.19,124.05L28.42,120.66L28.5,120.39L31.27,114.68L31.35,114.6L33.19,114.09L33.27,114.14L34.04,115.65L34.12,115.88L37.35,123.62L37.42,123.68L39.27,124.47L39.35,124.48L45.27,125.28L45.35,125.35L47.81,127.52L47.88,127.6L49.73,128.12L49.81,128.05L52.42,125.52L52.58,125.79L52.65,125.92L53.58,128.39L53.65,128.64L63.81,155.7L63.88,155.73L67.81,155.75L67.88,155.6L69.04,151.96L69.12,151.67L79.81,112L79.88,111.85L82.88,107.64L82.96,107.59L87.65,103.34L87.73,103.23L89.04,102.9L89.12,102.9L93.19,102.84L93.27,102.72L96.12,97.84L96.19,97.65L102.5,85.21L102.58,85.09L104.5,80.98L104.58,80.76L108.27,72.04L108.35,71.93L111.19,69.35L111.27,69.29L112.73,68.15L112.81,68.04L118.12,58.58L118.19,58.42L126.27,41.53L126.35,41.42L129.81,35.64L129.88,35.6L133.73,33.68L133.81,33.74L136.81,34.22L136.88,34.16L138.19,32.88L138.27,32.79L142.73,29.32L142.81,29.36L144.88,29.55L144.96,29.53L146.42,30.12L146.5,30.21L150.42,37.01L150.5,37.29L152.12,46.08L152.19,46.57L163.81,131.61L163.88,132.27L168.5,164.74L168.58,164.75L172.19,174.45L172.27,174.78L174.65,186.92L174.73,187.38L180.5,222.34L180.58,222.55L183.35,231.07L183.42,231.41L188.42,253.11L188.5,253.24L190.73,255.55L190.81,255.63L191.96,255.53L192.04,255.46L195.42,251.57L195.5,251.44L199.12,245.55L199.19,245.26L201.65,238.62L201.73,238.54L208.42,230.19L208.5,230.03L210.35,228.05L210.42,228.03L214.5,226.43L214.58,226.51L216.88,227.89L216.96,227.88L220.96,226.55L221.04,226.51L224.42,225.01L224.5,225.07L228.58,230.18L228.65,230.3L235.27,239.8L235.35,239.87L237.04,240.65L237.12,240.68L240.58,241.85L240.65,241.81L245.35,239.27L245.42,239.21L250.12,235.25L250.19,235.25L253.81,233.81L253.88,233.74L256.12,230.96L256.19,230.85L260.12,225L260.19,224.87L269.81,209.52L269.88,209.45L276.73,203.42L276.81,203.44L280.73,203.58L280.81,203.55L283.65,203.21L283.73,203.2L287.04,203.87L287.12,203.89L290.96,205.95L291.04,206.06L292.96,207.8L293.04,207.84L296.58,209.33L296.65,209.32L299.04,208.64L299.12,208.6L303.27,206.88L303.35,206.9L306.5,206.4L306.58,206.33L309.04,204.56L309.12,204.55L310.58,205.21L310.65,205.31L317.58,213.75L317.65,213.77L322.73,215.02L322.81,215.01L324.81,214.08L324.88,214.02L325.96,212.2L326.04,212.04L327.73,205.88L327.81,205.52L331.35,191.64L331.42,191.34L336.5,174.49L336.58,174.29L342.65,159.06L342.73,158.99L348.73,153.1L348.81,152.91L357.19,130.85L357.27,130.65L359.65,126.57L359.73,126.45L362.81,122.85L362.88,122.85L364.12,123.38L364.19,123.47L367.04,127.95L367.12,128.23L368.73,131.96L368.81,132.02L370.96,134.49L371.04,134.64L374.65,140.08L374.73,140.19L382.04,150.64L382.12,150.63L383.65,149.45L383.73,149.38L385.73,148.97L385.81,148.99L387.12,148.49L387.19,148.41L388.58,147.66L388.65,147.7L389.73,148.31L389.81,148.4L390.96,151.09L391.04,151.35L395.27,164.45L395.35,164.45L396.5,165.94L396.58,166.12L401.42,181.8L401.5,182.17L404.42,192.32L404.5,192.39L405.65,192.8L405.73,192.7L406.73,189.37L406.81,188.99L412.5,162.9L412.58,162.53L417.27,139.39L417.35,139.07L422.42,117.49L422.5,117.29L425.73,108.42L425.81,108.33L427.88,102.36L427.96,102.05L430.04,97.41L430.12,97.24L432.73,91.9L432.81,91.88L434.81,92.13L434.88,92.21L436.42,94.8L436.5,94.98L441.42,104.94L441.5,105.26L447.42,126.21L447.5,126.28L448.96,129.18L449.04,129.6L456.88,170.12L456.96,170.35L462.73,190.83L462.81,191.12L463.96,193.35L464.12,193.23L464.19,192.99L472.27,172.37L472.35,172.29L475.12,166.86L475.19,166.57L478.5,156.9L478.58,156.78L481.42,151.28L481.5,150.96L486.27,134.14L486.35,133.98L488.81,130.48L488.88,130.4L490.88,130.98L490.96,131.02L493.04,130.42L493.12,130.32L495.65,126.89L495.73,126.87L497.35,127.11L497.42,127.13L499.04,127.62"
                   style="vector-effect: none; fill: none; stroke: rgb(2, 119, 189); stroke-opacity: 1; stroke-dasharray: 9px, 3px, 3px, 3px; stroke-width: 1.2px; opacity: 1;"
                   id="path80" />
              </g>
              <g
                 class="points"
                 id="g82" />
              <g
                 class="text"
                 id="g83" />
            </g>
          </g>
        </g>
        <g
           class="xy2"
           transform="translate(40,22)"
           clip-path="url(#clip070345xy2plot)"
           id="g87" />
      </g>
      <path
         class="xlines-above crisp"
         d="M39,310.5H565M39,21.5H565"
         style="fill: none; stroke-width: 1px; stroke: rgb(0, 0, 0); stroke-opacity: 1;"
         id="path88" />
      <path
         class="ylines-above crisp"
         d="M39.5,22V310M564.5,22V310"
         style="fill: none; stroke-width: 1px; stroke: rgb(0, 0, 0); stroke-opacity: 1;"
         id="path89" />
      <g
         class="overlines-above"
         id="g91">
        <path
           class="xy2-x crisp"
           d="M0,0"
           style="fill: none;"
           id="path90" />
        <path
           class="xy2-y crisp"
           d="M564.5,22V310M39.5,22V310"
           style="fill: none; stroke-width: 1px; stroke: rgb(0, 0, 0); stroke-opacity: 1;"
           id="path91" />
      </g>
      <g
         class="xaxislayer-above"
         id="g104">
        <path
           class="xtick ticks crisp"
           d="M0,310v-5"
           transform="translate(123.19,0)"
           style="stroke: rgb(0, 0, 0); stroke-opacity: 1; stroke-width: 1px;"
           id="path92" />
        <path
           class="xtick ticks crisp"
           d="M0,310v-5"
           transform="translate(206.35,0)"
           style="stroke: rgb(0, 0, 0); stroke-opacity: 1; stroke-width: 1px;"
           id="path93" />
        <path
           class="xtick ticks crisp"
           d="M0,310v-5"
           transform="translate(289.58000000000004,0)"
           style="stroke: rgb(0, 0, 0); stroke-opacity: 1; stroke-width: 1px;"
           id="path94" />
        <path
           class="xtick ticks crisp"
           d="M0,310v-5"
           transform="translate(372.73,0)"
           style="stroke: rgb(0, 0, 0); stroke-opacity: 1; stroke-width: 1px;"
           id="path95" />
        <path
           class="xtick ticks crisp"
           d="M0,310v-5"
           transform="translate(455.88,0)"
           style="stroke: rgb(0, 0, 0); stroke-opacity: 1; stroke-width: 1px;"
           id="path96" />
        <path
           class="xtick ticks crisp"
           d="M0,310v-5"
           transform="translate(539.04,0)"
           style="stroke: rgb(0, 0, 0); stroke-opacity: 1; stroke-width: 1px;"
           id="path97" />
        <g
           class="xtick"
           id="g97">
          <text
             text-anchor="middle"
             x="0"
             y="320.6"
             transform="translate(40.04,0)"
             style="font-family: 'Segoe UI Semibold', 'Segoe UI', Arial; font-size: 8px; fill: rgb(0, 0, 0); fill-opacity: 1; white-space: pre; opacity: 1;"
             id="text97">03 Jan 2000</text>
        </g>
        <g
           class="xtick"
           id="g98">
          <text
             text-anchor="middle"
             x="0"
             y="320.6"
             transform="translate(123.19,0)"
             style="font-family: 'Segoe UI Semibold', 'Segoe UI', Arial; font-size: 8px; fill: rgb(0, 0, 0); fill-opacity: 1; white-space: pre; opacity: 1;"
             id="text98">23 Apr 2004</text>
        </g>
        <g
           class="xtick"
           id="g99">
          <text
             text-anchor="middle"
             x="0"
             y="320.6"
             transform="translate(206.35,0)"
             style="font-family: 'Segoe UI Semibold', 'Segoe UI', Arial; font-size: 8px; fill: rgb(0, 0, 0); fill-opacity: 1; white-space: pre; opacity: 1;"
             id="text99">08 Aug 2008</text>
        </g>
        <g
           class="xtick"
           id="g100">
          <text
             text-anchor="middle"
             x="0"
             y="320.6"
             transform="translate(289.58000000000004,0)"
             style="font-family: 'Segoe UI Semibold', 'Segoe UI', Arial; font-size: 8px; fill: rgb(0, 0, 0); fill-opacity: 1; white-space: pre; opacity: 1;"
             id="text100">26 Nov 2012</text>
        </g>
        <g
           class="xtick"
           id="g101">
          <text
             text-anchor="middle"
             x="0"
             y="320.6"
             transform="translate(372.73,0)"
             style="font-family: 'Segoe UI Semibold', 'Segoe UI', Arial; font-size: 8px; fill: rgb(0, 0, 0); fill-opacity: 1; white-space: pre; opacity: 1;"
             id="text101">14 Mar 2017</text>
        </g>
        <g
           class="xtick"
           id="g102">
          <text
             text-anchor="middle"
             x="0"
             y="320.6"
             transform="translate(455.88,0)"
             style="font-family: 'Segoe UI Semibold', 'Segoe UI', Arial; font-size: 8px; fill: rgb(0, 0, 0); fill-opacity: 1; white-space: pre; opacity: 1;"
             id="text102">29 Jun 2021</text>
        </g>
        <g
           class="xtick"
           id="g103">
          <text
             text-anchor="middle"
             x="0"
             y="320.6"
             transform="translate(539.04,0)"
             style="font-family: 'Segoe UI Semibold', 'Segoe UI', Arial; font-size: 8px; fill: rgb(0, 0, 0); fill-opacity: 1; white-space: pre; opacity: 1;"
             id="text103">17 Oct 2025</text>
        </g>
      </g>
      <g
         class="yaxislayer-above"
         id="g111">
        <path
           class="ytick ticks crisp"
           d="M40,0h5"
           transform="translate(0,256.94)"
           style="stroke: rgb(0, 0, 0); stroke-opacity: 1; stroke-width: 1px;"
           id="path104" />
        <path
           class="ytick ticks crisp"
           d="M40,0h5"
           transform="translate(0,190.51)"
           style="stroke: rgb(0, 0, 0); stroke-opacity: 1; stroke-width: 1px;"
           id="path105" />
        <path
           class="ytick ticks crisp"
           d="M40,0h5"
           transform="translate(0,124.08)"
           style="stroke: rgb(0, 0, 0); stroke-opacity: 1; stroke-width: 1px;"
           id="path106" />
        <path
           class="ytick ticks crisp"
           d="M40,0h5"
           transform="translate(0,57.65)"
           style="stroke: rgb(0, 0, 0); stroke-opacity: 1; stroke-width: 1px;"
           id="path107" />
        <g
           class="ytick"
           id="g107">
          <text
             text-anchor="end"
             x="37.4"
             y="2.8"
             transform="translate(0,256.94)"
             style="font-family: 'Segoe UI Semibold', 'Segoe UI', Arial; font-size: 8px; fill: rgb(0, 0, 0); fill-opacity: 1; white-space: pre; opacity: 1;"
             id="text107">20</text>
        </g>
        <g
           class="ytick"
           id="g108">
          <text
             text-anchor="end"
             x="37.4"
             y="2.8"
             style="font-family: 'Segoe UI Semibold', 'Segoe UI', Arial; font-size: 8px; fill: rgb(0, 0, 0); fill-opacity: 1; white-space: pre; opacity: 1;"
             transform="translate(0,190.51)"
             id="text108">40</text>
        </g>
        <g
           class="ytick"
           id="g109">
          <text
             text-anchor="end"
             x="37.4"
             y="2.8"
             style="font-family: 'Segoe UI Semibold', 'Segoe UI', Arial; font-size: 8px; fill: rgb(0, 0, 0); fill-opacity: 1; white-space: pre; opacity: 1;"
             transform="translate(0,124.08)"
             id="text109">60</text>
        </g>
        <g
           class="ytick"
           id="g110">
          <text
             text-anchor="end"
             x="37.4"
             y="2.8"
             style="font-family: 'Segoe UI Semibold', 'Segoe UI', Arial; font-size: 8px; fill: rgb(0, 0, 0); fill-opacity: 1; white-space: pre; opacity: 1;"
             transform="translate(0,57.65)"
             id="text110">80</text>
        </g>
      </g>
      <g
         class="overaxes-above"
         id="g120">
        <g
           class="xy2-x"
           id="g112" />
        <g
           class="xy2-y"
           id="g119">
          <path
             class="y2tick ticks crisp"
             d="M564,0h-5"
             transform="translate(0,256.94)"
             style="stroke: rgb(0, 0, 0); stroke-opacity: 1; stroke-width: 1px;"
             id="path112" />
          <path
             class="y2tick ticks crisp"
             d="M564,0h-5"
             transform="translate(0,190.51)"
             style="stroke: rgb(0, 0, 0); stroke-opacity: 1; stroke-width: 1px;"
             id="path113" />
          <path
             class="y2tick ticks crisp"
             d="M564,0h-5"
             transform="translate(0,124.08)"
             style="stroke: rgb(0, 0, 0); stroke-opacity: 1; stroke-width: 1px;"
             id="path114" />
          <path
             class="y2tick ticks crisp"
             d="M564,0h-5"
             transform="translate(0,57.65)"
             style="stroke: rgb(0, 0, 0); stroke-opacity: 1; stroke-width: 1px;"
             id="path115" />
          <g
             class="y2tick"
             id="g115">
            <text
               text-anchor="start"
               x="566.6"
               y="2.8"
               transform="translate(0,256.94)"
               style="font-family: 'Segoe UI Semibold', 'Segoe UI', Arial; font-size: 8px; fill: rgb(0, 0, 0); fill-opacity: 1; white-space: pre; opacity: 1;"
               id="text115">20</text>
          </g>
          <g
             class="y2tick"
             id="g116">
            <text
               text-anchor="start"
               x="566.6"
               y="2.8"
               style="font-family: 'Segoe UI Semibold', 'Segoe UI', Arial; font-size: 8px; fill: rgb(0, 0, 0); fill-opacity: 1; white-space: pre; opacity: 1;"
               transform="translate(0,190.51)"
               id="text116">40</text>
          </g>
          <g
             class="y2tick"
             id="g117">
            <text
               text-anchor="start"
               x="566.6"
               y="2.8"
               style="font-family: 'Segoe UI Semibold', 'Segoe UI', Arial; font-size: 8px; fill: rgb(0, 0, 0); fill-opacity: 1; white-space: pre; opacity: 1;"
               transform="translate(0,124.08)"
               id="text117">60</text>
          </g>
          <g
             class="y2tick"
             id="g118">
            <text
               text-anchor="start"
               x="566.6"
               y="2.8"
               style="font-family: 'Segoe UI Semibold', 'Segoe UI', Arial; font-size: 8px; fill: rgb(0, 0, 0); fill-opacity: 1; white-space: pre; opacity: 1;"
               transform="translate(0,57.65)"
               id="text118">80</text>
          </g>
        </g>
      </g>
    </g>
    <g
       class="subplot xy2"
       id="g122" />
  </g>
  <g
     class="polarlayer"
     id="g124" />
  <g
     class="smithlayer"
     id="g125" />
  <g
     class="ternarylayer"
     id="g126" />
  <g
     class="geolayer"
     id="g127" />
  <g
     class="funnelarealayer"
     id="g128" />
  <g
     class="pielayer"
     id="g129" />
  <g
     class="iciclelayer"
     id="g130" />
  <g
     class="treemaplayer"
     id="g131" />
  <g
     class="sunburstlayer"
     id="g132" />
  <g
     class="glimages"
     id="g133" />
  <defs
     id="topdefs-070345">
    <g
       class="clips"
       id="g134" />
  </defs>
  <g
     class="layer-above"
     id="g140">
    <g
       class="imagelayer"
       id="g135" />
    <g
       class="shapelayer"
       id="g139">
      <g
         class="shape-group"
         data-index="0"
         clip-path="url(#clip070345y)"
         id="g136">
        <path
           data-index="0"
           fill-rule="evenodd"
           d="M40,167.26L564,167.26"
           style="opacity: 1; stroke: rgb(0, 0, 0); stroke-opacity: 1; fill: rgb(0, 0, 0); fill-opacity: 0; stroke-width: 0.6px;"
           id="path135" />
      </g>
      <g
         class="shape-group"
         data-index="36"
         id="g137">
        <path
           data-index="36"
           fill-rule="evenodd"
           d="M71.44,29.200000000000006L102.88,29.200000000000006"
           style="opacity: 1; stroke: rgb(69, 90, 100); stroke-opacity: 1; fill: rgb(0, 0, 0); fill-opacity: 0; stroke-width: 2px;"
           id="path136" />
      </g>
      <g
         class="shape-group"
         data-index="37"
         id="g138">
        <path
           data-index="37"
           fill-rule="evenodd"
           d="M71.44,39.280000000000015L102.88,39.280000000000015"
           style="opacity: 1; stroke: rgb(2, 119, 189); stroke-opacity: 1; fill: rgb(0, 0, 0); fill-opacity: 0; stroke-width: 2px;"
           id="path137" />
      </g>
    </g>
  </g>
  <g
     class="infolayer"
     id="g162">
    <g
       class="g-gtitle"
       id="g141" />
    <g
       class="g-xtitle"
       id="g142" />
    <g
       class="g-ytitle"
       id="g143" />
    <g
       class="g-y2title"
       id="g144" />
    <g
       class="annotation"
       data-index="0"
       style="opacity: 1;"
       id="g147">
      <g
         class="annotation-text-g"
         transform="rotate(0,114.5,29.200000000000006)"
         id="g146">
        <g
           class="cursor-pointer"
           transform="translate(106,24)"
           id="g145">
          <rect
             class="bg"
             x="0.5"
             y="0.5"
             width="17"
             height="9"
             style="stroke-width: 1px; stroke: rgb(0, 0, 0); stroke-opacity: 0; fill: rgb(0, 0, 0); fill-opacity: 0;"
             id="rect144" />
          <text
             class="annotation-text"
             text-anchor="start"
             x="2"
             y="7"
             style="font-family: 'Segoe UI Semibold', 'Segoe UI', Arial; font-size: 6px; fill: rgb(0, 0, 0); fill-opacity: 1; white-space: pre;"
             id="text144">ZION</text>
        </g>
      </g>
    </g>
    <g
       class="annotation"
       data-index="1"
       style="opacity: 1;"
       id="g150">
      <g
         class="annotation-text-g"
         transform="rotate(0,117.5,39.280000000000015)"
         id="g149">
        <g
           class="cursor-pointer"
           transform="translate(106,34)"
           id="g148">
          <rect
             class="bg"
             x="0.5"
             y="0.5"
             width="23"
             height="9"
             style="stroke-width: 1px; stroke: rgb(0, 0, 0); stroke-opacity: 0; fill: rgb(0, 0, 0); fill-opacity: 0;"
             id="rect147" />
          <text
             class="annotation-text"
             text-anchor="start"
             x="2"
             y="7"
             style="font-family: 'Segoe UI Semibold', 'Segoe UI', Arial; font-size: 6px; fill: rgb(0, 0, 0); fill-opacity: 1; white-space: pre;"
             id="text147">MA 200</text>
        </g>
      </g>
    </g>
    <g
       class="annotation"
       data-index="2"
       style="opacity: 1;"
       id="g155">
      <g
         class="annotation-text-g"
         transform="rotate(0,354.08559999999994,56.69165714285713)"
         id="g154">
        <g
           class="cursor-pointer"
           transform="translate(237,35)"
           id="g153">
          <rect
             class="bg"
             x="0.5"
             y="0.5"
             width="234"
             height="43"
             style="stroke-width: 1px; stroke: rgb(0, 0, 0); stroke-opacity: 0; fill: rgb(0, 0, 0); fill-opacity: 0;"
             id="rect150" />
          <text
             class="annotation-text"
             text-anchor="middle"
             x="117.2890625"
             y="9"
             style="font-family: 'Segoe UI Semibold', 'Segoe UI', Arial; font-size: 8px; fill: rgb(124, 45, 18); fill-opacity: 1; white-space: pre;"
             id="text153"><tspan
               class="line"
               dy="0em"
               x="117.2890625"
               y="9"
               id="tspan150">TESTING ~47THE 61.8% OF THE RALLY FROM THE</tspan><tspan
               class="line"
               dy="1.3em"
               x="117.2890625"
               y="9"
               id="tspan151">LIBERATION DAY LOW TO THE ATH. A HOLD STEADIES THE</tspan><tspan
               class="line"
               dy="2.6em"
               x="117.2890625"
               y="9"
               id="tspan152">TAPE; A BREAK RISKS REIGNITING REGIONAL-BANK FEARS</tspan><tspan
               class="line"
               dy="3.9000000000000004em"
               x="117.2890625"
               y="9"
               id="tspan153">AND BROADER MARKET CHOP.</tspan></text>
        </g>
      </g>
    </g>
    <g
       class="annotation"
       data-index="3"
       style="opacity: 1;"
       id="g158">
      <g
         class="annotation-text-g"
         transform="rotate(0,317.47546666666665,163.33394285714286)"
         id="g157">
        <g
           class="cursor-pointer"
           transform="translate(298,157)"
           id="g156">
          <rect
             class="bg"
             x="0.5"
             y="0.5"
             width="37"
             height="12"
             style="stroke-width: 1px; stroke: rgb(0, 0, 0); stroke-opacity: 0; fill: rgb(0, 0, 0); fill-opacity: 0;"
             id="rect155" />
          <text
             class="annotation-text"
             text-anchor="middle"
             x="18.90625"
             y="9"
             style="font-family: 'Segoe UI Semibold', 'Segoe UI', Arial; font-size: 8px; fill: rgb(124, 45, 18); fill-opacity: 1; white-space: pre;"
             id="text155">47/61.8%</text>
        </g>
      </g>
    </g>
    <g
       class="annotation"
       data-index="4"
       style="opacity:1"
       id="g161"
       transform="translate(0.70257611,1.4051522)">
      <g
         class="annotation-text-g"
         id="g160">
        <g
           class="cursor-pointer"
           transform="translate(40,318)"
           id="g159">
          <rect
             class="bg"
             x="0.5"
             y="0.5"
             width="301"
             height="22"
             style="fill:#000000;fill-opacity:0;stroke:#000000;stroke-width:1px;stroke-opacity:0"
             id="rect158" />
          <text
             class="annotation-text"
             text-anchor="start"
             x="2"
             y="9"
             style="font-size:8px;font-family:'Segoe UI Semibold', 'Segoe UI', Arial;white-space:pre;fill:#000000;fill-opacity:1"
             id="text159"><tspan
               class="line"
               dy="0em"
               x="2"
               y="9"
               id="tspan158">SOURCE: GENESIS RESEARCH.</tspan><tspan
               class="line"
               dy="1.3em"
               x="2"
               y="9"
               id="tspan159">NOTE: SHADED AREAS REPRESENT U.S. NBER-DESIGNATED RECESSIONS.</tspan></text>
        </g>
      </g>
    </g>
  </g>
</svg>
